<mxfile host="Electron" agent="Mozilla/5.0 (Windows NT 10.0; Win64; x64) AppleWebKit/537.36 (KHTML, like Gecko) draw.io/24.7.8 Chrome/128.0.6613.36 Electron/32.0.1 Safari/537.36" version="24.7.8">
  <diagram name="Page-1" id="zhVPDChsOYCCRM7h3L9j">
    <mxGraphModel dx="12691" dy="3974" grid="0" gridSize="10" guides="1" tooltips="1" connect="1" arrows="1" fold="1" page="0" pageScale="1" pageWidth="827" pageHeight="1169" math="1" shadow="0">
      <root>
        <mxCell id="0" />
        <mxCell id="1" parent="0" />
        <mxCell id="wEDj9y5ge6KxLb9yTbvh-264" value="" style="rounded=1;whiteSpace=wrap;html=1;fillColor=none;strokeWidth=4;strokeColor=#0000FF;" vertex="1" parent="1">
          <mxGeometry x="1541.5" y="-768" width="4021" height="9333" as="geometry" />
        </mxCell>
        <mxCell id="e0o2W6mFJVZslNkPYuPA-223" style="edgeStyle=none;html=1;exitX=0.5;exitY=0;exitDx=0;exitDy=0;entryX=0.5;entryY=1;entryDx=0;entryDy=0;fontSize=24;" parent="1" source="e0o2W6mFJVZslNkPYuPA-224" target="e0o2W6mFJVZslNkPYuPA-427" edge="1">
          <mxGeometry relative="1" as="geometry" />
        </mxCell>
        <mxCell id="e0o2W6mFJVZslNkPYuPA-224" value="&lt;font style=&quot;font-size: 24px;&quot;&gt;INPUT ENCODER&lt;/font&gt;" style="rounded=1;whiteSpace=wrap;html=1;" parent="1" vertex="1">
          <mxGeometry x="2.5600000000001444" y="13849" width="277" height="60" as="geometry" />
        </mxCell>
        <mxCell id="wEDj9y5ge6KxLb9yTbvh-210" style="edgeStyle=orthogonalEdgeStyle;rounded=0;orthogonalLoop=1;jettySize=auto;html=1;exitX=0.5;exitY=0;exitDx=0;exitDy=0;" edge="1" parent="1" source="e0o2W6mFJVZslNkPYuPA-226" target="wEDj9y5ge6KxLb9yTbvh-177">
          <mxGeometry relative="1" as="geometry" />
        </mxCell>
        <mxCell id="e0o2W6mFJVZslNkPYuPA-226" value="" style="rounded=1;whiteSpace=wrap;html=1;fillColor=#f0a30a;strokeColor=#BD7000;rotation=0;labelBackgroundColor=none;fontColor=#000000;" parent="1" vertex="1">
          <mxGeometry x="-366.4999999999999" y="13083" width="176" height="50" as="geometry" />
        </mxCell>
        <mxCell id="e0o2W6mFJVZslNkPYuPA-227" value="" style="ellipse;whiteSpace=wrap;html=1;aspect=fixed;fillColor=#f5f5f5;fontColor=#333333;strokeColor=#666666;labelBackgroundColor=none;direction=west;" parent="1" vertex="1">
          <mxGeometry x="-356.9999999999999" y="13088" width="36" height="36" as="geometry" />
        </mxCell>
        <mxCell id="e0o2W6mFJVZslNkPYuPA-228" value="" style="ellipse;whiteSpace=wrap;html=1;aspect=fixed;fillColor=#f5f5f5;fontColor=#333333;strokeColor=#666666;labelBackgroundColor=none;direction=west;" parent="1" vertex="1">
          <mxGeometry x="-306.9999999999999" y="13088" width="36" height="36" as="geometry" />
        </mxCell>
        <mxCell id="e0o2W6mFJVZslNkPYuPA-229" value="" style="ellipse;whiteSpace=wrap;html=1;aspect=fixed;fillColor=#f5f5f5;fontColor=#333333;strokeColor=#666666;labelBackgroundColor=none;direction=west;" parent="1" vertex="1">
          <mxGeometry x="-234.9999999999999" y="13086" width="38" height="38" as="geometry" />
        </mxCell>
        <mxCell id="e0o2W6mFJVZslNkPYuPA-230" value="" style="endArrow=none;dashed=1;html=1;dashPattern=1 3;strokeWidth=2;fontSize=24;" parent="1" edge="1">
          <mxGeometry width="50" height="50" relative="1" as="geometry">
            <mxPoint x="-262.9999999999999" y="13107.68" as="sourcePoint" />
            <mxPoint x="-238.9999999999999" y="13107.68" as="targetPoint" />
          </mxGeometry>
        </mxCell>
        <mxCell id="wEDj9y5ge6KxLb9yTbvh-212" style="edgeStyle=orthogonalEdgeStyle;rounded=0;orthogonalLoop=1;jettySize=auto;html=1;exitX=0.5;exitY=0;exitDx=0;exitDy=0;entryX=0.5;entryY=1;entryDx=0;entryDy=0;" edge="1" parent="1" source="e0o2W6mFJVZslNkPYuPA-232" target="wEDj9y5ge6KxLb9yTbvh-178">
          <mxGeometry relative="1" as="geometry" />
        </mxCell>
        <mxCell id="e0o2W6mFJVZslNkPYuPA-232" value="" style="rounded=1;whiteSpace=wrap;html=1;fillColor=#FFFFCC;strokeColor=#BD7000;rotation=0;labelBackgroundColor=none;fontColor=#000000;" parent="1" vertex="1">
          <mxGeometry x="91.00000000000007" y="12915" width="176" height="50" as="geometry" />
        </mxCell>
        <mxCell id="e0o2W6mFJVZslNkPYuPA-233" value="" style="ellipse;whiteSpace=wrap;html=1;aspect=fixed;fillColor=#f5f5f5;fontColor=#333333;strokeColor=#666666;labelBackgroundColor=none;direction=west;" parent="1" vertex="1">
          <mxGeometry x="100.50000000000006" y="12920" width="36" height="36" as="geometry" />
        </mxCell>
        <mxCell id="e0o2W6mFJVZslNkPYuPA-234" value="" style="ellipse;whiteSpace=wrap;html=1;aspect=fixed;fillColor=#f5f5f5;fontColor=#333333;strokeColor=#666666;labelBackgroundColor=none;direction=west;" parent="1" vertex="1">
          <mxGeometry x="150.50000000000006" y="12920" width="36" height="36" as="geometry" />
        </mxCell>
        <mxCell id="e0o2W6mFJVZslNkPYuPA-235" value="" style="ellipse;whiteSpace=wrap;html=1;aspect=fixed;fillColor=#f5f5f5;fontColor=#333333;strokeColor=#666666;labelBackgroundColor=none;direction=west;" parent="1" vertex="1">
          <mxGeometry x="224.49999999999994" y="12920" width="36" height="36" as="geometry" />
        </mxCell>
        <mxCell id="e0o2W6mFJVZslNkPYuPA-236" value="" style="endArrow=none;dashed=1;html=1;dashPattern=1 3;strokeWidth=2;fontSize=24;" parent="1" edge="1">
          <mxGeometry width="50" height="50" relative="1" as="geometry">
            <mxPoint x="194.49999999999994" y="12939.68" as="sourcePoint" />
            <mxPoint x="218.49999999999994" y="12939.68" as="targetPoint" />
          </mxGeometry>
        </mxCell>
        <mxCell id="wEDj9y5ge6KxLb9yTbvh-214" style="edgeStyle=orthogonalEdgeStyle;rounded=0;orthogonalLoop=1;jettySize=auto;html=1;exitX=0.5;exitY=0;exitDx=0;exitDy=0;entryX=0.5;entryY=1;entryDx=0;entryDy=0;" edge="1" parent="1" source="e0o2W6mFJVZslNkPYuPA-238" target="wEDj9y5ge6KxLb9yTbvh-179">
          <mxGeometry relative="1" as="geometry" />
        </mxCell>
        <mxCell id="e0o2W6mFJVZslNkPYuPA-238" value="" style="rounded=1;whiteSpace=wrap;html=1;fillColor=#BD2608;strokeColor=#FF6666;rotation=0;labelBackgroundColor=none;fontColor=#000000;" parent="1" vertex="1">
          <mxGeometry x="520.5000000000001" y="12742" width="176" height="50" as="geometry" />
        </mxCell>
        <mxCell id="e0o2W6mFJVZslNkPYuPA-239" value="" style="ellipse;whiteSpace=wrap;html=1;aspect=fixed;fillColor=#f5f5f5;fontColor=#333333;strokeColor=#666666;labelBackgroundColor=none;direction=west;" parent="1" vertex="1">
          <mxGeometry x="530.0000000000001" y="12747" width="36" height="36" as="geometry" />
        </mxCell>
        <mxCell id="e0o2W6mFJVZslNkPYuPA-240" value="" style="ellipse;whiteSpace=wrap;html=1;aspect=fixed;fillColor=#f5f5f5;fontColor=#333333;strokeColor=#666666;labelBackgroundColor=none;direction=west;" parent="1" vertex="1">
          <mxGeometry x="580.0000000000001" y="12747" width="36" height="36" as="geometry" />
        </mxCell>
        <mxCell id="e0o2W6mFJVZslNkPYuPA-241" value="" style="ellipse;whiteSpace=wrap;html=1;aspect=fixed;fillColor=#f5f5f5;fontColor=#333333;strokeColor=#666666;labelBackgroundColor=none;direction=west;" parent="1" vertex="1">
          <mxGeometry x="654.0000000000001" y="12747" width="36" height="36" as="geometry" />
        </mxCell>
        <mxCell id="e0o2W6mFJVZslNkPYuPA-242" value="" style="endArrow=none;dashed=1;html=1;dashPattern=1 3;strokeWidth=2;fontSize=24;" parent="1" edge="1">
          <mxGeometry width="50" height="50" relative="1" as="geometry">
            <mxPoint x="624.0000000000001" y="12766.68" as="sourcePoint" />
            <mxPoint x="648.0000000000001" y="12766.68" as="targetPoint" />
          </mxGeometry>
        </mxCell>
        <mxCell id="e0o2W6mFJVZslNkPYuPA-243" value="$$K_{e}$$" style="text;html=1;strokeColor=none;fillColor=none;align=center;verticalAlign=middle;whiteSpace=wrap;rounded=0;fontSize=24;" parent="1" vertex="1">
          <mxGeometry x="-383.9999999999999" y="13053" width="60" height="30" as="geometry" />
        </mxCell>
        <mxCell id="e0o2W6mFJVZslNkPYuPA-244" value="$$Q_{e}$$" style="text;html=1;strokeColor=none;fillColor=none;align=center;verticalAlign=middle;whiteSpace=wrap;rounded=0;fontSize=24;" parent="1" vertex="1">
          <mxGeometry x="79.00000000000007" y="12885" width="60" height="30" as="geometry" />
        </mxCell>
        <mxCell id="e0o2W6mFJVZslNkPYuPA-245" value="$$V_{e}$$" style="text;html=1;strokeColor=none;fillColor=none;align=center;verticalAlign=middle;whiteSpace=wrap;rounded=0;fontSize=24;" parent="1" vertex="1">
          <mxGeometry x="506.0000000000001" y="12711" width="60" height="30" as="geometry" />
        </mxCell>
        <mxCell id="wEDj9y5ge6KxLb9yTbvh-185" style="edgeStyle=orthogonalEdgeStyle;rounded=0;orthogonalLoop=1;jettySize=auto;html=1;exitX=0.5;exitY=0;exitDx=0;exitDy=0;" edge="1" parent="1" source="e0o2W6mFJVZslNkPYuPA-247" target="e0o2W6mFJVZslNkPYuPA-249">
          <mxGeometry relative="1" as="geometry" />
        </mxCell>
        <mxCell id="e0o2W6mFJVZslNkPYuPA-247" value="&lt;br&gt;&lt;div style=&quot;border-color: var(--border-color); font-size: 30px;&quot;&gt;&lt;font style=&quot;border-color: var(--border-color);&quot;&gt;$$A_{weights}=\frac{Q_{E} K^T}{\sqrt d_k}$$&lt;/font&gt;&lt;/div&gt;&lt;div style=&quot;border-color: var(--border-color); font-size: 30px;&quot;&gt;&lt;font style=&quot;border-color: var(--border-color);&quot;&gt;&lt;br style=&quot;border-color: var(--border-color);&quot;&gt;&lt;/font&gt;&lt;/div&gt;" style="rounded=1;whiteSpace=wrap;html=1;strokeColor=#FF6666;fontSize=24;fillColor=#FFFFFF;" parent="1" vertex="1">
          <mxGeometry x="-238.99999999999997" y="11728" width="330" height="118" as="geometry" />
        </mxCell>
        <mxCell id="e0o2W6mFJVZslNkPYuPA-248" style="edgeStyle=none;html=1;exitX=0.5;exitY=0;exitDx=0;exitDy=0;fontSize=24;" parent="1" source="e0o2W6mFJVZslNkPYuPA-249" target="e0o2W6mFJVZslNkPYuPA-251" edge="1">
          <mxGeometry relative="1" as="geometry" />
        </mxCell>
        <mxCell id="wEDj9y5ge6KxLb9yTbvh-217" style="rounded=0;orthogonalLoop=1;jettySize=auto;html=1;exitX=0;exitY=0.5;exitDx=0;exitDy=0;entryX=1;entryY=0.5;entryDx=0;entryDy=0;" edge="1" parent="1" source="e0o2W6mFJVZslNkPYuPA-249" target="wEDj9y5ge6KxLb9yTbvh-173">
          <mxGeometry relative="1" as="geometry">
            <Array as="points">
              <mxPoint x="-617" y="11170" />
            </Array>
          </mxGeometry>
        </mxCell>
        <mxCell id="wEDj9y5ge6KxLb9yTbvh-218" style="rounded=0;orthogonalLoop=1;jettySize=auto;html=1;exitX=0;exitY=0.5;exitDx=0;exitDy=0;entryX=1;entryY=0.5;entryDx=0;entryDy=0;" edge="1" parent="1" source="e0o2W6mFJVZslNkPYuPA-249" target="wEDj9y5ge6KxLb9yTbvh-172">
          <mxGeometry relative="1" as="geometry" />
        </mxCell>
        <mxCell id="wEDj9y5ge6KxLb9yTbvh-219" style="rounded=0;orthogonalLoop=1;jettySize=auto;html=1;exitX=0;exitY=0.5;exitDx=0;exitDy=0;entryX=1;entryY=0.5;entryDx=0;entryDy=0;" edge="1" parent="1" source="e0o2W6mFJVZslNkPYuPA-249" target="wEDj9y5ge6KxLb9yTbvh-171">
          <mxGeometry relative="1" as="geometry">
            <Array as="points">
              <mxPoint x="-594" y="11490" />
            </Array>
          </mxGeometry>
        </mxCell>
        <mxCell id="e0o2W6mFJVZslNkPYuPA-249" value="$$A_e=\sigma(\frac{Q_{E} K_{E}^T}{\sqrt d_k})V_{E}$$" style="rounded=1;whiteSpace=wrap;html=1;strokeColor=#FF6666;fontSize=24;fillColor=#FFFFFF;" parent="1" vertex="1">
          <mxGeometry x="-201.99999999999983" y="11294" width="256" height="118" as="geometry" />
        </mxCell>
        <mxCell id="e0o2W6mFJVZslNkPYuPA-250" style="edgeStyle=none;html=1;exitX=0.5;exitY=0;exitDx=0;exitDy=0;entryX=0.5;entryY=1;entryDx=0;entryDy=0;fontSize=24;" parent="1" source="e0o2W6mFJVZslNkPYuPA-251" target="e0o2W6mFJVZslNkPYuPA-254" edge="1">
          <mxGeometry relative="1" as="geometry" />
        </mxCell>
        <mxCell id="e0o2W6mFJVZslNkPYuPA-251" value="&lt;br&gt;&lt;div style=&quot;border-color: var(--border-color); font-size: 30px;&quot;&gt;&lt;font style=&quot;border-color: var(--border-color);&quot;&gt;$$X_e= A_e+Input^e$$&lt;/font&gt;&lt;/div&gt;&lt;div style=&quot;border-color: var(--border-color); font-size: 30px;&quot;&gt;&lt;font style=&quot;border-color: var(--border-color);&quot;&gt;&lt;br style=&quot;border-color: var(--border-color);&quot;&gt;&lt;/font&gt;&lt;/div&gt;" style="rounded=1;whiteSpace=wrap;html=1;strokeColor=#FF6666;fontSize=24;fillColor=#FFFFFF;" parent="1" vertex="1">
          <mxGeometry x="-325.4999999999998" y="10789" width="503" height="118" as="geometry" />
        </mxCell>
        <mxCell id="e0o2W6mFJVZslNkPYuPA-252" style="edgeStyle=none;html=1;exitX=0.5;exitY=0;exitDx=0;exitDy=0;fontSize=24;" parent="1" source="e0o2W6mFJVZslNkPYuPA-254" target="e0o2W6mFJVZslNkPYuPA-291" edge="1">
          <mxGeometry relative="1" as="geometry" />
        </mxCell>
        <mxCell id="wEDj9y5ge6KxLb9yTbvh-134" style="edgeStyle=orthogonalEdgeStyle;rounded=0;orthogonalLoop=1;jettySize=auto;html=1;exitX=1;exitY=0.5;exitDx=0;exitDy=0;entryX=1;entryY=0.5;entryDx=0;entryDy=0;" edge="1" parent="1" source="e0o2W6mFJVZslNkPYuPA-254" target="e0o2W6mFJVZslNkPYuPA-336">
          <mxGeometry relative="1" as="geometry">
            <Array as="points">
              <mxPoint x="737" y="10492" />
              <mxPoint x="737" y="7649" />
            </Array>
          </mxGeometry>
        </mxCell>
        <mxCell id="wEDj9y5ge6KxLb9yTbvh-165" style="rounded=0;orthogonalLoop=1;jettySize=auto;html=1;exitX=0;exitY=0.5;exitDx=0;exitDy=0;entryX=1;entryY=0.5;entryDx=0;entryDy=0;" edge="1" parent="1" source="e0o2W6mFJVZslNkPYuPA-254" target="wEDj9y5ge6KxLb9yTbvh-164">
          <mxGeometry relative="1" as="geometry" />
        </mxCell>
        <mxCell id="wEDj9y5ge6KxLb9yTbvh-175" style="rounded=0;orthogonalLoop=1;jettySize=auto;html=1;exitX=0;exitY=0.5;exitDx=0;exitDy=0;entryX=1;entryY=0.5;entryDx=0;entryDy=0;" edge="1" parent="1" source="e0o2W6mFJVZslNkPYuPA-254" target="wEDj9y5ge6KxLb9yTbvh-174">
          <mxGeometry relative="1" as="geometry" />
        </mxCell>
        <mxCell id="e0o2W6mFJVZslNkPYuPA-254" value="&lt;font style=&quot;font-size: 30px;&quot;&gt;$$E_{ct1}=Norm(X_e)$$&lt;/font&gt;" style="rounded=1;whiteSpace=wrap;html=1;strokeColor=#FF6666;fontSize=24;fillColor=#FFFFFF;" parent="1" vertex="1">
          <mxGeometry x="-545.9999999999998" y="10446" width="944" height="91" as="geometry" />
        </mxCell>
        <mxCell id="wEDj9y5ge6KxLb9yTbvh-201" style="edgeStyle=orthogonalEdgeStyle;rounded=0;orthogonalLoop=1;jettySize=auto;html=1;exitX=0;exitY=0.5;exitDx=0;exitDy=0;entryX=1;entryY=0.5;entryDx=0;entryDy=0;" edge="1" parent="1" source="e0o2W6mFJVZslNkPYuPA-259" target="wEDj9y5ge6KxLb9yTbvh-194">
          <mxGeometry relative="1" as="geometry" />
        </mxCell>
        <mxCell id="wEDj9y5ge6KxLb9yTbvh-211" style="rounded=0;orthogonalLoop=1;jettySize=auto;html=1;exitX=0.5;exitY=0;exitDx=0;exitDy=0;entryX=0.5;entryY=1;entryDx=0;entryDy=0;" edge="1" parent="1" source="e0o2W6mFJVZslNkPYuPA-259" target="e0o2W6mFJVZslNkPYuPA-226">
          <mxGeometry relative="1" as="geometry" />
        </mxCell>
        <mxCell id="wEDj9y5ge6KxLb9yTbvh-220" style="rounded=0;orthogonalLoop=1;jettySize=auto;html=1;exitX=0.5;exitY=0;exitDx=0;exitDy=0;entryX=0.5;entryY=1;entryDx=0;entryDy=0;" edge="1" parent="1" source="e0o2W6mFJVZslNkPYuPA-259" target="e0o2W6mFJVZslNkPYuPA-232">
          <mxGeometry relative="1" as="geometry" />
        </mxCell>
        <mxCell id="wEDj9y5ge6KxLb9yTbvh-221" style="rounded=0;orthogonalLoop=1;jettySize=auto;html=1;exitX=0.5;exitY=0;exitDx=0;exitDy=0;entryX=0.5;entryY=1;entryDx=0;entryDy=0;" edge="1" parent="1" source="e0o2W6mFJVZslNkPYuPA-259" target="e0o2W6mFJVZslNkPYuPA-238">
          <mxGeometry relative="1" as="geometry" />
        </mxCell>
        <mxCell id="e0o2W6mFJVZslNkPYuPA-259" value="$$Input^{e}=([Input_{ohe}]^{e}_{n_{W} \times n_V } \bullet [W_{emb}]_{n_V \times n_E})+P_e$$" style="rounded=1;whiteSpace=wrap;html=1;strokeColor=#FF6666;strokeWidth=4;fontSize=24;fillColor=none;" parent="1" vertex="1">
          <mxGeometry x="-178.44" y="13414" width="639" height="89" as="geometry" />
        </mxCell>
        <mxCell id="wEDj9y5ge6KxLb9yTbvh-116" style="edgeStyle=orthogonalEdgeStyle;rounded=0;orthogonalLoop=1;jettySize=auto;html=1;exitX=0.5;exitY=0;exitDx=0;exitDy=0;" edge="1" parent="1" source="e0o2W6mFJVZslNkPYuPA-260" target="wEDj9y5ge6KxLb9yTbvh-100">
          <mxGeometry relative="1" as="geometry" />
        </mxCell>
        <mxCell id="e0o2W6mFJVZslNkPYuPA-260" value="" style="rounded=1;whiteSpace=wrap;html=1;fillColor=#f0a30a;strokeColor=#BD7000;rotation=0;labelBackgroundColor=none;fontColor=#000000;" parent="1" vertex="1">
          <mxGeometry x="3874.5" y="8217" width="176" height="50" as="geometry" />
        </mxCell>
        <mxCell id="e0o2W6mFJVZslNkPYuPA-261" value="" style="ellipse;whiteSpace=wrap;html=1;aspect=fixed;fillColor=#f5f5f5;fontColor=#333333;strokeColor=#666666;labelBackgroundColor=none;direction=west;" parent="1" vertex="1">
          <mxGeometry x="3888.5" y="8224" width="36" height="36" as="geometry" />
        </mxCell>
        <mxCell id="e0o2W6mFJVZslNkPYuPA-262" value="" style="ellipse;whiteSpace=wrap;html=1;aspect=fixed;fillColor=#f5f5f5;fontColor=#333333;strokeColor=#666666;labelBackgroundColor=none;direction=west;" parent="1" vertex="1">
          <mxGeometry x="3938.5" y="8224" width="36" height="36" as="geometry" />
        </mxCell>
        <mxCell id="e0o2W6mFJVZslNkPYuPA-263" value="" style="ellipse;whiteSpace=wrap;html=1;aspect=fixed;fillColor=#f5f5f5;fontColor=#333333;strokeColor=#666666;labelBackgroundColor=none;direction=west;" parent="1" vertex="1">
          <mxGeometry x="4010.5" y="8222" width="35.5" height="35.5" as="geometry" />
        </mxCell>
        <mxCell id="e0o2W6mFJVZslNkPYuPA-264" value="" style="endArrow=none;dashed=1;html=1;dashPattern=1 3;strokeWidth=2;fontSize=24;" parent="1" edge="1">
          <mxGeometry width="50" height="50" relative="1" as="geometry">
            <mxPoint x="3982.5" y="8243.68" as="sourcePoint" />
            <mxPoint x="4006.5" y="8243.68" as="targetPoint" />
          </mxGeometry>
        </mxCell>
        <mxCell id="wEDj9y5ge6KxLb9yTbvh-101" style="edgeStyle=orthogonalEdgeStyle;rounded=0;orthogonalLoop=1;jettySize=auto;html=1;exitX=0.5;exitY=0;exitDx=0;exitDy=0;" edge="1" parent="1" source="e0o2W6mFJVZslNkPYuPA-266" target="wEDj9y5ge6KxLb9yTbvh-98">
          <mxGeometry relative="1" as="geometry" />
        </mxCell>
        <mxCell id="e0o2W6mFJVZslNkPYuPA-266" value="" style="rounded=1;whiteSpace=wrap;html=1;fillColor=#FFFFCC;strokeColor=#BD7000;rotation=0;labelBackgroundColor=none;fontColor=#000000;" parent="1" vertex="1">
          <mxGeometry x="4422" y="7789" width="176" height="50" as="geometry" />
        </mxCell>
        <mxCell id="e0o2W6mFJVZslNkPYuPA-267" value="" style="ellipse;whiteSpace=wrap;html=1;aspect=fixed;fillColor=#f5f5f5;fontColor=#333333;strokeColor=#666666;labelBackgroundColor=none;direction=west;" parent="1" vertex="1">
          <mxGeometry x="4426.5" y="7794" width="36" height="36" as="geometry" />
        </mxCell>
        <mxCell id="e0o2W6mFJVZslNkPYuPA-268" value="" style="ellipse;whiteSpace=wrap;html=1;aspect=fixed;fillColor=#f5f5f5;fontColor=#333333;strokeColor=#666666;labelBackgroundColor=none;direction=west;" parent="1" vertex="1">
          <mxGeometry x="4476.5" y="7794" width="36" height="36" as="geometry" />
        </mxCell>
        <mxCell id="e0o2W6mFJVZslNkPYuPA-269" value="" style="ellipse;whiteSpace=wrap;html=1;aspect=fixed;fillColor=#f5f5f5;fontColor=#333333;strokeColor=#666666;labelBackgroundColor=none;direction=west;" parent="1" vertex="1">
          <mxGeometry x="4550.5" y="7794" width="36" height="36" as="geometry" />
        </mxCell>
        <mxCell id="e0o2W6mFJVZslNkPYuPA-270" value="" style="endArrow=none;dashed=1;html=1;dashPattern=1 3;strokeWidth=2;fontSize=24;" parent="1" edge="1">
          <mxGeometry width="50" height="50" relative="1" as="geometry">
            <mxPoint x="4520.5" y="7813.68" as="sourcePoint" />
            <mxPoint x="4544.5" y="7813.68" as="targetPoint" />
          </mxGeometry>
        </mxCell>
        <mxCell id="wEDj9y5ge6KxLb9yTbvh-99" style="edgeStyle=orthogonalEdgeStyle;rounded=0;orthogonalLoop=1;jettySize=auto;html=1;exitX=0.5;exitY=0;exitDx=0;exitDy=0;" edge="1" parent="1" source="e0o2W6mFJVZslNkPYuPA-272" target="wEDj9y5ge6KxLb9yTbvh-97">
          <mxGeometry relative="1" as="geometry" />
        </mxCell>
        <mxCell id="e0o2W6mFJVZslNkPYuPA-272" value="" style="rounded=1;whiteSpace=wrap;html=1;fillColor=#BD2608;strokeColor=#FF6666;rotation=0;labelBackgroundColor=none;fontColor=#000000;" parent="1" vertex="1">
          <mxGeometry x="4850.5" y="7345" width="176" height="50" as="geometry" />
        </mxCell>
        <mxCell id="e0o2W6mFJVZslNkPYuPA-273" value="" style="ellipse;whiteSpace=wrap;html=1;aspect=fixed;fillColor=#f5f5f5;fontColor=#333333;strokeColor=#666666;labelBackgroundColor=none;direction=west;" parent="1" vertex="1">
          <mxGeometry x="4860" y="7350" width="36" height="36" as="geometry" />
        </mxCell>
        <mxCell id="e0o2W6mFJVZslNkPYuPA-274" value="" style="ellipse;whiteSpace=wrap;html=1;aspect=fixed;fillColor=#f5f5f5;fontColor=#333333;strokeColor=#666666;labelBackgroundColor=none;direction=west;" parent="1" vertex="1">
          <mxGeometry x="4910" y="7350" width="36" height="36" as="geometry" />
        </mxCell>
        <mxCell id="e0o2W6mFJVZslNkPYuPA-275" value="" style="ellipse;whiteSpace=wrap;html=1;aspect=fixed;fillColor=#f5f5f5;fontColor=#333333;strokeColor=#666666;labelBackgroundColor=none;direction=west;" parent="1" vertex="1">
          <mxGeometry x="4984.5" y="7350" width="35.5" height="35.5" as="geometry" />
        </mxCell>
        <mxCell id="e0o2W6mFJVZslNkPYuPA-276" value="" style="endArrow=none;dashed=1;html=1;dashPattern=1 3;strokeWidth=2;fontSize=24;" parent="1" edge="1">
          <mxGeometry width="50" height="50" relative="1" as="geometry">
            <mxPoint x="4954" y="7369.68" as="sourcePoint" />
            <mxPoint x="4978" y="7369.68" as="targetPoint" />
          </mxGeometry>
        </mxCell>
        <mxCell id="e0o2W6mFJVZslNkPYuPA-277" value="$$K_{d}$$" style="text;html=1;strokeColor=none;fillColor=none;align=center;verticalAlign=middle;whiteSpace=wrap;rounded=0;fontSize=24;" parent="1" vertex="1">
          <mxGeometry x="3867.5" y="8187" width="60" height="30" as="geometry" />
        </mxCell>
        <mxCell id="e0o2W6mFJVZslNkPYuPA-278" value="$$Q_{d}$$" style="text;html=1;strokeColor=none;fillColor=none;align=center;verticalAlign=middle;whiteSpace=wrap;rounded=0;fontSize=24;" parent="1" vertex="1">
          <mxGeometry x="4419" y="7755" width="60" height="30" as="geometry" />
        </mxCell>
        <mxCell id="e0o2W6mFJVZslNkPYuPA-279" value="$$V_{d}$$" style="text;html=1;strokeColor=none;fillColor=none;align=center;verticalAlign=middle;whiteSpace=wrap;rounded=0;fontSize=24;" parent="1" vertex="1">
          <mxGeometry x="4843.5" y="7311" width="60" height="30" as="geometry" />
        </mxCell>
        <mxCell id="wEDj9y5ge6KxLb9yTbvh-232" style="edgeStyle=orthogonalEdgeStyle;rounded=0;orthogonalLoop=1;jettySize=auto;html=1;exitX=0.5;exitY=0;exitDx=0;exitDy=0;entryX=0.5;entryY=1;entryDx=0;entryDy=0;" edge="1" parent="1" source="e0o2W6mFJVZslNkPYuPA-283" target="wEDj9y5ge6KxLb9yTbvh-205">
          <mxGeometry relative="1" as="geometry" />
        </mxCell>
        <mxCell id="e0o2W6mFJVZslNkPYuPA-283" value="MASKING TRIANGULAR MATRIX" style="rounded=1;whiteSpace=wrap;html=1;strokeColor=#FF6666;fontSize=24;fillColor=#FFFFFF;" parent="1" vertex="1">
          <mxGeometry x="4075.5" y="7389" width="182.5" height="88" as="geometry" />
        </mxCell>
        <mxCell id="e0o2W6mFJVZslNkPYuPA-284" style="edgeStyle=none;html=1;entryX=0.5;entryY=1;entryDx=0;entryDy=0;fontSize=24;" parent="1" source="e0o2W6mFJVZslNkPYuPA-285" target="e0o2W6mFJVZslNkPYuPA-289" edge="1">
          <mxGeometry relative="1" as="geometry" />
        </mxCell>
        <mxCell id="wEDj9y5ge6KxLb9yTbvh-234" style="rounded=0;orthogonalLoop=1;jettySize=auto;html=1;exitX=1;exitY=0.5;exitDx=0;exitDy=0;entryX=0;entryY=0.5;entryDx=0;entryDy=0;" edge="1" parent="1" source="e0o2W6mFJVZslNkPYuPA-285" target="wEDj9y5ge6KxLb9yTbvh-96">
          <mxGeometry relative="1" as="geometry" />
        </mxCell>
        <mxCell id="wEDj9y5ge6KxLb9yTbvh-235" style="rounded=0;orthogonalLoop=1;jettySize=auto;html=1;exitX=1;exitY=0.5;exitDx=0;exitDy=0;" edge="1" parent="1" source="e0o2W6mFJVZslNkPYuPA-285" target="wEDj9y5ge6KxLb9yTbvh-106">
          <mxGeometry relative="1" as="geometry" />
        </mxCell>
        <mxCell id="wEDj9y5ge6KxLb9yTbvh-236" style="rounded=0;orthogonalLoop=1;jettySize=auto;html=1;exitX=1;exitY=0.5;exitDx=0;exitDy=0;entryX=0;entryY=0.5;entryDx=0;entryDy=0;" edge="1" parent="1" source="e0o2W6mFJVZslNkPYuPA-285" target="wEDj9y5ge6KxLb9yTbvh-107">
          <mxGeometry relative="1" as="geometry" />
        </mxCell>
        <mxCell id="e0o2W6mFJVZslNkPYuPA-285" value="$$A_{mask}=A_{weights}\cdot V_{D}$$" style="rounded=1;whiteSpace=wrap;html=1;strokeColor=#FF6666;fontSize=24;fillColor=#FFFFFF;" parent="1" vertex="1">
          <mxGeometry x="3941.62" y="6179" width="451" height="118" as="geometry" />
        </mxCell>
        <mxCell id="wEDj9y5ge6KxLb9yTbvh-74" style="edgeStyle=orthogonalEdgeStyle;rounded=0;orthogonalLoop=1;jettySize=auto;html=1;exitX=0.5;exitY=0;exitDx=0;exitDy=0;" edge="1" parent="1" source="e0o2W6mFJVZslNkPYuPA-287" target="e0o2W6mFJVZslNkPYuPA-330">
          <mxGeometry relative="1" as="geometry" />
        </mxCell>
        <mxCell id="wEDj9y5ge6KxLb9yTbvh-90" style="rounded=0;orthogonalLoop=1;jettySize=auto;html=1;exitX=1;exitY=0.5;exitDx=0;exitDy=0;entryX=0;entryY=0.5;entryDx=0;entryDy=0;" edge="1" parent="1" source="e0o2W6mFJVZslNkPYuPA-287" target="wEDj9y5ge6KxLb9yTbvh-88">
          <mxGeometry relative="1" as="geometry" />
        </mxCell>
        <mxCell id="wEDj9y5ge6KxLb9yTbvh-95" style="rounded=0;orthogonalLoop=1;jettySize=auto;html=1;exitX=1;exitY=0.5;exitDx=0;exitDy=0;entryX=0;entryY=0.5;entryDx=0;entryDy=0;" edge="1" parent="1" source="e0o2W6mFJVZslNkPYuPA-287" target="wEDj9y5ge6KxLb9yTbvh-94">
          <mxGeometry relative="1" as="geometry" />
        </mxCell>
        <mxCell id="wEDj9y5ge6KxLb9yTbvh-208" style="edgeStyle=orthogonalEdgeStyle;rounded=0;orthogonalLoop=1;jettySize=auto;html=1;exitX=0.75;exitY=0;exitDx=0;exitDy=0;entryX=1;entryY=0.5;entryDx=0;entryDy=0;" edge="1" parent="1" source="e0o2W6mFJVZslNkPYuPA-287" target="e0o2W6mFJVZslNkPYuPA-358">
          <mxGeometry relative="1" as="geometry" />
        </mxCell>
        <mxCell id="e0o2W6mFJVZslNkPYuPA-287" value="$$D_{t1}=Norm(X_d)$$" style="rounded=1;whiteSpace=wrap;html=1;strokeColor=#FF6666;fontSize=24;fillColor=#FFFFFF;" parent="1" vertex="1">
          <mxGeometry x="3732.12" y="5289" width="870" height="87" as="geometry" />
        </mxCell>
        <mxCell id="e0o2W6mFJVZslNkPYuPA-288" style="edgeStyle=none;html=1;exitX=0.5;exitY=0;exitDx=0;exitDy=0;entryX=0.5;entryY=1;entryDx=0;entryDy=0;fontSize=24;" parent="1" source="e0o2W6mFJVZslNkPYuPA-289" target="e0o2W6mFJVZslNkPYuPA-287" edge="1">
          <mxGeometry relative="1" as="geometry" />
        </mxCell>
        <mxCell id="e0o2W6mFJVZslNkPYuPA-289" value="$$X_d=Input^d+A_{masked}$$" style="rounded=1;whiteSpace=wrap;html=1;strokeColor=#FF6666;fontSize=24;fillColor=#FFFFFF;" parent="1" vertex="1">
          <mxGeometry x="3937.37" y="5748" width="455.25" height="118" as="geometry" />
        </mxCell>
        <mxCell id="wEDj9y5ge6KxLb9yTbvh-159" style="edgeStyle=orthogonalEdgeStyle;rounded=0;orthogonalLoop=1;jettySize=auto;html=1;exitX=0.5;exitY=0;exitDx=0;exitDy=0;entryX=0.5;entryY=1;entryDx=0;entryDy=0;" edge="1" parent="1" source="e0o2W6mFJVZslNkPYuPA-291" target="wEDj9y5ge6KxLb9yTbvh-158">
          <mxGeometry relative="1" as="geometry" />
        </mxCell>
        <mxCell id="wEDj9y5ge6KxLb9yTbvh-162" style="rounded=0;orthogonalLoop=1;jettySize=auto;html=1;exitX=0;exitY=0.5;exitDx=0;exitDy=0;entryX=1;entryY=0.5;entryDx=0;entryDy=0;" edge="1" parent="1" source="e0o2W6mFJVZslNkPYuPA-291" target="wEDj9y5ge6KxLb9yTbvh-152">
          <mxGeometry relative="1" as="geometry" />
        </mxCell>
        <mxCell id="wEDj9y5ge6KxLb9yTbvh-163" style="rounded=0;orthogonalLoop=1;jettySize=auto;html=1;exitX=0;exitY=0.5;exitDx=0;exitDy=0;entryX=1;entryY=0.5;entryDx=0;entryDy=0;" edge="1" parent="1" source="e0o2W6mFJVZslNkPYuPA-291" target="wEDj9y5ge6KxLb9yTbvh-161">
          <mxGeometry relative="1" as="geometry" />
        </mxCell>
        <mxCell id="e0o2W6mFJVZslNkPYuPA-291" value="" style="rounded=1;whiteSpace=wrap;html=1;fillColor=#dae8fc;strokeColor=#6c8ebf;rotation=0;labelBackgroundColor=none;" parent="1" vertex="1">
          <mxGeometry x="-566.9999999999998" y="9490" width="976" height="72" as="geometry" />
        </mxCell>
        <mxCell id="e0o2W6mFJVZslNkPYuPA-292" value="" style="ellipse;whiteSpace=wrap;html=1;aspect=fixed;fillColor=#f5f5f5;fontColor=#333333;strokeColor=#666666;labelBackgroundColor=none;direction=west;" parent="1" vertex="1">
          <mxGeometry x="-548.9999999999998" y="9497" width="58" height="58" as="geometry" />
        </mxCell>
        <mxCell id="e0o2W6mFJVZslNkPYuPA-293" value="" style="endArrow=none;dashed=1;html=1;dashPattern=1 3;strokeWidth=2;fontSize=24;" parent="1" edge="1">
          <mxGeometry width="50" height="50" relative="1" as="geometry">
            <mxPoint x="198.00000000000009" y="9525.77" as="sourcePoint" />
            <mxPoint x="290.0000000000001" y="9526" as="targetPoint" />
          </mxGeometry>
        </mxCell>
        <mxCell id="e0o2W6mFJVZslNkPYuPA-294" value="" style="ellipse;whiteSpace=wrap;html=1;aspect=fixed;fillColor=#f5f5f5;fontColor=#333333;strokeColor=#666666;labelBackgroundColor=none;direction=west;" parent="1" vertex="1">
          <mxGeometry x="-473.9999999999998" y="9497" width="58" height="58" as="geometry" />
        </mxCell>
        <mxCell id="e0o2W6mFJVZslNkPYuPA-295" value="" style="ellipse;whiteSpace=wrap;html=1;aspect=fixed;fillColor=#f5f5f5;fontColor=#333333;strokeColor=#666666;labelBackgroundColor=none;direction=west;" parent="1" vertex="1">
          <mxGeometry x="-400.9999999999998" y="9497" width="58" height="58" as="geometry" />
        </mxCell>
        <mxCell id="e0o2W6mFJVZslNkPYuPA-296" value="" style="ellipse;whiteSpace=wrap;html=1;aspect=fixed;fillColor=#f5f5f5;fontColor=#333333;strokeColor=#666666;labelBackgroundColor=none;direction=west;" parent="1" vertex="1">
          <mxGeometry x="-325.9999999999998" y="9497" width="58" height="58" as="geometry" />
        </mxCell>
        <mxCell id="e0o2W6mFJVZslNkPYuPA-297" value="" style="ellipse;whiteSpace=wrap;html=1;aspect=fixed;fillColor=#f5f5f5;fontColor=#333333;strokeColor=#666666;labelBackgroundColor=none;direction=west;" parent="1" vertex="1">
          <mxGeometry x="-248.99999999999977" y="9497" width="58" height="58" as="geometry" />
        </mxCell>
        <mxCell id="e0o2W6mFJVZslNkPYuPA-298" value="" style="ellipse;whiteSpace=wrap;html=1;aspect=fixed;fillColor=#f5f5f5;fontColor=#333333;strokeColor=#666666;labelBackgroundColor=none;direction=west;" parent="1" vertex="1">
          <mxGeometry x="-173.99999999999977" y="9497" width="58" height="58" as="geometry" />
        </mxCell>
        <mxCell id="e0o2W6mFJVZslNkPYuPA-299" value="" style="ellipse;whiteSpace=wrap;html=1;aspect=fixed;fillColor=#f5f5f5;fontColor=#333333;strokeColor=#666666;labelBackgroundColor=none;direction=west;" parent="1" vertex="1">
          <mxGeometry x="-96.99999999999989" y="9497" width="58" height="58" as="geometry" />
        </mxCell>
        <mxCell id="e0o2W6mFJVZslNkPYuPA-300" value="" style="ellipse;whiteSpace=wrap;html=1;aspect=fixed;fillColor=#f5f5f5;fontColor=#333333;strokeColor=#666666;labelBackgroundColor=none;direction=west;" parent="1" vertex="1">
          <mxGeometry x="-21.999999999999886" y="9497" width="58" height="58" as="geometry" />
        </mxCell>
        <mxCell id="e0o2W6mFJVZslNkPYuPA-301" value="" style="ellipse;whiteSpace=wrap;html=1;aspect=fixed;fillColor=#f5f5f5;fontColor=#333333;strokeColor=#666666;labelBackgroundColor=none;direction=west;" parent="1" vertex="1">
          <mxGeometry x="54.000000000000114" y="9497" width="58" height="58" as="geometry" />
        </mxCell>
        <mxCell id="e0o2W6mFJVZslNkPYuPA-302" value="" style="ellipse;whiteSpace=wrap;html=1;aspect=fixed;fillColor=#f5f5f5;fontColor=#333333;strokeColor=#666666;labelBackgroundColor=none;direction=west;" parent="1" vertex="1">
          <mxGeometry x="129.00000000000009" y="9497" width="58" height="58" as="geometry" />
        </mxCell>
        <mxCell id="e0o2W6mFJVZslNkPYuPA-303" value="" style="ellipse;whiteSpace=wrap;html=1;aspect=fixed;fillColor=#f5f5f5;fontColor=#333333;strokeColor=#666666;labelBackgroundColor=none;direction=west;" parent="1" vertex="1">
          <mxGeometry x="309.5000000000001" y="9497" width="58" height="58" as="geometry" />
        </mxCell>
        <mxCell id="e0o2W6mFJVZslNkPYuPA-304" value="$$FULL-CONNECTED LAYER-1$$" style="text;html=1;strokeColor=none;fillColor=none;align=center;verticalAlign=middle;whiteSpace=wrap;rounded=0;fontSize=24;" parent="1" vertex="1">
          <mxGeometry x="-640.9999999999998" y="9451" width="538" height="30" as="geometry" />
        </mxCell>
        <mxCell id="e0o2W6mFJVZslNkPYuPA-305" style="edgeStyle=none;html=1;exitX=0.5;exitY=0;exitDx=0;exitDy=0;entryX=0.5;entryY=1;entryDx=0;entryDy=0;fontSize=24;" parent="1" source="e0o2W6mFJVZslNkPYuPA-306" target="e0o2W6mFJVZslNkPYuPA-309" edge="1">
          <mxGeometry relative="1" as="geometry" />
        </mxCell>
        <mxCell id="wEDj9y5ge6KxLb9yTbvh-157" style="edgeStyle=orthogonalEdgeStyle;rounded=0;orthogonalLoop=1;jettySize=auto;html=1;exitX=0;exitY=0.5;exitDx=0;exitDy=0;entryX=1;entryY=0.5;entryDx=0;entryDy=0;" edge="1" parent="1" source="e0o2W6mFJVZslNkPYuPA-306" target="wEDj9y5ge6KxLb9yTbvh-156">
          <mxGeometry relative="1" as="geometry" />
        </mxCell>
        <mxCell id="e0o2W6mFJVZslNkPYuPA-306" value="$$FL_{e1}=ReLu(X_{e1})$$" style="rounded=1;whiteSpace=wrap;html=1;strokeColor=#FF6666;fontSize=24;fillColor=#FFFFFF;" parent="1" vertex="1">
          <mxGeometry x="-378.9999999999998" y="9001" width="602" height="60" as="geometry" />
        </mxCell>
        <mxCell id="e0o2W6mFJVZslNkPYuPA-308" style="edgeStyle=orthogonalEdgeStyle;rounded=0;orthogonalLoop=1;jettySize=auto;html=1;exitX=1;exitY=0.5;exitDx=0;exitDy=0;entryX=0;entryY=0.5;entryDx=0;entryDy=0;" parent="1" source="e0o2W6mFJVZslNkPYuPA-309" target="e0o2W6mFJVZslNkPYuPA-440" edge="1">
          <mxGeometry relative="1" as="geometry" />
        </mxCell>
        <mxCell id="wEDj9y5ge6KxLb9yTbvh-144" style="edgeStyle=orthogonalEdgeStyle;rounded=0;orthogonalLoop=1;jettySize=auto;html=1;exitX=0.5;exitY=0;exitDx=0;exitDy=0;entryX=0.5;entryY=1;entryDx=0;entryDy=0;" edge="1" parent="1" source="e0o2W6mFJVZslNkPYuPA-309" target="e0o2W6mFJVZslNkPYuPA-439">
          <mxGeometry relative="1" as="geometry" />
        </mxCell>
        <mxCell id="wEDj9y5ge6KxLb9yTbvh-148" style="rounded=0;orthogonalLoop=1;jettySize=auto;html=1;exitX=0;exitY=0.5;exitDx=0;exitDy=0;" edge="1" parent="1" source="e0o2W6mFJVZslNkPYuPA-309" target="wEDj9y5ge6KxLb9yTbvh-147">
          <mxGeometry relative="1" as="geometry" />
        </mxCell>
        <mxCell id="wEDj9y5ge6KxLb9yTbvh-150" style="rounded=0;orthogonalLoop=1;jettySize=auto;html=1;exitX=0;exitY=0.5;exitDx=0;exitDy=0;entryX=1;entryY=0.5;entryDx=0;entryDy=0;" edge="1" parent="1" source="e0o2W6mFJVZslNkPYuPA-309" target="wEDj9y5ge6KxLb9yTbvh-149">
          <mxGeometry relative="1" as="geometry" />
        </mxCell>
        <mxCell id="e0o2W6mFJVZslNkPYuPA-309" value="" style="rounded=1;whiteSpace=wrap;html=1;fillColor=#dae8fc;strokeColor=#6c8ebf;rotation=0;labelBackgroundColor=none;" parent="1" vertex="1">
          <mxGeometry x="-567" y="8522" width="976" height="72" as="geometry" />
        </mxCell>
        <mxCell id="e0o2W6mFJVZslNkPYuPA-310" value="" style="ellipse;whiteSpace=wrap;html=1;aspect=fixed;fillColor=#f5f5f5;fontColor=#333333;strokeColor=#666666;labelBackgroundColor=none;direction=west;" parent="1" vertex="1">
          <mxGeometry x="-546" y="8529" width="58" height="58" as="geometry" />
        </mxCell>
        <mxCell id="e0o2W6mFJVZslNkPYuPA-311" value="" style="endArrow=none;dashed=1;html=1;dashPattern=1 3;strokeWidth=2;fontSize=24;" parent="1" edge="1">
          <mxGeometry width="50" height="50" relative="1" as="geometry">
            <mxPoint x="201.0000000000001" y="8557.77" as="sourcePoint" />
            <mxPoint x="293" y="8558" as="targetPoint" />
          </mxGeometry>
        </mxCell>
        <mxCell id="e0o2W6mFJVZslNkPYuPA-312" value="" style="ellipse;whiteSpace=wrap;html=1;aspect=fixed;fillColor=#f5f5f5;fontColor=#333333;strokeColor=#666666;labelBackgroundColor=none;direction=west;" parent="1" vertex="1">
          <mxGeometry x="-471" y="8529" width="58" height="58" as="geometry" />
        </mxCell>
        <mxCell id="e0o2W6mFJVZslNkPYuPA-313" value="" style="ellipse;whiteSpace=wrap;html=1;aspect=fixed;fillColor=#f5f5f5;fontColor=#333333;strokeColor=#666666;labelBackgroundColor=none;direction=west;" parent="1" vertex="1">
          <mxGeometry x="-398" y="8529" width="58" height="58" as="geometry" />
        </mxCell>
        <mxCell id="e0o2W6mFJVZslNkPYuPA-314" value="" style="ellipse;whiteSpace=wrap;html=1;aspect=fixed;fillColor=#f5f5f5;fontColor=#333333;strokeColor=#666666;labelBackgroundColor=none;direction=west;" parent="1" vertex="1">
          <mxGeometry x="-323" y="8529" width="58" height="58" as="geometry" />
        </mxCell>
        <mxCell id="e0o2W6mFJVZslNkPYuPA-315" value="" style="ellipse;whiteSpace=wrap;html=1;aspect=fixed;fillColor=#f5f5f5;fontColor=#333333;strokeColor=#666666;labelBackgroundColor=none;direction=west;" parent="1" vertex="1">
          <mxGeometry x="-246" y="8529" width="58" height="58" as="geometry" />
        </mxCell>
        <mxCell id="e0o2W6mFJVZslNkPYuPA-316" value="" style="ellipse;whiteSpace=wrap;html=1;aspect=fixed;fillColor=#f5f5f5;fontColor=#333333;strokeColor=#666666;labelBackgroundColor=none;direction=west;" parent="1" vertex="1">
          <mxGeometry x="-171" y="8529" width="58" height="58" as="geometry" />
        </mxCell>
        <mxCell id="e0o2W6mFJVZslNkPYuPA-317" value="" style="ellipse;whiteSpace=wrap;html=1;aspect=fixed;fillColor=#f5f5f5;fontColor=#333333;strokeColor=#666666;labelBackgroundColor=none;direction=west;" parent="1" vertex="1">
          <mxGeometry x="-94" y="8529" width="58" height="58" as="geometry" />
        </mxCell>
        <mxCell id="e0o2W6mFJVZslNkPYuPA-318" value="" style="ellipse;whiteSpace=wrap;html=1;aspect=fixed;fillColor=#f5f5f5;fontColor=#333333;strokeColor=#666666;labelBackgroundColor=none;direction=west;" parent="1" vertex="1">
          <mxGeometry x="-19" y="8529" width="58" height="58" as="geometry" />
        </mxCell>
        <mxCell id="e0o2W6mFJVZslNkPYuPA-319" value="" style="ellipse;whiteSpace=wrap;html=1;aspect=fixed;fillColor=#f5f5f5;fontColor=#333333;strokeColor=#666666;labelBackgroundColor=none;direction=west;" parent="1" vertex="1">
          <mxGeometry x="57.000000000000114" y="8529" width="58" height="58" as="geometry" />
        </mxCell>
        <mxCell id="e0o2W6mFJVZslNkPYuPA-320" value="" style="ellipse;whiteSpace=wrap;html=1;aspect=fixed;fillColor=#f5f5f5;fontColor=#333333;strokeColor=#666666;labelBackgroundColor=none;direction=west;" parent="1" vertex="1">
          <mxGeometry x="132.0000000000001" y="8529" width="58" height="58" as="geometry" />
        </mxCell>
        <mxCell id="e0o2W6mFJVZslNkPYuPA-321" value="" style="ellipse;whiteSpace=wrap;html=1;aspect=fixed;fillColor=#f5f5f5;fontColor=#333333;strokeColor=#666666;labelBackgroundColor=none;direction=west;" parent="1" vertex="1">
          <mxGeometry x="312.5" y="8529" width="58" height="58" as="geometry" />
        </mxCell>
        <mxCell id="e0o2W6mFJVZslNkPYuPA-322" value="$$FULL-CONNECTED LAYER-2$$" style="text;html=1;strokeColor=none;fillColor=none;align=center;verticalAlign=middle;whiteSpace=wrap;rounded=0;fontSize=24;" parent="1" vertex="1">
          <mxGeometry x="-602" y="8478" width="538" height="30" as="geometry" />
        </mxCell>
        <mxCell id="wEDj9y5ge6KxLb9yTbvh-70" style="edgeStyle=orthogonalEdgeStyle;rounded=0;orthogonalLoop=1;jettySize=auto;html=1;exitX=0.5;exitY=0;exitDx=0;exitDy=0;entryX=0.5;entryY=1;entryDx=0;entryDy=0;" edge="1" parent="1" source="e0o2W6mFJVZslNkPYuPA-326" target="wEDj9y5ge6KxLb9yTbvh-68">
          <mxGeometry relative="1" as="geometry" />
        </mxCell>
        <mxCell id="e0o2W6mFJVZslNkPYuPA-326" value="" style="rounded=1;whiteSpace=wrap;html=1;fillColor=#f0a30a;strokeColor=#BD7000;rotation=0;labelBackgroundColor=none;fontColor=#000000;" parent="1" vertex="1">
          <mxGeometry x="2642" y="5505.5" width="384" height="65" as="geometry" />
        </mxCell>
        <mxCell id="e0o2W6mFJVZslNkPYuPA-327" value="" style="ellipse;whiteSpace=wrap;html=1;aspect=fixed;fillColor=#f5f5f5;fontColor=#333333;strokeColor=#666666;labelBackgroundColor=none;direction=west;" parent="1" vertex="1">
          <mxGeometry x="2656" y="5512.5" width="51" height="51" as="geometry" />
        </mxCell>
        <mxCell id="e0o2W6mFJVZslNkPYuPA-328" value="" style="endArrow=none;dashed=1;html=1;dashPattern=1 3;strokeWidth=2;fontSize=24;" parent="1" edge="1">
          <mxGeometry width="50" height="50" relative="1" as="geometry">
            <mxPoint x="2910" y="5537.81" as="sourcePoint" />
            <mxPoint x="2963" y="5537.5" as="targetPoint" />
          </mxGeometry>
        </mxCell>
        <mxCell id="wEDj9y5ge6KxLb9yTbvh-72" style="edgeStyle=orthogonalEdgeStyle;rounded=0;orthogonalLoop=1;jettySize=auto;html=1;exitX=0.5;exitY=0;exitDx=0;exitDy=0;" edge="1" parent="1" source="e0o2W6mFJVZslNkPYuPA-330" target="wEDj9y5ge6KxLb9yTbvh-69">
          <mxGeometry relative="1" as="geometry" />
        </mxCell>
        <mxCell id="e0o2W6mFJVZslNkPYuPA-330" value="" style="rounded=1;whiteSpace=wrap;html=1;fillColor=#FFFFCC;strokeColor=#BD7000;rotation=0;labelBackgroundColor=none;fontColor=#000000;" parent="1" vertex="1">
          <mxGeometry x="3966" y="4885" width="399" height="61" as="geometry" />
        </mxCell>
        <mxCell id="e0o2W6mFJVZslNkPYuPA-332" value="" style="rounded=1;whiteSpace=wrap;html=1;fillColor=#BD2608;strokeColor=#FF6666;rotation=0;labelBackgroundColor=none;fontColor=#000000;" parent="1" vertex="1">
          <mxGeometry x="1510.25" y="6098.5" width="410.5" height="61" as="geometry" />
        </mxCell>
        <mxCell id="e0o2W6mFJVZslNkPYuPA-333" value="$$K_{c}$$" style="text;html=1;strokeColor=none;fillColor=none;align=center;verticalAlign=middle;whiteSpace=wrap;rounded=0;fontSize=24;" parent="1" vertex="1">
          <mxGeometry x="2644" y="5473.5" width="60" height="30" as="geometry" />
        </mxCell>
        <mxCell id="e0o2W6mFJVZslNkPYuPA-334" value="$$Q_{c}$$" style="text;html=1;strokeColor=none;fillColor=none;align=center;verticalAlign=middle;whiteSpace=wrap;rounded=0;fontSize=24;" parent="1" vertex="1">
          <mxGeometry x="3949" y="4855" width="60" height="30" as="geometry" />
        </mxCell>
        <mxCell id="e0o2W6mFJVZslNkPYuPA-335" value="$$V_{c}$$" style="text;html=1;strokeColor=none;fillColor=none;align=center;verticalAlign=middle;whiteSpace=wrap;rounded=0;fontSize=24;" parent="1" vertex="1">
          <mxGeometry x="1495.75" y="6066.5" width="60" height="30" as="geometry" />
        </mxCell>
        <mxCell id="wEDj9y5ge6KxLb9yTbvh-86" style="rounded=0;orthogonalLoop=1;jettySize=auto;html=1;exitX=0.5;exitY=0;exitDx=0;exitDy=0;entryX=0.5;entryY=1;entryDx=0;entryDy=0;" edge="1" parent="1" source="e0o2W6mFJVZslNkPYuPA-336" target="e0o2W6mFJVZslNkPYuPA-332">
          <mxGeometry relative="1" as="geometry">
            <Array as="points">
              <mxPoint x="1375" y="6855" />
            </Array>
          </mxGeometry>
        </mxCell>
        <mxCell id="wEDj9y5ge6KxLb9yTbvh-87" style="rounded=0;orthogonalLoop=1;jettySize=auto;html=1;exitX=0.5;exitY=0;exitDx=0;exitDy=0;entryX=0.5;entryY=1;entryDx=0;entryDy=0;" edge="1" parent="1" source="e0o2W6mFJVZslNkPYuPA-336" target="e0o2W6mFJVZslNkPYuPA-326">
          <mxGeometry relative="1" as="geometry">
            <Array as="points">
              <mxPoint x="2475" y="6845" />
            </Array>
          </mxGeometry>
        </mxCell>
        <mxCell id="wEDj9y5ge6KxLb9yTbvh-141" style="rounded=0;orthogonalLoop=1;jettySize=auto;html=1;exitX=0;exitY=0.5;exitDx=0;exitDy=0;entryX=1;entryY=0.5;entryDx=0;entryDy=0;" edge="1" parent="1" source="e0o2W6mFJVZslNkPYuPA-336" target="wEDj9y5ge6KxLb9yTbvh-139">
          <mxGeometry relative="1" as="geometry" />
        </mxCell>
        <mxCell id="wEDj9y5ge6KxLb9yTbvh-143" style="rounded=0;orthogonalLoop=1;jettySize=auto;html=1;exitX=0;exitY=0.5;exitDx=0;exitDy=0;entryX=1;entryY=0.5;entryDx=0;entryDy=0;" edge="1" parent="1" source="e0o2W6mFJVZslNkPYuPA-336" target="wEDj9y5ge6KxLb9yTbvh-142">
          <mxGeometry relative="1" as="geometry" />
        </mxCell>
        <mxCell id="e0o2W6mFJVZslNkPYuPA-336" value="$$Ec_{out}=Norm(X_{e2})$$" style="rounded=1;whiteSpace=wrap;html=1;strokeColor=#FF6666;fontSize=24;fillColor=#FFFFFF;" parent="1" vertex="1">
          <mxGeometry x="-548.9999999999999" y="7619" width="944" height="60" as="geometry" />
        </mxCell>
        <mxCell id="e0o2W6mFJVZslNkPYuPA-337" value="" style="ellipse;whiteSpace=wrap;html=1;aspect=fixed;fillColor=#f5f5f5;fontColor=#333333;strokeColor=#666666;labelBackgroundColor=none;direction=west;" parent="1" vertex="1">
          <mxGeometry x="2718" y="5510.5" width="51" height="51" as="geometry" />
        </mxCell>
        <mxCell id="e0o2W6mFJVZslNkPYuPA-338" value="" style="ellipse;whiteSpace=wrap;html=1;aspect=fixed;fillColor=#f5f5f5;fontColor=#333333;strokeColor=#666666;labelBackgroundColor=none;direction=west;" parent="1" vertex="1">
          <mxGeometry x="2783" y="5510.5" width="51" height="51" as="geometry" />
        </mxCell>
        <mxCell id="e0o2W6mFJVZslNkPYuPA-339" value="" style="ellipse;whiteSpace=wrap;html=1;aspect=fixed;fillColor=#f5f5f5;fontColor=#333333;strokeColor=#666666;labelBackgroundColor=none;direction=west;" parent="1" vertex="1">
          <mxGeometry x="2848.5" y="5510.5" width="51" height="51" as="geometry" />
        </mxCell>
        <mxCell id="e0o2W6mFJVZslNkPYuPA-340" value="" style="ellipse;whiteSpace=wrap;html=1;aspect=fixed;fillColor=#f5f5f5;fontColor=#333333;strokeColor=#666666;labelBackgroundColor=none;direction=west;" parent="1" vertex="1">
          <mxGeometry x="2971" y="5510.5" width="51" height="51" as="geometry" />
        </mxCell>
        <mxCell id="e0o2W6mFJVZslNkPYuPA-341" value="" style="ellipse;whiteSpace=wrap;html=1;aspect=fixed;fillColor=#f5f5f5;fontColor=#333333;strokeColor=#666666;labelBackgroundColor=none;direction=west;" parent="1" vertex="1">
          <mxGeometry x="1528.75" y="6103.5" width="51" height="51" as="geometry" />
        </mxCell>
        <mxCell id="e0o2W6mFJVZslNkPYuPA-342" value="" style="endArrow=none;dashed=1;html=1;dashPattern=1 3;strokeWidth=2;fontSize=24;" parent="1" edge="1">
          <mxGeometry width="50" height="50" relative="1" as="geometry">
            <mxPoint x="1782.75" y="6128.81" as="sourcePoint" />
            <mxPoint x="1835.7499999999964" y="6128.5" as="targetPoint" />
          </mxGeometry>
        </mxCell>
        <mxCell id="e0o2W6mFJVZslNkPYuPA-343" value="" style="ellipse;whiteSpace=wrap;html=1;aspect=fixed;fillColor=#f5f5f5;fontColor=#333333;strokeColor=#666666;labelBackgroundColor=none;direction=west;" parent="1" vertex="1">
          <mxGeometry x="1590.75" y="6101.5" width="51" height="51" as="geometry" />
        </mxCell>
        <mxCell id="e0o2W6mFJVZslNkPYuPA-344" value="" style="ellipse;whiteSpace=wrap;html=1;aspect=fixed;fillColor=#f5f5f5;fontColor=#333333;strokeColor=#666666;labelBackgroundColor=none;direction=west;" parent="1" vertex="1">
          <mxGeometry x="1655.75" y="6101.5" width="51" height="51" as="geometry" />
        </mxCell>
        <mxCell id="e0o2W6mFJVZslNkPYuPA-345" value="" style="ellipse;whiteSpace=wrap;html=1;aspect=fixed;fillColor=#f5f5f5;fontColor=#333333;strokeColor=#666666;labelBackgroundColor=none;direction=west;" parent="1" vertex="1">
          <mxGeometry x="1721.25" y="6101.5" width="51" height="51" as="geometry" />
        </mxCell>
        <mxCell id="e0o2W6mFJVZslNkPYuPA-346" value="" style="ellipse;whiteSpace=wrap;html=1;aspect=fixed;fillColor=#f5f5f5;fontColor=#333333;strokeColor=#666666;labelBackgroundColor=none;direction=west;" parent="1" vertex="1">
          <mxGeometry x="1857.75" y="6103.5" width="47" height="47" as="geometry" />
        </mxCell>
        <mxCell id="e0o2W6mFJVZslNkPYuPA-347" value="" style="ellipse;whiteSpace=wrap;html=1;aspect=fixed;fillColor=#f5f5f5;fontColor=#333333;strokeColor=#666666;labelBackgroundColor=none;direction=west;" parent="1" vertex="1">
          <mxGeometry x="3984" y="4891" width="51" height="51" as="geometry" />
        </mxCell>
        <mxCell id="e0o2W6mFJVZslNkPYuPA-348" value="" style="endArrow=none;dashed=1;html=1;dashPattern=1 3;strokeWidth=2;fontSize=24;" parent="1" edge="1">
          <mxGeometry width="50" height="50" relative="1" as="geometry">
            <mxPoint x="4238" y="4916.31" as="sourcePoint" />
            <mxPoint x="4290.999999999996" y="4916" as="targetPoint" />
          </mxGeometry>
        </mxCell>
        <mxCell id="e0o2W6mFJVZslNkPYuPA-349" value="" style="ellipse;whiteSpace=wrap;html=1;aspect=fixed;fillColor=#f5f5f5;fontColor=#333333;strokeColor=#666666;labelBackgroundColor=none;direction=west;" parent="1" vertex="1">
          <mxGeometry x="4046" y="4889" width="51" height="51" as="geometry" />
        </mxCell>
        <mxCell id="e0o2W6mFJVZslNkPYuPA-350" value="" style="ellipse;whiteSpace=wrap;html=1;aspect=fixed;fillColor=#f5f5f5;fontColor=#333333;strokeColor=#666666;labelBackgroundColor=none;direction=west;" parent="1" vertex="1">
          <mxGeometry x="4111" y="4889" width="51" height="51" as="geometry" />
        </mxCell>
        <mxCell id="e0o2W6mFJVZslNkPYuPA-351" value="" style="ellipse;whiteSpace=wrap;html=1;aspect=fixed;fillColor=#f5f5f5;fontColor=#333333;strokeColor=#666666;labelBackgroundColor=none;direction=west;" parent="1" vertex="1">
          <mxGeometry x="4176.5" y="4889" width="51" height="51" as="geometry" />
        </mxCell>
        <mxCell id="e0o2W6mFJVZslNkPYuPA-352" value="" style="ellipse;whiteSpace=wrap;html=1;aspect=fixed;fillColor=#f5f5f5;fontColor=#333333;strokeColor=#666666;labelBackgroundColor=none;direction=west;" parent="1" vertex="1">
          <mxGeometry x="4299" y="4889" width="51" height="51" as="geometry" />
        </mxCell>
        <mxCell id="wEDj9y5ge6KxLb9yTbvh-61" style="edgeStyle=orthogonalEdgeStyle;rounded=0;orthogonalLoop=1;jettySize=auto;html=1;exitX=0.5;exitY=0;exitDx=0;exitDy=0;" edge="1" parent="1" source="e0o2W6mFJVZslNkPYuPA-354" target="e0o2W6mFJVZslNkPYuPA-356">
          <mxGeometry relative="1" as="geometry" />
        </mxCell>
        <mxCell id="e0o2W6mFJVZslNkPYuPA-354" value="&lt;br&gt;&lt;div style=&quot;border-color: var(--border-color); font-size: 30px;&quot;&gt;&lt;font style=&quot;border-color: var(--border-color);&quot;&gt;$$\frac{Q_{C} K_{C}^T}{\sqrt d_k}$$&lt;/font&gt;&lt;/div&gt;&lt;div style=&quot;border-color: var(--border-color); font-size: 30px;&quot;&gt;&lt;font style=&quot;border-color: var(--border-color);&quot;&gt;&lt;br style=&quot;border-color: var(--border-color);&quot;&gt;&lt;/font&gt;&lt;/div&gt;" style="rounded=1;whiteSpace=wrap;html=1;strokeColor=#FF6666;fontSize=24;fillColor=#FFFFFF;" parent="1" vertex="1">
          <mxGeometry x="3351" y="4034" width="200" height="118" as="geometry" />
        </mxCell>
        <mxCell id="wEDj9y5ge6KxLb9yTbvh-56" style="edgeStyle=orthogonalEdgeStyle;rounded=0;orthogonalLoop=1;jettySize=auto;html=1;exitX=0.5;exitY=0;exitDx=0;exitDy=0;entryX=0.5;entryY=1;entryDx=0;entryDy=0;" edge="1" parent="1" source="e0o2W6mFJVZslNkPYuPA-356" target="e0o2W6mFJVZslNkPYuPA-358">
          <mxGeometry relative="1" as="geometry" />
        </mxCell>
        <mxCell id="wEDj9y5ge6KxLb9yTbvh-251" style="rounded=0;orthogonalLoop=1;jettySize=auto;html=1;exitX=1;exitY=0.5;exitDx=0;exitDy=0;entryX=0;entryY=0.5;entryDx=0;entryDy=0;" edge="1" parent="1" source="e0o2W6mFJVZslNkPYuPA-356" target="wEDj9y5ge6KxLb9yTbvh-59">
          <mxGeometry relative="1" as="geometry" />
        </mxCell>
        <mxCell id="wEDj9y5ge6KxLb9yTbvh-252" style="rounded=0;orthogonalLoop=1;jettySize=auto;html=1;exitX=1;exitY=0.5;exitDx=0;exitDy=0;entryX=0;entryY=0.5;entryDx=0;entryDy=0;" edge="1" parent="1" source="e0o2W6mFJVZslNkPYuPA-356" target="wEDj9y5ge6KxLb9yTbvh-58">
          <mxGeometry relative="1" as="geometry" />
        </mxCell>
        <mxCell id="wEDj9y5ge6KxLb9yTbvh-253" style="rounded=0;orthogonalLoop=1;jettySize=auto;html=1;exitX=1;exitY=0.5;exitDx=0;exitDy=0;entryX=0;entryY=0.5;entryDx=0;entryDy=0;" edge="1" parent="1" source="e0o2W6mFJVZslNkPYuPA-356" target="wEDj9y5ge6KxLb9yTbvh-57">
          <mxGeometry relative="1" as="geometry" />
        </mxCell>
        <mxCell id="e0o2W6mFJVZslNkPYuPA-356" value="$$A_{cr}=\sigma(\frac{Q_{C} K_{C}^T}{\sqrt d_k})V_{C}$$" style="rounded=1;whiteSpace=wrap;html=1;strokeColor=#FF6666;fontSize=24;fillColor=#FFFFFF;" parent="1" vertex="1">
          <mxGeometry x="3321.75" y="3563" width="256" height="118" as="geometry" />
        </mxCell>
        <mxCell id="wEDj9y5ge6KxLb9yTbvh-43" style="edgeStyle=orthogonalEdgeStyle;rounded=0;orthogonalLoop=1;jettySize=auto;html=1;exitX=0.5;exitY=0;exitDx=0;exitDy=0;entryX=0.5;entryY=1;entryDx=0;entryDy=0;" edge="1" parent="1" source="e0o2W6mFJVZslNkPYuPA-358" target="e0o2W6mFJVZslNkPYuPA-360">
          <mxGeometry relative="1" as="geometry" />
        </mxCell>
        <mxCell id="e0o2W6mFJVZslNkPYuPA-358" value="$$Res=A_{cr}+D_{t1}$$" style="rounded=1;whiteSpace=wrap;html=1;strokeColor=#FF6666;fontSize=24;fillColor=#FFFFFF;" parent="1" vertex="1">
          <mxGeometry x="3231.5" y="3122" width="436.5" height="132" as="geometry" />
        </mxCell>
        <mxCell id="e0o2W6mFJVZslNkPYuPA-359" style="edgeStyle=none;html=1;exitX=0.5;exitY=0;exitDx=0;exitDy=0;fontSize=24;" parent="1" source="e0o2W6mFJVZslNkPYuPA-360" target="e0o2W6mFJVZslNkPYuPA-363" edge="1">
          <mxGeometry relative="1" as="geometry" />
        </mxCell>
        <mxCell id="wEDj9y5ge6KxLb9yTbvh-19" style="edgeStyle=orthogonalEdgeStyle;rounded=0;orthogonalLoop=1;jettySize=auto;html=1;exitX=0;exitY=0.5;exitDx=0;exitDy=0;entryX=0;entryY=0.5;entryDx=0;entryDy=0;" edge="1" parent="1" source="e0o2W6mFJVZslNkPYuPA-360" target="e0o2W6mFJVZslNkPYuPA-399">
          <mxGeometry relative="1" as="geometry">
            <Array as="points">
              <mxPoint x="3079" y="2843" />
              <mxPoint x="2777" y="2843" />
              <mxPoint x="2777" y="-318" />
            </Array>
          </mxGeometry>
        </mxCell>
        <mxCell id="wEDj9y5ge6KxLb9yTbvh-249" style="rounded=0;orthogonalLoop=1;jettySize=auto;html=1;exitX=1;exitY=0.5;exitDx=0;exitDy=0;" edge="1" parent="1" source="e0o2W6mFJVZslNkPYuPA-360" target="wEDj9y5ge6KxLb9yTbvh-46">
          <mxGeometry relative="1" as="geometry" />
        </mxCell>
        <mxCell id="wEDj9y5ge6KxLb9yTbvh-250" style="rounded=0;orthogonalLoop=1;jettySize=auto;html=1;exitX=1;exitY=0.5;exitDx=0;exitDy=0;entryX=0;entryY=0.5;entryDx=0;entryDy=0;" edge="1" parent="1" source="e0o2W6mFJVZslNkPYuPA-360" target="wEDj9y5ge6KxLb9yTbvh-54">
          <mxGeometry relative="1" as="geometry" />
        </mxCell>
        <mxCell id="e0o2W6mFJVZslNkPYuPA-360" value="$$D_{t2} = Norm\left(Res\right)$$" style="rounded=1;whiteSpace=wrap;html=1;strokeColor=#FF6666;fontSize=24;fillColor=#FFFFFF;" parent="1" vertex="1">
          <mxGeometry x="3079" y="2772" width="745" height="113" as="geometry" />
        </mxCell>
        <mxCell id="e0o2W6mFJVZslNkPYuPA-362" style="edgeStyle=orthogonalEdgeStyle;rounded=0;orthogonalLoop=1;jettySize=auto;html=1;exitX=1;exitY=0.5;exitDx=0;exitDy=0;" parent="1" source="e0o2W6mFJVZslNkPYuPA-363" target="e0o2W6mFJVZslNkPYuPA-442" edge="1">
          <mxGeometry relative="1" as="geometry">
            <mxPoint x="3999.5" y="2163" as="targetPoint" />
          </mxGeometry>
        </mxCell>
        <mxCell id="wEDj9y5ge6KxLb9yTbvh-34" style="edgeStyle=orthogonalEdgeStyle;rounded=0;orthogonalLoop=1;jettySize=auto;html=1;exitX=0.5;exitY=0;exitDx=0;exitDy=0;entryX=0.5;entryY=1;entryDx=0;entryDy=0;" edge="1" parent="1" source="e0o2W6mFJVZslNkPYuPA-363" target="wEDj9y5ge6KxLb9yTbvh-27">
          <mxGeometry relative="1" as="geometry" />
        </mxCell>
        <mxCell id="e0o2W6mFJVZslNkPYuPA-363" value="" style="rounded=1;whiteSpace=wrap;html=1;fillColor=#dae8fc;strokeColor=#6c8ebf;rotation=0;labelBackgroundColor=none;" parent="1" vertex="1">
          <mxGeometry x="2968" y="2122" width="976" height="72" as="geometry" />
        </mxCell>
        <mxCell id="e0o2W6mFJVZslNkPYuPA-364" value="" style="ellipse;whiteSpace=wrap;html=1;aspect=fixed;fillColor=#f5f5f5;fontColor=#333333;strokeColor=#666666;labelBackgroundColor=none;direction=west;" parent="1" vertex="1">
          <mxGeometry x="2986" y="2129" width="58" height="58" as="geometry" />
        </mxCell>
        <mxCell id="e0o2W6mFJVZslNkPYuPA-365" value="" style="endArrow=none;dashed=1;html=1;dashPattern=1 3;strokeWidth=2;fontSize=24;" parent="1" edge="1">
          <mxGeometry width="50" height="50" relative="1" as="geometry">
            <mxPoint x="3733" y="2157.7700000000004" as="sourcePoint" />
            <mxPoint x="3825" y="2158" as="targetPoint" />
          </mxGeometry>
        </mxCell>
        <mxCell id="e0o2W6mFJVZslNkPYuPA-366" value="" style="ellipse;whiteSpace=wrap;html=1;aspect=fixed;fillColor=#f5f5f5;fontColor=#333333;strokeColor=#666666;labelBackgroundColor=none;direction=west;" parent="1" vertex="1">
          <mxGeometry x="3061" y="2129" width="58" height="58" as="geometry" />
        </mxCell>
        <mxCell id="e0o2W6mFJVZslNkPYuPA-367" value="" style="ellipse;whiteSpace=wrap;html=1;aspect=fixed;fillColor=#f5f5f5;fontColor=#333333;strokeColor=#666666;labelBackgroundColor=none;direction=west;" parent="1" vertex="1">
          <mxGeometry x="3134" y="2129" width="58" height="58" as="geometry" />
        </mxCell>
        <mxCell id="e0o2W6mFJVZslNkPYuPA-368" value="" style="ellipse;whiteSpace=wrap;html=1;aspect=fixed;fillColor=#f5f5f5;fontColor=#333333;strokeColor=#666666;labelBackgroundColor=none;direction=west;" parent="1" vertex="1">
          <mxGeometry x="3209" y="2129" width="58" height="58" as="geometry" />
        </mxCell>
        <mxCell id="e0o2W6mFJVZslNkPYuPA-369" value="" style="ellipse;whiteSpace=wrap;html=1;aspect=fixed;fillColor=#f5f5f5;fontColor=#333333;strokeColor=#666666;labelBackgroundColor=none;direction=west;" parent="1" vertex="1">
          <mxGeometry x="3286" y="2129" width="58" height="58" as="geometry" />
        </mxCell>
        <mxCell id="e0o2W6mFJVZslNkPYuPA-370" value="" style="ellipse;whiteSpace=wrap;html=1;aspect=fixed;fillColor=#f5f5f5;fontColor=#333333;strokeColor=#666666;labelBackgroundColor=none;direction=west;" parent="1" vertex="1">
          <mxGeometry x="3361" y="2129" width="58" height="58" as="geometry" />
        </mxCell>
        <mxCell id="e0o2W6mFJVZslNkPYuPA-371" value="" style="ellipse;whiteSpace=wrap;html=1;aspect=fixed;fillColor=#f5f5f5;fontColor=#333333;strokeColor=#666666;labelBackgroundColor=none;direction=west;" parent="1" vertex="1">
          <mxGeometry x="3438" y="2129" width="58" height="58" as="geometry" />
        </mxCell>
        <mxCell id="e0o2W6mFJVZslNkPYuPA-372" value="" style="ellipse;whiteSpace=wrap;html=1;aspect=fixed;fillColor=#f5f5f5;fontColor=#333333;strokeColor=#666666;labelBackgroundColor=none;direction=west;" parent="1" vertex="1">
          <mxGeometry x="3513" y="2129" width="58" height="58" as="geometry" />
        </mxCell>
        <mxCell id="e0o2W6mFJVZslNkPYuPA-373" value="" style="ellipse;whiteSpace=wrap;html=1;aspect=fixed;fillColor=#f5f5f5;fontColor=#333333;strokeColor=#666666;labelBackgroundColor=none;direction=west;" parent="1" vertex="1">
          <mxGeometry x="3589" y="2129" width="58" height="58" as="geometry" />
        </mxCell>
        <mxCell id="e0o2W6mFJVZslNkPYuPA-374" value="" style="ellipse;whiteSpace=wrap;html=1;aspect=fixed;fillColor=#f5f5f5;fontColor=#333333;strokeColor=#666666;labelBackgroundColor=none;direction=west;" parent="1" vertex="1">
          <mxGeometry x="3664" y="2129" width="58" height="58" as="geometry" />
        </mxCell>
        <mxCell id="e0o2W6mFJVZslNkPYuPA-375" value="" style="ellipse;whiteSpace=wrap;html=1;aspect=fixed;fillColor=#f5f5f5;fontColor=#333333;strokeColor=#666666;labelBackgroundColor=none;direction=west;" parent="1" vertex="1">
          <mxGeometry x="3844.5" y="2129" width="58" height="58" as="geometry" />
        </mxCell>
        <mxCell id="e0o2W6mFJVZslNkPYuPA-376" value="$$FULL-CONNECTED LAYER-1$$" style="text;html=1;strokeColor=none;fillColor=none;align=center;verticalAlign=middle;whiteSpace=wrap;rounded=0;fontSize=24;" parent="1" vertex="1">
          <mxGeometry x="2894" y="2083" width="538" height="30" as="geometry" />
        </mxCell>
        <mxCell id="e0o2W6mFJVZslNkPYuPA-377" style="edgeStyle=none;html=1;exitX=0.5;exitY=0;exitDx=0;exitDy=0;entryX=0.5;entryY=1;entryDx=0;entryDy=0;fontSize=24;" parent="1" source="e0o2W6mFJVZslNkPYuPA-378" target="e0o2W6mFJVZslNkPYuPA-381" edge="1">
          <mxGeometry relative="1" as="geometry" />
        </mxCell>
        <mxCell id="wEDj9y5ge6KxLb9yTbvh-26" style="edgeStyle=orthogonalEdgeStyle;rounded=0;orthogonalLoop=1;jettySize=auto;html=1;exitX=1;exitY=0.5;exitDx=0;exitDy=0;entryX=0;entryY=0.5;entryDx=0;entryDy=0;" edge="1" parent="1" source="e0o2W6mFJVZslNkPYuPA-378" target="wEDj9y5ge6KxLb9yTbvh-25">
          <mxGeometry relative="1" as="geometry">
            <mxPoint x="4079" y="1358.9999999999982" as="targetPoint" />
          </mxGeometry>
        </mxCell>
        <mxCell id="e0o2W6mFJVZslNkPYuPA-378" value="$$FL_{d1} = \text{ReLu}(X_{1d})$$" style="rounded=1;whiteSpace=wrap;html=1;strokeColor=#FF6666;fontSize=24;fillColor=#FFFFFF;" parent="1" vertex="1">
          <mxGeometry x="3156" y="1329" width="602" height="60" as="geometry" />
        </mxCell>
        <mxCell id="e0o2W6mFJVZslNkPYuPA-379" style="edgeStyle=orthogonalEdgeStyle;rounded=0;orthogonalLoop=1;jettySize=auto;html=1;exitX=1;exitY=0.5;exitDx=0;exitDy=0;" parent="1" source="e0o2W6mFJVZslNkPYuPA-381" target="e0o2W6mFJVZslNkPYuPA-443" edge="1">
          <mxGeometry relative="1" as="geometry">
            <mxPoint x="4050.5" y="752" as="targetPoint" />
          </mxGeometry>
        </mxCell>
        <mxCell id="wEDj9y5ge6KxLb9yTbvh-24" style="edgeStyle=orthogonalEdgeStyle;rounded=0;orthogonalLoop=1;jettySize=auto;html=1;exitX=0.5;exitY=0;exitDx=0;exitDy=0;entryX=0.5;entryY=1;entryDx=0;entryDy=0;" edge="1" parent="1" source="e0o2W6mFJVZslNkPYuPA-381" target="e0o2W6mFJVZslNkPYuPA-445">
          <mxGeometry relative="1" as="geometry" />
        </mxCell>
        <mxCell id="e0o2W6mFJVZslNkPYuPA-381" value="" style="rounded=1;whiteSpace=wrap;html=1;fillColor=#dae8fc;strokeColor=#6c8ebf;rotation=0;labelBackgroundColor=none;" parent="1" vertex="1">
          <mxGeometry x="2975" y="719" width="976" height="72" as="geometry" />
        </mxCell>
        <mxCell id="e0o2W6mFJVZslNkPYuPA-382" value="" style="ellipse;whiteSpace=wrap;html=1;aspect=fixed;fillColor=#f5f5f5;fontColor=#333333;strokeColor=#666666;labelBackgroundColor=none;direction=west;" parent="1" vertex="1">
          <mxGeometry x="2996" y="726" width="58" height="58" as="geometry" />
        </mxCell>
        <mxCell id="e0o2W6mFJVZslNkPYuPA-383" value="" style="endArrow=none;dashed=1;html=1;dashPattern=1 3;strokeWidth=2;fontSize=24;" parent="1" edge="1">
          <mxGeometry width="50" height="50" relative="1" as="geometry">
            <mxPoint x="3743" y="754.7700000000004" as="sourcePoint" />
            <mxPoint x="3835" y="755" as="targetPoint" />
          </mxGeometry>
        </mxCell>
        <mxCell id="e0o2W6mFJVZslNkPYuPA-384" value="" style="ellipse;whiteSpace=wrap;html=1;aspect=fixed;fillColor=#f5f5f5;fontColor=#333333;strokeColor=#666666;labelBackgroundColor=none;direction=west;" parent="1" vertex="1">
          <mxGeometry x="3071" y="726" width="58" height="58" as="geometry" />
        </mxCell>
        <mxCell id="e0o2W6mFJVZslNkPYuPA-385" value="" style="ellipse;whiteSpace=wrap;html=1;aspect=fixed;fillColor=#f5f5f5;fontColor=#333333;strokeColor=#666666;labelBackgroundColor=none;direction=west;" parent="1" vertex="1">
          <mxGeometry x="3144" y="726" width="58" height="58" as="geometry" />
        </mxCell>
        <mxCell id="e0o2W6mFJVZslNkPYuPA-386" value="" style="ellipse;whiteSpace=wrap;html=1;aspect=fixed;fillColor=#f5f5f5;fontColor=#333333;strokeColor=#666666;labelBackgroundColor=none;direction=west;" parent="1" vertex="1">
          <mxGeometry x="3219" y="726" width="58" height="58" as="geometry" />
        </mxCell>
        <mxCell id="e0o2W6mFJVZslNkPYuPA-387" value="" style="ellipse;whiteSpace=wrap;html=1;aspect=fixed;fillColor=#f5f5f5;fontColor=#333333;strokeColor=#666666;labelBackgroundColor=none;direction=west;" parent="1" vertex="1">
          <mxGeometry x="3296" y="726" width="58" height="58" as="geometry" />
        </mxCell>
        <mxCell id="e0o2W6mFJVZslNkPYuPA-388" value="" style="ellipse;whiteSpace=wrap;html=1;aspect=fixed;fillColor=#f5f5f5;fontColor=#333333;strokeColor=#666666;labelBackgroundColor=none;direction=west;" parent="1" vertex="1">
          <mxGeometry x="3371" y="726" width="58" height="58" as="geometry" />
        </mxCell>
        <mxCell id="e0o2W6mFJVZslNkPYuPA-389" value="" style="ellipse;whiteSpace=wrap;html=1;aspect=fixed;fillColor=#f5f5f5;fontColor=#333333;strokeColor=#666666;labelBackgroundColor=none;direction=west;" parent="1" vertex="1">
          <mxGeometry x="3448" y="726" width="58" height="58" as="geometry" />
        </mxCell>
        <mxCell id="e0o2W6mFJVZslNkPYuPA-390" value="" style="ellipse;whiteSpace=wrap;html=1;aspect=fixed;fillColor=#f5f5f5;fontColor=#333333;strokeColor=#666666;labelBackgroundColor=none;direction=west;" parent="1" vertex="1">
          <mxGeometry x="3523" y="726" width="58" height="58" as="geometry" />
        </mxCell>
        <mxCell id="e0o2W6mFJVZslNkPYuPA-391" value="" style="ellipse;whiteSpace=wrap;html=1;aspect=fixed;fillColor=#f5f5f5;fontColor=#333333;strokeColor=#666666;labelBackgroundColor=none;direction=west;" parent="1" vertex="1">
          <mxGeometry x="3599" y="726" width="58" height="58" as="geometry" />
        </mxCell>
        <mxCell id="e0o2W6mFJVZslNkPYuPA-392" value="" style="ellipse;whiteSpace=wrap;html=1;aspect=fixed;fillColor=#f5f5f5;fontColor=#333333;strokeColor=#666666;labelBackgroundColor=none;direction=west;" parent="1" vertex="1">
          <mxGeometry x="3674" y="726" width="58" height="58" as="geometry" />
        </mxCell>
        <mxCell id="e0o2W6mFJVZslNkPYuPA-393" value="" style="ellipse;whiteSpace=wrap;html=1;aspect=fixed;fillColor=#f5f5f5;fontColor=#333333;strokeColor=#666666;labelBackgroundColor=none;direction=west;" parent="1" vertex="1">
          <mxGeometry x="3854.5" y="726" width="58" height="58" as="geometry" />
        </mxCell>
        <mxCell id="e0o2W6mFJVZslNkPYuPA-394" value="$$FULL-CONNECTED LAYER-2$$" style="text;html=1;strokeColor=none;fillColor=none;align=center;verticalAlign=middle;whiteSpace=wrap;rounded=0;fontSize=24;" parent="1" vertex="1">
          <mxGeometry x="2891" y="683" width="538" height="30" as="geometry" />
        </mxCell>
        <mxCell id="e0o2W6mFJVZslNkPYuPA-395" style="edgeStyle=none;html=1;exitX=0.5;exitY=0;exitDx=0;exitDy=0;entryX=0.5;entryY=1;entryDx=0;entryDy=0;fontSize=24;" parent="1" source="e0o2W6mFJVZslNkPYuPA-396" target="e0o2W6mFJVZslNkPYuPA-409" edge="1">
          <mxGeometry relative="1" as="geometry" />
        </mxCell>
        <mxCell id="e0o2W6mFJVZslNkPYuPA-451" style="edgeStyle=orthogonalEdgeStyle;rounded=0;orthogonalLoop=1;jettySize=auto;html=1;exitX=1;exitY=0.5;exitDx=0;exitDy=0;entryX=0;entryY=0.5;entryDx=0;entryDy=0;" parent="1" source="e0o2W6mFJVZslNkPYuPA-396" target="e0o2W6mFJVZslNkPYuPA-450" edge="1">
          <mxGeometry relative="1" as="geometry">
            <mxPoint x="4261.370000000003" y="-630.5000000000018" as="targetPoint" />
          </mxGeometry>
        </mxCell>
        <mxCell id="e0o2W6mFJVZslNkPYuPA-396" value="&lt;font style=&quot;font-size: 27px;&quot;&gt;$$D_{out} = \text{StdNorm}(X_{d2})$$&lt;/font&gt;" style="rounded=1;whiteSpace=wrap;html=1;strokeColor=#330000;fontSize=24;fillColor=#FFFFFF;" parent="1" vertex="1">
          <mxGeometry x="2993.37" y="-660.5" width="944" height="60" as="geometry" />
        </mxCell>
        <mxCell id="e0o2W6mFJVZslNkPYuPA-398" style="edgeStyle=none;html=1;exitX=0.5;exitY=0;exitDx=0;exitDy=0;fontSize=24;" parent="1" source="e0o2W6mFJVZslNkPYuPA-399" target="e0o2W6mFJVZslNkPYuPA-396" edge="1">
          <mxGeometry relative="1" as="geometry" />
        </mxCell>
        <mxCell id="wEDj9y5ge6KxLb9yTbvh-44" style="rounded=0;orthogonalLoop=1;jettySize=auto;html=1;exitX=1;exitY=0.5;exitDx=0;exitDy=0;entryX=0;entryY=0.5;entryDx=0;entryDy=0;" edge="1" parent="1" source="e0o2W6mFJVZslNkPYuPA-399" target="wEDj9y5ge6KxLb9yTbvh-9">
          <mxGeometry relative="1" as="geometry" />
        </mxCell>
        <mxCell id="wEDj9y5ge6KxLb9yTbvh-45" style="rounded=0;orthogonalLoop=1;jettySize=auto;html=1;exitX=1;exitY=0.5;exitDx=0;exitDy=0;entryX=0;entryY=0.5;entryDx=0;entryDy=0;" edge="1" parent="1" source="e0o2W6mFJVZslNkPYuPA-399" target="wEDj9y5ge6KxLb9yTbvh-11">
          <mxGeometry relative="1" as="geometry" />
        </mxCell>
        <mxCell id="e0o2W6mFJVZslNkPYuPA-399" value="&lt;font style=&quot;font-size: 26px;&quot;&gt;$$X_{d2}= FL_{d2}+D_{t2}$$&lt;/font&gt;" style="rounded=1;whiteSpace=wrap;html=1;strokeColor=#FF6666;fontSize=24;fillColor=#FFFFFF;" parent="1" vertex="1">
          <mxGeometry x="2994.87" y="-348" width="944" height="60" as="geometry" />
        </mxCell>
        <mxCell id="e0o2W6mFJVZslNkPYuPA-400" style="edgeStyle=none;html=1;exitX=0.5;exitY=0;exitDx=0;exitDy=0;entryX=0.5;entryY=1;entryDx=0;entryDy=0;fontSize=24;startArrow=none;" parent="1" source="e0o2W6mFJVZslNkPYuPA-430" target="e0o2W6mFJVZslNkPYuPA-406" edge="1">
          <mxGeometry relative="1" as="geometry" />
        </mxCell>
        <mxCell id="e0o2W6mFJVZslNkPYuPA-401" value="&lt;font style=&quot;font-size: 24px;&quot;&gt;INPUT ENCODER&lt;/font&gt;" style="rounded=1;whiteSpace=wrap;html=1;" parent="1" vertex="1">
          <mxGeometry x="4486.12" y="9046.5" width="277" height="60" as="geometry" />
        </mxCell>
        <mxCell id="wEDj9y5ge6KxLb9yTbvh-132" style="edgeStyle=orthogonalEdgeStyle;rounded=0;orthogonalLoop=1;jettySize=auto;html=1;exitX=1;exitY=0.5;exitDx=0;exitDy=0;entryX=0;entryY=0.5;entryDx=0;entryDy=0;" edge="1" parent="1" source="e0o2W6mFJVZslNkPYuPA-406" target="wEDj9y5ge6KxLb9yTbvh-131">
          <mxGeometry relative="1" as="geometry" />
        </mxCell>
        <mxCell id="wEDj9y5ge6KxLb9yTbvh-228" style="rounded=0;orthogonalLoop=1;jettySize=auto;html=1;exitX=0.5;exitY=0;exitDx=0;exitDy=0;entryX=0.5;entryY=1;entryDx=0;entryDy=0;" edge="1" parent="1" source="e0o2W6mFJVZslNkPYuPA-406" target="e0o2W6mFJVZslNkPYuPA-260">
          <mxGeometry relative="1" as="geometry">
            <Array as="points">
              <mxPoint x="4192.5" y="8475" />
            </Array>
          </mxGeometry>
        </mxCell>
        <mxCell id="wEDj9y5ge6KxLb9yTbvh-229" style="rounded=0;orthogonalLoop=1;jettySize=auto;html=1;exitX=0.5;exitY=0;exitDx=0;exitDy=0;entryX=0.5;entryY=1;entryDx=0;entryDy=0;" edge="1" parent="1" source="e0o2W6mFJVZslNkPYuPA-406" target="e0o2W6mFJVZslNkPYuPA-266">
          <mxGeometry relative="1" as="geometry">
            <Array as="points">
              <mxPoint x="4524.5" y="8239" />
            </Array>
          </mxGeometry>
        </mxCell>
        <mxCell id="wEDj9y5ge6KxLb9yTbvh-230" style="rounded=0;orthogonalLoop=1;jettySize=auto;html=1;exitX=0.5;exitY=0;exitDx=0;exitDy=0;entryX=0.5;entryY=1;entryDx=0;entryDy=0;" edge="1" parent="1" source="e0o2W6mFJVZslNkPYuPA-406" target="e0o2W6mFJVZslNkPYuPA-272">
          <mxGeometry relative="1" as="geometry">
            <Array as="points">
              <mxPoint x="4896.5" y="8251" />
            </Array>
          </mxGeometry>
        </mxCell>
        <mxCell id="wEDj9y5ge6KxLb9yTbvh-238" style="edgeStyle=orthogonalEdgeStyle;rounded=0;orthogonalLoop=1;jettySize=auto;html=1;exitX=0;exitY=0.5;exitDx=0;exitDy=0;entryX=0;entryY=0.5;entryDx=0;entryDy=0;" edge="1" parent="1" source="e0o2W6mFJVZslNkPYuPA-406" target="e0o2W6mFJVZslNkPYuPA-289">
          <mxGeometry relative="1" as="geometry">
            <Array as="points">
              <mxPoint x="3663.5" y="8651" />
              <mxPoint x="3663.5" y="5807" />
            </Array>
          </mxGeometry>
        </mxCell>
        <mxCell id="e0o2W6mFJVZslNkPYuPA-406" value="$$Input^{d}=([Input_{ohe}]^{d}_{n_{W} \times n_V } \bullet [W_{emb}]_{n_V \times n_E})+P_e$$" style="rounded=1;whiteSpace=wrap;html=1;strokeColor=#FF6666;strokeWidth=4;fontSize=24;fillColor=none;" parent="1" vertex="1">
          <mxGeometry x="4323.12" y="8606.5" width="600" height="89" as="geometry" />
        </mxCell>
        <mxCell id="e0o2W6mFJVZslNkPYuPA-407" style="edgeStyle=orthogonalEdgeStyle;rounded=0;orthogonalLoop=1;jettySize=auto;html=1;exitX=0.5;exitY=0;exitDx=0;exitDy=0;entryX=0.5;entryY=1;entryDx=0;entryDy=0;" parent="1" source="e0o2W6mFJVZslNkPYuPA-435" target="e0o2W6mFJVZslNkPYuPA-423" edge="1">
          <mxGeometry relative="1" as="geometry" />
        </mxCell>
        <mxCell id="e0o2W6mFJVZslNkPYuPA-408" style="edgeStyle=orthogonalEdgeStyle;rounded=0;orthogonalLoop=1;jettySize=auto;html=1;exitX=1;exitY=0.5;exitDx=0;exitDy=0;entryX=0;entryY=0.5;entryDx=0;entryDy=0;" parent="1" source="e0o2W6mFJVZslNkPYuPA-409" target="e0o2W6mFJVZslNkPYuPA-446" edge="1">
          <mxGeometry relative="1" as="geometry">
            <mxPoint x="4028" y="-927" as="targetPoint" />
          </mxGeometry>
        </mxCell>
        <mxCell id="e0o2W6mFJVZslNkPYuPA-409" value="" style="rounded=1;whiteSpace=wrap;html=1;fillColor=#dae8fc;strokeColor=#6c8ebf;rotation=0;labelBackgroundColor=none;" parent="1" vertex="1">
          <mxGeometry x="2965" y="-963" width="993" height="72" as="geometry" />
        </mxCell>
        <mxCell id="e0o2W6mFJVZslNkPYuPA-410" value="" style="ellipse;whiteSpace=wrap;html=1;aspect=fixed;fillColor=#f5f5f5;fontColor=#333333;strokeColor=#666666;labelBackgroundColor=none;direction=west;" parent="1" vertex="1">
          <mxGeometry x="2989" y="-956" width="58" height="58" as="geometry" />
        </mxCell>
        <mxCell id="e0o2W6mFJVZslNkPYuPA-411" value="" style="endArrow=none;dashed=1;html=1;dashPattern=1 3;strokeWidth=2;fontSize=24;" parent="1" edge="1">
          <mxGeometry width="50" height="50" relative="1" as="geometry">
            <mxPoint x="3736" y="-927.2299999999996" as="sourcePoint" />
            <mxPoint x="3828" y="-927" as="targetPoint" />
          </mxGeometry>
        </mxCell>
        <mxCell id="e0o2W6mFJVZslNkPYuPA-412" value="" style="ellipse;whiteSpace=wrap;html=1;aspect=fixed;fillColor=#f5f5f5;fontColor=#333333;strokeColor=#666666;labelBackgroundColor=none;direction=west;" parent="1" vertex="1">
          <mxGeometry x="3064" y="-956" width="58" height="58" as="geometry" />
        </mxCell>
        <mxCell id="e0o2W6mFJVZslNkPYuPA-413" value="" style="ellipse;whiteSpace=wrap;html=1;aspect=fixed;fillColor=#f5f5f5;fontColor=#333333;strokeColor=#666666;labelBackgroundColor=none;direction=west;" parent="1" vertex="1">
          <mxGeometry x="3137" y="-956" width="58" height="58" as="geometry" />
        </mxCell>
        <mxCell id="e0o2W6mFJVZslNkPYuPA-414" value="" style="ellipse;whiteSpace=wrap;html=1;aspect=fixed;fillColor=#f5f5f5;fontColor=#333333;strokeColor=#666666;labelBackgroundColor=none;direction=west;" parent="1" vertex="1">
          <mxGeometry x="3212" y="-956" width="58" height="58" as="geometry" />
        </mxCell>
        <mxCell id="e0o2W6mFJVZslNkPYuPA-415" value="" style="ellipse;whiteSpace=wrap;html=1;aspect=fixed;fillColor=#f5f5f5;fontColor=#333333;strokeColor=#666666;labelBackgroundColor=none;direction=west;" parent="1" vertex="1">
          <mxGeometry x="3289" y="-956" width="58" height="58" as="geometry" />
        </mxCell>
        <mxCell id="e0o2W6mFJVZslNkPYuPA-416" value="" style="ellipse;whiteSpace=wrap;html=1;aspect=fixed;fillColor=#f5f5f5;fontColor=#333333;strokeColor=#666666;labelBackgroundColor=none;direction=west;" parent="1" vertex="1">
          <mxGeometry x="3364" y="-956" width="58" height="58" as="geometry" />
        </mxCell>
        <mxCell id="e0o2W6mFJVZslNkPYuPA-417" value="" style="ellipse;whiteSpace=wrap;html=1;aspect=fixed;fillColor=#f5f5f5;fontColor=#333333;strokeColor=#666666;labelBackgroundColor=none;direction=west;" parent="1" vertex="1">
          <mxGeometry x="3441" y="-956" width="58" height="58" as="geometry" />
        </mxCell>
        <mxCell id="e0o2W6mFJVZslNkPYuPA-418" value="" style="ellipse;whiteSpace=wrap;html=1;aspect=fixed;fillColor=#f5f5f5;fontColor=#333333;strokeColor=#666666;labelBackgroundColor=none;direction=west;" parent="1" vertex="1">
          <mxGeometry x="3516" y="-956" width="58" height="58" as="geometry" />
        </mxCell>
        <mxCell id="e0o2W6mFJVZslNkPYuPA-419" value="" style="ellipse;whiteSpace=wrap;html=1;aspect=fixed;fillColor=#f5f5f5;fontColor=#333333;strokeColor=#666666;labelBackgroundColor=none;direction=west;" parent="1" vertex="1">
          <mxGeometry x="3592" y="-956" width="58" height="58" as="geometry" />
        </mxCell>
        <mxCell id="e0o2W6mFJVZslNkPYuPA-420" value="" style="ellipse;whiteSpace=wrap;html=1;aspect=fixed;fillColor=#f5f5f5;fontColor=#333333;strokeColor=#666666;labelBackgroundColor=none;direction=west;" parent="1" vertex="1">
          <mxGeometry x="3667" y="-956" width="58" height="58" as="geometry" />
        </mxCell>
        <mxCell id="e0o2W6mFJVZslNkPYuPA-421" value="" style="ellipse;whiteSpace=wrap;html=1;aspect=fixed;fillColor=#f5f5f5;fontColor=#333333;strokeColor=#666666;labelBackgroundColor=none;direction=west;" parent="1" vertex="1">
          <mxGeometry x="3847.5" y="-956" width="58" height="58" as="geometry" />
        </mxCell>
        <mxCell id="e0o2W6mFJVZslNkPYuPA-422" value="OUTPUT" style="text;html=1;strokeColor=none;fillColor=none;align=center;verticalAlign=middle;whiteSpace=wrap;rounded=0;fontSize=24;" parent="1" vertex="1">
          <mxGeometry x="2952" y="-1006" width="185" height="30" as="geometry" />
        </mxCell>
        <mxCell id="e0o2W6mFJVZslNkPYuPA-423" value="SOFTMAX" style="rounded=1;whiteSpace=wrap;html=1;strokeColor=#FF6666;fontSize=24;fillColor=#FFFFFF;" parent="1" vertex="1">
          <mxGeometry x="2989.12" y="-1523" width="944" height="60" as="geometry" />
        </mxCell>
        <mxCell id="e0o2W6mFJVZslNkPYuPA-425" style="edgeStyle=none;html=1;exitX=0.5;exitY=0;exitDx=0;exitDy=0;entryX=0.5;entryY=1;entryDx=0;entryDy=0;fontSize=24;" parent="1" source="e0o2W6mFJVZslNkPYuPA-427" target="e0o2W6mFJVZslNkPYuPA-259" edge="1">
          <mxGeometry relative="1" as="geometry" />
        </mxCell>
        <mxCell id="e0o2W6mFJVZslNkPYuPA-426" style="edgeStyle=orthogonalEdgeStyle;rounded=0;orthogonalLoop=1;jettySize=auto;html=1;exitX=1;exitY=0.5;exitDx=0;exitDy=0;entryX=0;entryY=0.5;entryDx=0;entryDy=0;" parent="1" source="e0o2W6mFJVZslNkPYuPA-427" target="e0o2W6mFJVZslNkPYuPA-436" edge="1">
          <mxGeometry relative="1" as="geometry" />
        </mxCell>
        <mxCell id="e0o2W6mFJVZslNkPYuPA-427" value="LOOKUP TABLE EMBEDDINGS" style="rounded=1;whiteSpace=wrap;html=1;strokeColor=#FF6666;strokeWidth=4;fontSize=24;fillColor=none;" parent="1" vertex="1">
          <mxGeometry x="-4.399999999999807" y="13601" width="289" height="89" as="geometry" />
        </mxCell>
        <mxCell id="e0o2W6mFJVZslNkPYuPA-428" value="" style="edgeStyle=none;html=1;exitX=0.5;exitY=0;exitDx=0;exitDy=0;entryX=0.5;entryY=1;entryDx=0;entryDy=0;fontSize=24;endArrow=none;" parent="1" source="e0o2W6mFJVZslNkPYuPA-401" target="e0o2W6mFJVZslNkPYuPA-430" edge="1">
          <mxGeometry relative="1" as="geometry">
            <mxPoint x="4047.62" y="8283.5" as="sourcePoint" />
            <mxPoint x="4044.62" y="7986.5" as="targetPoint" />
          </mxGeometry>
        </mxCell>
        <mxCell id="e0o2W6mFJVZslNkPYuPA-429" style="edgeStyle=orthogonalEdgeStyle;rounded=0;orthogonalLoop=1;jettySize=auto;html=1;exitX=0;exitY=0.5;exitDx=0;exitDy=0;entryX=1;entryY=0.5;entryDx=0;entryDy=0;" parent="1" source="e0o2W6mFJVZslNkPYuPA-430" target="e0o2W6mFJVZslNkPYuPA-441" edge="1">
          <mxGeometry relative="1" as="geometry" />
        </mxCell>
        <mxCell id="e0o2W6mFJVZslNkPYuPA-430" value="LOOKUP TABLE EMBEDDINGS" style="rounded=1;whiteSpace=wrap;html=1;strokeColor=#FF6666;strokeWidth=4;fontSize=24;fillColor=none;" parent="1" vertex="1">
          <mxGeometry x="4478.62" y="8825.5" width="289" height="89" as="geometry" />
        </mxCell>
        <mxCell id="e0o2W6mFJVZslNkPYuPA-432" value="" style="edgeStyle=orthogonalEdgeStyle;rounded=0;orthogonalLoop=1;jettySize=auto;html=1;exitX=0.5;exitY=0;exitDx=0;exitDy=0;" parent="1" source="e0o2W6mFJVZslNkPYuPA-423" target="e0o2W6mFJVZslNkPYuPA-433" edge="1">
          <mxGeometry relative="1" as="geometry">
            <mxPoint x="3461.3892307692304" y="-1646" as="targetPoint" />
            <mxPoint x="3460.62" y="-1563" as="sourcePoint" />
          </mxGeometry>
        </mxCell>
        <mxCell id="e0o2W6mFJVZslNkPYuPA-433" value="&lt;div&gt;&lt;font style=&quot;font-size: 27px;&quot;&gt;$$\sigma(Z_{out})$$&lt;/font&gt;&lt;/div&gt;" style="rounded=1;whiteSpace=wrap;html=1;" parent="1" vertex="1">
          <mxGeometry x="3396.87" y="-1625" width="128.5" height="46.5" as="geometry" />
        </mxCell>
        <mxCell id="e0o2W6mFJVZslNkPYuPA-434" style="edgeStyle=orthogonalEdgeStyle;rounded=0;orthogonalLoop=1;jettySize=auto;html=1;exitX=1;exitY=0.5;exitDx=0;exitDy=0;entryX=0;entryY=0.5;entryDx=0;entryDy=0;" parent="1" source="e0o2W6mFJVZslNkPYuPA-435" target="e0o2W6mFJVZslNkPYuPA-455" edge="1">
          <mxGeometry relative="1" as="geometry">
            <mxPoint x="4671.37" y="-764" as="targetPoint" />
          </mxGeometry>
        </mxCell>
        <mxCell id="e0o2W6mFJVZslNkPYuPA-436" value="&lt;font style=&quot;font-size: 26px;&quot;&gt;$$W_{emb}$$&lt;/font&gt;" style="rounded=1;whiteSpace=wrap;html=1;strokeColor=none;strokeWidth=4;fontSize=24;fillColor=none;" parent="1" vertex="1">
          <mxGeometry x="415.4400000000001" y="13610" width="97" height="71" as="geometry" />
        </mxCell>
        <mxCell id="e0o2W6mFJVZslNkPYuPA-437" style="edgeStyle=orthogonalEdgeStyle;rounded=0;orthogonalLoop=1;jettySize=auto;html=1;exitX=1;exitY=0.5;exitDx=0;exitDy=0;" parent="1" source="e0o2W6mFJVZslNkPYuPA-291" target="e0o2W6mFJVZslNkPYuPA-438" edge="1">
          <mxGeometry relative="1" as="geometry">
            <mxPoint x="369.3780000000004" y="9615.784000000001" as="targetPoint" />
          </mxGeometry>
        </mxCell>
        <mxCell id="e0o2W6mFJVZslNkPYuPA-438" value="&lt;span style=&quot;font-size: 30px; text-wrap: nowrap;&quot;&gt;$$W^e_{fl_1}; b^e_{fl_1}$$&lt;/span&gt;" style="whiteSpace=wrap;html=1;fillColor=default;strokeColor=none;" parent="1" vertex="1">
          <mxGeometry x="500.68000000000006" y="9498" width="144" height="57" as="geometry" />
        </mxCell>
        <mxCell id="wEDj9y5ge6KxLb9yTbvh-145" style="edgeStyle=orthogonalEdgeStyle;rounded=0;orthogonalLoop=1;jettySize=auto;html=1;exitX=0.5;exitY=0;exitDx=0;exitDy=0;entryX=0.5;entryY=1;entryDx=0;entryDy=0;" edge="1" parent="1" source="e0o2W6mFJVZslNkPYuPA-439" target="wEDj9y5ge6KxLb9yTbvh-136">
          <mxGeometry relative="1" as="geometry" />
        </mxCell>
        <mxCell id="wEDj9y5ge6KxLb9yTbvh-155" style="edgeStyle=orthogonalEdgeStyle;rounded=0;orthogonalLoop=1;jettySize=auto;html=1;exitX=0;exitY=0.5;exitDx=0;exitDy=0;entryX=1;entryY=0.5;entryDx=0;entryDy=0;" edge="1" parent="1" source="e0o2W6mFJVZslNkPYuPA-439" target="wEDj9y5ge6KxLb9yTbvh-154">
          <mxGeometry relative="1" as="geometry" />
        </mxCell>
        <mxCell id="e0o2W6mFJVZslNkPYuPA-439" value="$$FL_{e2}=FL_{e1} \cdot W^e_{fl_2}+b^e_{fl_2}$$" style="rounded=1;whiteSpace=wrap;html=1;strokeColor=#FF6666;fontSize=24;fillColor=#FFFFFF;" parent="1" vertex="1">
          <mxGeometry x="-379.9999999999998" y="8074" width="602" height="60" as="geometry" />
        </mxCell>
        <mxCell id="e0o2W6mFJVZslNkPYuPA-440" value="&lt;span style=&quot;font-size: 30px; text-wrap: nowrap;&quot;&gt;$$W^e_{fl_2}; b^e_{fl_2}$$&lt;/span&gt;" style="whiteSpace=wrap;html=1;fillColor=default;strokeColor=none;" parent="1" vertex="1">
          <mxGeometry x="493.98" y="8529" width="144" height="57" as="geometry" />
        </mxCell>
        <mxCell id="e0o2W6mFJVZslNkPYuPA-441" value="&lt;font style=&quot;font-size: 26px;&quot;&gt;$$W_{emb}$$&lt;/font&gt;" style="rounded=1;whiteSpace=wrap;html=1;strokeColor=none;strokeWidth=4;fontSize=24;fillColor=none;" parent="1" vertex="1">
          <mxGeometry x="4220.12" y="8834.5" width="97" height="71" as="geometry" />
        </mxCell>
        <mxCell id="wEDj9y5ge6KxLb9yTbvh-41" style="rounded=0;orthogonalLoop=1;jettySize=auto;html=1;exitX=1;exitY=0.5;exitDx=0;exitDy=0;" edge="1" parent="1" source="e0o2W6mFJVZslNkPYuPA-442" target="wEDj9y5ge6KxLb9yTbvh-35">
          <mxGeometry relative="1" as="geometry" />
        </mxCell>
        <mxCell id="wEDj9y5ge6KxLb9yTbvh-42" style="rounded=0;orthogonalLoop=1;jettySize=auto;html=1;exitX=1;exitY=0.5;exitDx=0;exitDy=0;entryX=0;entryY=0.5;entryDx=0;entryDy=0;" edge="1" parent="1" source="e0o2W6mFJVZslNkPYuPA-442" target="wEDj9y5ge6KxLb9yTbvh-36">
          <mxGeometry relative="1" as="geometry" />
        </mxCell>
        <mxCell id="e0o2W6mFJVZslNkPYuPA-442" value="&lt;span style=&quot;font-size: 30px; text-wrap: nowrap;&quot;&gt;$$W^d_{fl_1};b^d_{fl_1}$$&lt;/span&gt;" style="rounded=1;whiteSpace=wrap;html=1;strokeColor=none;" parent="1" vertex="1">
          <mxGeometry x="4030.25" y="2135" width="143.25" height="46" as="geometry" />
        </mxCell>
        <mxCell id="wEDj9y5ge6KxLb9yTbvh-21" style="rounded=0;orthogonalLoop=1;jettySize=auto;html=1;exitX=1;exitY=0.5;exitDx=0;exitDy=0;entryX=0;entryY=0.5;entryDx=0;entryDy=0;" edge="1" parent="1" source="e0o2W6mFJVZslNkPYuPA-443" target="wEDj9y5ge6KxLb9yTbvh-14">
          <mxGeometry relative="1" as="geometry" />
        </mxCell>
        <mxCell id="wEDj9y5ge6KxLb9yTbvh-23" style="rounded=0;orthogonalLoop=1;jettySize=auto;html=1;exitX=1;exitY=0.5;exitDx=0;exitDy=0;entryX=0;entryY=0.5;entryDx=0;entryDy=0;" edge="1" parent="1" source="e0o2W6mFJVZslNkPYuPA-443" target="wEDj9y5ge6KxLb9yTbvh-15">
          <mxGeometry relative="1" as="geometry" />
        </mxCell>
        <mxCell id="e0o2W6mFJVZslNkPYuPA-443" value="&lt;span style=&quot;font-size: 30px; text-wrap: nowrap;&quot;&gt;$$W^d_{fl_2};b^d_{fl_2}$$&lt;/span&gt;" style="rounded=1;whiteSpace=wrap;html=1;strokeColor=none;" parent="1" vertex="1">
          <mxGeometry x="4027.5" y="732" width="143.25" height="46" as="geometry" />
        </mxCell>
        <mxCell id="e0o2W6mFJVZslNkPYuPA-444" style="edgeStyle=orthogonalEdgeStyle;rounded=0;orthogonalLoop=1;jettySize=auto;html=1;exitX=0.5;exitY=0;exitDx=0;exitDy=0;entryX=0.5;entryY=1;entryDx=0;entryDy=0;" parent="1" source="e0o2W6mFJVZslNkPYuPA-445" target="e0o2W6mFJVZslNkPYuPA-399" edge="1">
          <mxGeometry relative="1" as="geometry">
            <mxPoint x="3476.87" y="47" as="sourcePoint" />
          </mxGeometry>
        </mxCell>
        <mxCell id="wEDj9y5ge6KxLb9yTbvh-16" style="edgeStyle=orthogonalEdgeStyle;rounded=0;orthogonalLoop=1;jettySize=auto;html=1;exitX=1;exitY=0.5;exitDx=0;exitDy=0;entryX=0;entryY=0.5;entryDx=0;entryDy=0;" edge="1" parent="1" source="e0o2W6mFJVZslNkPYuPA-445" target="wEDj9y5ge6KxLb9yTbvh-13">
          <mxGeometry relative="1" as="geometry">
            <mxPoint x="4663.37" y="313" as="sourcePoint" />
          </mxGeometry>
        </mxCell>
        <mxCell id="e0o2W6mFJVZslNkPYuPA-445" value="&lt;font style=&quot;font-size: 26px;&quot;&gt;$$FL_{d2} = FL_{d1} \cdot W^d_{fl_2} + b^d_{fl_2}$$&lt;/font&gt;" style="rounded=1;whiteSpace=wrap;html=1;strokeColor=#FF6666;fontSize=24;fillColor=#FFFFFF;" parent="1" vertex="1">
          <mxGeometry x="2992" y="276" width="944" height="60" as="geometry" />
        </mxCell>
        <mxCell id="wEDj9y5ge6KxLb9yTbvh-6" style="rounded=0;orthogonalLoop=1;jettySize=auto;html=1;exitX=1;exitY=0.5;exitDx=0;exitDy=0;entryX=0;entryY=0.5;entryDx=0;entryDy=0;" edge="1" parent="1" source="e0o2W6mFJVZslNkPYuPA-446" target="wEDj9y5ge6KxLb9yTbvh-8">
          <mxGeometry relative="1" as="geometry">
            <mxPoint x="4673.37" y="-822.5" as="targetPoint" />
          </mxGeometry>
        </mxCell>
        <mxCell id="wEDj9y5ge6KxLb9yTbvh-7" style="rounded=0;orthogonalLoop=1;jettySize=auto;html=1;exitX=1;exitY=0.5;exitDx=0;exitDy=0;entryX=0;entryY=0.5;entryDx=0;entryDy=0;" edge="1" parent="1" source="e0o2W6mFJVZslNkPYuPA-446" target="wEDj9y5ge6KxLb9yTbvh-3">
          <mxGeometry relative="1" as="geometry">
            <mxPoint x="4282.369999999999" y="-992.333333333333" as="targetPoint" />
          </mxGeometry>
        </mxCell>
        <mxCell id="e0o2W6mFJVZslNkPYuPA-446" value="&lt;span style=&quot;font-size: 30px; text-wrap: nowrap;&quot;&gt;$$W^0; b^0$$&lt;/span&gt;" style="rounded=1;whiteSpace=wrap;html=1;strokeColor=none;" parent="1" vertex="1">
          <mxGeometry x="4010.5" y="-950" width="143.25" height="46" as="geometry" />
        </mxCell>
        <mxCell id="e0o2W6mFJVZslNkPYuPA-447" style="edgeStyle=orthogonalEdgeStyle;rounded=0;orthogonalLoop=1;jettySize=auto;html=1;exitX=0.5;exitY=0;exitDx=0;exitDy=0;" parent="1" source="e0o2W6mFJVZslNkPYuPA-433" target="e0o2W6mFJVZslNkPYuPA-448" edge="1">
          <mxGeometry relative="1" as="geometry">
            <mxPoint x="3460.9660000000013" y="-1700.3459999999995" as="targetPoint" />
          </mxGeometry>
        </mxCell>
        <mxCell id="e0o2W6mFJVZslNkPYuPA-448" value="&lt;span style=&quot;font-size: 28px;&quot;&gt;$$L=-\sum y_ilog(\sigma(Z^{out}))$$&lt;/span&gt;" style="rounded=1;whiteSpace=wrap;html=1;" parent="1" vertex="1">
          <mxGeometry x="3269.62" y="-1756" width="385" height="70" as="geometry" />
        </mxCell>
        <mxCell id="e0o2W6mFJVZslNkPYuPA-449" value="&lt;div style=&quot;background-color: rgb(31, 31, 31); line-height: 19px; white-space-collapse: preserve; font-size: 14px; font-family: Consolas, &amp;quot;Courier New&amp;quot;, monospace; color: rgb(204, 204, 204);&quot;&gt;&lt;br&gt;&lt;/div&gt;" style="text;html=1;align=center;verticalAlign=middle;resizable=0;points=[];autosize=1;strokeColor=none;fillColor=none;" parent="1" vertex="1">
          <mxGeometry x="815.5" y="6929.5" width="18" height="31" as="geometry" />
        </mxCell>
        <mxCell id="e0o2W6mFJVZslNkPYuPA-450" value="&lt;div&gt;&lt;font style=&quot;&quot;&gt;&lt;span style=&quot;font-size: 25px;&quot;&gt;&lt;br&gt;&lt;/span&gt;&lt;/font&gt;&lt;/div&gt;&lt;font style=&quot;&quot;&gt;&lt;span style=&quot;font-size: 25px;&quot;&gt;$$\frac{\partial \text{Loss}}{\partial D_{out}} =&amp;nbsp; \frac{\partial \text{Loss}}{\partial Z^{out}} \cdot&amp;nbsp; \frac{\partial Z^{out}}{\partial D_{out}} = (\sigma(Z^{out}_i) - y_i) \cdot W^o$$&lt;/span&gt;&lt;br&gt;&lt;/font&gt;" style="rounded=1;whiteSpace=wrap;html=1;" parent="1" vertex="1">
          <mxGeometry x="5551.5" y="-693.5" width="849" height="127" as="geometry" />
        </mxCell>
        <mxCell id="e0o2W6mFJVZslNkPYuPA-455" value="&lt;div&gt;&lt;span style=&quot;font-size: 25px;&quot;&gt;&lt;br&gt;&lt;/span&gt;&lt;/div&gt;&lt;div&gt;&lt;span style=&quot;font-size: 25px;&quot;&gt;$$\frac{\partial \text{Loss}}{\partial Z^{out}} = \frac{\partial \text{Loss}}{\partial \sigma(Z^{out})} \cdot&amp;nbsp; \frac{\partial \sigma(\partial Z^{out})}{\partial Z^{out}} =&amp;nbsp; \sigma(Z^{out}_i) - y_i $$&amp;nbsp;&lt;/span&gt;&lt;br&gt;&lt;/div&gt;" style="rounded=1;whiteSpace=wrap;html=1;" parent="1" vertex="1">
          <mxGeometry x="5551.5" y="-1347" width="849" height="127" as="geometry" />
        </mxCell>
        <mxCell id="wEDj9y5ge6KxLb9yTbvh-1" value="&lt;div&gt;&lt;span style=&quot;background-color: initial;&quot;&gt;&lt;font style=&quot;font-size: 28px;&quot;&gt;$$\displaylines{Input^{e}=([Input_{ohe}]^{e}_{n_{W} \times n_V } \bullet [W_{emb}]_{n_V \times n_E})+P_e \\ Q_E=Input^e \cdot Q_{e}; \quad K_E =Input^e \cdot K_{e}; \quad V_E=Input^e \cdot V_{e}\\ Ec_{t1}=Norm(\sigma(\frac{Q_{E} K_{E}^T}{\sqrt d_k})V_{E}+Input^{e})=Norm(A_{e}+Input^{e})\\ FL_{e1}=ReLu(Ec_{t1}*W^e_{fl_1}+b^e_{fl_1})\\ FL_{e2}=FL_{e1}*W^e_{fl_2}+b^e_{fl_2}\\ Ec_{out}=Norm(FL_{e2}+Ec_{t1})\\ \\ Input^{d}=([Input_{ohe}]^{d}_{n_{W} \times n_V } \bullet [W_{emb}]_{n_V \times n_E})+P_e \\ Q_D=Input^d \cdot Q_{d}\\ K_D=Input^d \cdot K_{d}\\ V_D=Input^d \cdot V_{d}\\ D_{t1}=Norm(\sigma(Mask[\frac{Q_{D} K_{D}^T}{\sqrt d_k}])V_{D}+Input^{d})=Norm(A_{mask}+Input^d)\\ Q_C = D_{t1} \cdot Q_{c}&amp;nbsp; \\ K_C = Ec_{out} \cdot K_{c} \\ V_C = Ec_{out} \cdot V_{c} \\ D_{t2} = Norm\left(\sigma\left(\frac{Q_{C} K_{C}^T}{\sqrt{d_k}}\right) V_{C} + D_{t1}\right) = Norm(A_{cr}+D_{t1}) \\&amp;nbsp; &amp;nbsp;FL_{d1} = ReLU(D_{t2} \cdot W^d_{fl_1} + b^d_{fl_1}) \\ FL_{d2} = FL_{d1} \cdot W^d_{fl_2} + b^d_{fl_2} \\ D_{out} = Norm(FL_{d2} + D_{t2}) =\frac{(FL_{d2} + D_{t2})-\mu_{(FL_{d2} + D_{t2})}}{\sqrt{\sigma^2_{(FL_{d2} + D_{t2})}+\epsilon}}\\ Z_{out} = D_{out} \cdot W^o + b^o \\ \sigma(Z^{out}) = \sigma(D_{out} \cdot W^o + b^o)} $$&amp;nbsp;&lt;/font&gt;&lt;/span&gt;&lt;br&gt;&lt;/div&gt;" style="text;html=1;align=center;verticalAlign=middle;resizable=0;points=[];autosize=1;strokeColor=none;fillColor=none;" vertex="1" parent="1">
          <mxGeometry x="-8003" y="2746" width="15372" height="46" as="geometry" />
        </mxCell>
        <mxCell id="wEDj9y5ge6KxLb9yTbvh-2" value="" style="edgeStyle=orthogonalEdgeStyle;rounded=0;orthogonalLoop=1;jettySize=auto;html=1;exitX=0.5;exitY=0;exitDx=0;exitDy=0;entryX=0.5;entryY=1;entryDx=0;entryDy=0;" edge="1" parent="1" source="e0o2W6mFJVZslNkPYuPA-409" target="e0o2W6mFJVZslNkPYuPA-435">
          <mxGeometry relative="1" as="geometry">
            <mxPoint x="3465.37" y="-716" as="sourcePoint" />
            <mxPoint x="3463.37" y="-1463" as="targetPoint" />
          </mxGeometry>
        </mxCell>
        <mxCell id="e0o2W6mFJVZslNkPYuPA-435" value="&lt;div&gt;&lt;font style=&quot;font-size: 25px;&quot;&gt;$$Z_{out} = D_{out} \cdot W^o + b^o$$&lt;/font&gt;&lt;/div&gt;" style="rounded=1;whiteSpace=wrap;html=1;" parent="1" vertex="1">
          <mxGeometry x="3319.12" y="-1306" width="282.5" height="52" as="geometry" />
        </mxCell>
        <mxCell id="wEDj9y5ge6KxLb9yTbvh-3" value="&lt;div&gt;&lt;span style=&quot;font-size: 25px;&quot;&gt;&lt;br&gt;&lt;/span&gt;&lt;/div&gt;&lt;div&gt;&lt;span style=&quot;font-size: 25px;&quot;&gt;$$\frac{\partial \text{Loss}}{\partial W^0} =&amp;nbsp; \frac{\partial \text{Loss}}{\partial Z^{out}} \cdot&amp;nbsp; \frac{\partial Z^{out}}{\partial W^0} = (\sigma(Z^{out}_i) - y_i) \cdot D_{out}$$&lt;/span&gt;&lt;br&gt;&lt;/div&gt;" style="rounded=1;whiteSpace=wrap;html=1;" vertex="1" parent="1">
          <mxGeometry x="5551.5" y="-1059" width="669" height="127" as="geometry" />
        </mxCell>
        <mxCell id="wEDj9y5ge6KxLb9yTbvh-8" value="&lt;div&gt;&lt;span style=&quot;font-size: 25px;&quot;&gt;&lt;br&gt;&lt;/span&gt;&lt;/div&gt;&lt;div&gt;&lt;span style=&quot;font-size: 25px;&quot;&gt;$$\frac{\partial \text{Loss}}{\partial b^0} =&amp;nbsp; \frac{\partial \text{Loss}}{\partial Z^{out}} \cdot&amp;nbsp; \frac{\partial Z^{out}}{\partial b^0} = (\sigma(Z^{out}_i) - y_i) \cdot 1$$&lt;/span&gt;&lt;br&gt;&lt;/div&gt;" style="rounded=1;whiteSpace=wrap;html=1;" vertex="1" parent="1">
          <mxGeometry x="5545.5" y="-891" width="669" height="127" as="geometry" />
        </mxCell>
        <mxCell id="wEDj9y5ge6KxLb9yTbvh-9" value="&lt;div&gt;&lt;font style=&quot;font-size: 36px;&quot;&gt;&lt;br&gt;&lt;/font&gt;&lt;/div&gt;&lt;div&gt;&lt;font style=&quot;font-size: 24px;&quot;&gt;$$\frac{\partial \text{Loss}}{\partial FL_{d2}} =&amp;nbsp; \frac{\partial \text{Loss}}{\partial D_{out}} \cdot&amp;nbsp; \frac{\partial D_{out}}{\partial FL_{d2}}= \left[\sigma(Z^{out}_i) - y_i\right] \cdot&amp;nbsp; W^o \cdot&amp;nbsp; \left[(1-\frac{1}{N}) \frac{1}{\sqrt{\sigma^2_{(X_{d2})}+\epsilon}}-\frac{1}{N}\frac{(X_{d2}-\mu_{(X_{d2})})^2}{(\sigma^2_{(X_{d2})}+\epsilon)^{3/2}}\right]$$&amp;nbsp;&lt;/font&gt;&lt;br&gt;&lt;/div&gt;" style="rounded=1;whiteSpace=wrap;html=1;" vertex="1" parent="1">
          <mxGeometry x="5557.37" y="-476" width="1377" height="147" as="geometry" />
        </mxCell>
        <mxCell id="wEDj9y5ge6KxLb9yTbvh-51" style="edgeStyle=orthogonalEdgeStyle;rounded=0;orthogonalLoop=1;jettySize=auto;html=1;exitX=1;exitY=0.5;exitDx=0;exitDy=0;entryX=0.5;entryY=0;entryDx=0;entryDy=0;" edge="1" parent="1" source="wEDj9y5ge6KxLb9yTbvh-11" target="wEDj9y5ge6KxLb9yTbvh-50">
          <mxGeometry relative="1" as="geometry" />
        </mxCell>
        <mxCell id="wEDj9y5ge6KxLb9yTbvh-11" value="&lt;span style=&quot;font-size: 25px;&quot;&gt;&amp;nbsp;&lt;/span&gt;&lt;div&gt;&lt;font style=&quot;font-size: 24px;&quot;&gt;$$\frac{\partial \text{Loss}}{\partial D_{t2}} =&amp;nbsp; \frac{\partial \text{Loss}}{\partial Z^{out}} \cdot&amp;nbsp; \frac{\partial Z^{out}}{\partial D_{out}} \cdot&amp;nbsp; \frac{\partial D_{out}}{\partial D_{t2}}= \left[\sigma(Z^{out}_i) - y_i\right] \cdot&amp;nbsp; W^o \cdot&amp;nbsp; \left[(1-\frac{1}{N}) \frac{1}{\sqrt{\sigma^2_{(X_{d2})}+\epsilon}}-\frac{1}{N}\frac{(X_{d2}-\mu_{(X_{d2})})^2}{(\sigma^2_{(X_{d2})}+\epsilon)^{3/2}}\right]$$&lt;/font&gt;&lt;br&gt;&lt;/div&gt;" style="rounded=1;whiteSpace=wrap;html=1;" vertex="1" parent="1">
          <mxGeometry x="5557.37" y="-220" width="1377" height="147" as="geometry" />
        </mxCell>
        <mxCell id="wEDj9y5ge6KxLb9yTbvh-13" value="&lt;div&gt;&lt;span style=&quot;font-size: 25px;&quot;&gt;&lt;br&gt;&lt;/span&gt;&lt;/div&gt;&lt;div&gt;&lt;span style=&quot;font-size: 25px;&quot;&gt;$$\frac{\partial \text{Loss}}{\partial FL_{d1}} =&amp;nbsp; &amp;nbsp;\frac{\partial \text{Loss}}{\partial FL_{d2}} \cdot&amp;nbsp; \frac{\partial FL_{d2}}{\partial FL_{d1}}= \frac{\partial \text{Loss}}{\partial FL_{d2}}\cdot W^d_{fl2}$$&lt;/span&gt;&lt;br&gt;&lt;/div&gt;" style="rounded=1;whiteSpace=wrap;html=1;" vertex="1" parent="1">
          <mxGeometry x="5580" y="242.5" width="669" height="127" as="geometry" />
        </mxCell>
        <mxCell id="wEDj9y5ge6KxLb9yTbvh-14" value="&lt;div&gt;&lt;span style=&quot;font-size: 25px;&quot;&gt;&lt;br&gt;&lt;/span&gt;&lt;/div&gt;&lt;div&gt;&lt;span style=&quot;font-size: 25px;&quot;&gt;$$\frac{\partial \text{Loss}}{\partial W^d_{fl2}} =&amp;nbsp; &amp;nbsp;\frac{\partial \text{Loss}}{\partial FL_{d2}} \cdot&amp;nbsp; \frac{\partial FL_{d2}}{\partial W^d_{fl2}}= \frac{\partial \text{Loss}}{\partial FL_{d2}}\cdot FL_{d1}$$&lt;/span&gt;&lt;br&gt;&lt;/div&gt;" style="rounded=1;whiteSpace=wrap;html=1;" vertex="1" parent="1">
          <mxGeometry x="5571" y="623" width="669" height="127" as="geometry" />
        </mxCell>
        <mxCell id="wEDj9y5ge6KxLb9yTbvh-15" value="&lt;div&gt;&lt;span style=&quot;font-size: 25px;&quot;&gt;&lt;br&gt;&lt;/span&gt;&lt;/div&gt;&lt;div&gt;&lt;span style=&quot;font-size: 25px;&quot;&gt;$$\frac{\partial \text{Loss}}{\partial b^d_{fl2}} =&amp;nbsp; &amp;nbsp;\frac{\partial \text{Loss}}{\partial FL_{d2}} \cdot&amp;nbsp; \frac{\partial FL_{d2}}{\partial b^d_{fl2}}= \frac{\partial \text{Loss}}{\partial FL_{d2}}\cdot 1$$&lt;/span&gt;&lt;br&gt;&lt;/div&gt;" style="rounded=1;whiteSpace=wrap;html=1;" vertex="1" parent="1">
          <mxGeometry x="5575" y="809" width="669" height="127" as="geometry" />
        </mxCell>
        <mxCell id="wEDj9y5ge6KxLb9yTbvh-52" style="edgeStyle=orthogonalEdgeStyle;rounded=0;orthogonalLoop=1;jettySize=auto;html=1;exitX=1;exitY=0.5;exitDx=0;exitDy=0;entryX=0.5;entryY=1;entryDx=0;entryDy=0;" edge="1" parent="1" source="wEDj9y5ge6KxLb9yTbvh-25" target="wEDj9y5ge6KxLb9yTbvh-50">
          <mxGeometry relative="1" as="geometry" />
        </mxCell>
        <mxCell id="wEDj9y5ge6KxLb9yTbvh-25" value="&lt;div&gt;&lt;span style=&quot;font-size: 25px;&quot;&gt;&lt;br&gt;&lt;/span&gt;&lt;/div&gt;&lt;div&gt;&lt;span style=&quot;font-size: 25px;&quot;&gt;$$\frac{\partial \text{Loss}}{\partial D_{t2}}=&amp;nbsp; \frac{\partial \text{Loss}}{\partial FL_{d1}} \cdot \frac{\partial FL_{d1}}{\partial ReLu(X_{d1})} \cdot \frac{\partial ReLu(X_{d1})}{\partial X_{d1}} \cdot \frac{\partial X_{d1}}{\partial D_{t2}}=&amp;nbsp; \begin{cases}&amp;nbsp; &amp;nbsp; &amp;nbsp;\frac{\partial \text{Loss}}{\partial FL_{d1}} \cdot W^d_{fl_1},&amp;nbsp; X_{d1} &amp;gt; 0 \\&amp;nbsp; &amp;nbsp; &amp;nbsp;0,&amp;nbsp; \text{otherwise}&amp;nbsp; &amp;nbsp; &amp;nbsp;\end{cases} $$&lt;/span&gt;&lt;br&gt;&lt;/div&gt;" style="rounded=1;whiteSpace=wrap;html=1;" vertex="1" parent="1">
          <mxGeometry x="5588.5" y="1298" width="1104" height="127" as="geometry" />
        </mxCell>
        <mxCell id="wEDj9y5ge6KxLb9yTbvh-33" style="edgeStyle=orthogonalEdgeStyle;rounded=0;orthogonalLoop=1;jettySize=auto;html=1;exitX=0.5;exitY=0;exitDx=0;exitDy=0;" edge="1" parent="1" source="wEDj9y5ge6KxLb9yTbvh-27" target="e0o2W6mFJVZslNkPYuPA-378">
          <mxGeometry relative="1" as="geometry" />
        </mxCell>
        <mxCell id="wEDj9y5ge6KxLb9yTbvh-27" value="$$X_{d1}= D_{t2} \cdot W^d_{fl_1} + b^d_{fl_1}$$" style="rounded=1;whiteSpace=wrap;html=1;strokeColor=#FF6666;fontSize=24;fillColor=#FFFFFF;" vertex="1" parent="1">
          <mxGeometry x="3155" y="1718" width="602" height="60" as="geometry" />
        </mxCell>
        <mxCell id="wEDj9y5ge6KxLb9yTbvh-35" value="&lt;div&gt;&lt;span style=&quot;font-size: 25px;&quot;&gt;&lt;br&gt;&lt;/span&gt;&lt;/div&gt;&lt;div&gt;&lt;span style=&quot;font-size: 25px;&quot;&gt;$$\frac{\partial \text{Loss}}{\partial W_{fl1}} =&amp;nbsp; \frac{\partial \text{Loss}}{\partial FL_{d1}} \cdot \frac{\partial FL_{d1}}{\partial ReLu(X_{d1} )} \cdot \frac{\partial ReLu(X_{d1} )}{\partial X_{d1} } \cdot \frac{\partial X_{d1} }{\partial W_{fl1}}=&amp;nbsp; \begin{cases}&amp;nbsp; &amp;nbsp; &amp;nbsp;\frac{\partial \text{Loss}}{\partial FL_{d1}} \cdot D_{t2},&amp;nbsp; X_{d1} &amp;gt; 0 \\&amp;nbsp; &amp;nbsp; &amp;nbsp;0,&amp;nbsp; \text{otherwise}&amp;nbsp; &amp;nbsp; &amp;nbsp;\end{cases}$$&lt;/span&gt;&lt;br&gt;&lt;/div&gt;" style="rounded=1;whiteSpace=wrap;html=1;" vertex="1" parent="1">
          <mxGeometry x="5604.5" y="1993" width="1104" height="127" as="geometry" />
        </mxCell>
        <mxCell id="wEDj9y5ge6KxLb9yTbvh-36" value="&lt;div&gt;&lt;span style=&quot;font-size: 25px;&quot;&gt;&lt;br&gt;&lt;/span&gt;&lt;/div&gt;&lt;div&gt;&lt;span style=&quot;font-size: 25px;&quot;&gt;$$\frac{\partial \text{Loss}}{\partial b_{fl1}} =&amp;nbsp; &amp;nbsp;\frac{\partial \text{Loss}}{\partial FL_{d1}} \cdot \frac{\partial FL_{d1}}{\partial ReLu(X_{d1} )} \cdot \frac{\partial ReLu(X_{d1} )}{\partial X_{d1} } \cdot \frac{\partial X_{d1} }{\partial b_{fl1}}=&amp;nbsp; \begin{cases}&amp;nbsp; &amp;nbsp; &amp;nbsp;\frac{\partial \text{Loss}}{\partial FL_{d1}} \cdot 1,&amp;nbsp; X_{d1} &amp;gt; 0 \\&amp;nbsp; &amp;nbsp; &amp;nbsp;0,&amp;nbsp; \text{otherwise}&amp;nbsp; &amp;nbsp; &amp;nbsp;\end{cases} $$&lt;/span&gt;&lt;br&gt;&lt;/div&gt;" style="rounded=1;whiteSpace=wrap;html=1;" vertex="1" parent="1">
          <mxGeometry x="5594.5" y="2243" width="1104" height="127" as="geometry" />
        </mxCell>
        <mxCell id="wEDj9y5ge6KxLb9yTbvh-46" value="&lt;div&gt;&lt;span style=&quot;font-size: 25px;&quot;&gt;&lt;br&gt;&lt;/span&gt;&lt;/div&gt;&lt;div&gt;&lt;span style=&quot;font-size: 25px;&quot;&gt;$$\frac{\partial \text{Loss}}{\partial A_{cr}} =&amp;nbsp; \frac{\partial \text{Loss}}{\partial D_{t2}} \cdot&amp;nbsp; \frac{\partial D_{t2}}{\partial Norm(Res)} \cdot \frac{\partial Norm(Res)}{\partial Res} \cdot \frac{\partial&amp;nbsp; Res}{\partial A_{cr}}=\frac{\partial \text{Loss}}{\partial D_{t2}} \cdot&amp;nbsp; \left[(1-\frac{1}{N}) \frac{1}{\sqrt{\sigma^2_{(Res)}+\epsilon}}-\frac{1}{N}\frac{(Res-\mu_{(Res)})^2}{(\sigma^2_{(Res)}+\epsilon)^{3/2}}\right] $$&lt;/span&gt;&lt;br&gt;&lt;/div&gt;" style="rounded=1;whiteSpace=wrap;html=1;" vertex="1" parent="1">
          <mxGeometry x="5602" y="2672" width="1462.5" height="150" as="geometry" />
        </mxCell>
        <mxCell id="wEDj9y5ge6KxLb9yTbvh-78" style="edgeStyle=orthogonalEdgeStyle;rounded=0;orthogonalLoop=1;jettySize=auto;html=1;exitX=1;exitY=0.5;exitDx=0;exitDy=0;entryX=0.5;entryY=1;entryDx=0;entryDy=0;" edge="1" parent="1" source="wEDj9y5ge6KxLb9yTbvh-47" target="wEDj9y5ge6KxLb9yTbvh-76">
          <mxGeometry relative="1" as="geometry" />
        </mxCell>
        <mxCell id="wEDj9y5ge6KxLb9yTbvh-47" value="&lt;div&gt;&lt;span style=&quot;font-size: 25px;&quot;&gt;&lt;br&gt;&lt;/span&gt;&lt;/div&gt;&lt;div&gt;&lt;span style=&quot;font-size: 25px;&quot;&gt;$$\frac{\partial \text{Loss}}{\partial D^{qc}_{t1}} =&amp;nbsp; &amp;nbsp;\frac{\partial \text{Loss}}{\partial A_{cr}} \cdot&amp;nbsp; \frac{\partial A_{cr}}{\partial Q_{C}}\cdot \frac{\partial Q_{C}}{\partial D_{t1}}= \frac{\partial \text{Loss}}{\partial A_{cr}}\cdot \sigma\left(\frac{Q_{C} K_{C}^T}{\sqrt{d_k}}\right)\cdot \left[1-\sigma\left(\frac{Q_{C} K_{C}^T}{\sqrt{d_k}}\right)\right]\cdot \frac{K_{C}^T}{\sqrt{d_k}}\cdot V_C \cdot Q_{c}$$&lt;/span&gt;&lt;br&gt;&lt;/div&gt;" style="rounded=1;whiteSpace=wrap;html=1;" vertex="1" parent="1">
          <mxGeometry x="5645.5" y="4512.5" width="1277" height="127" as="geometry" />
        </mxCell>
        <mxCell id="wEDj9y5ge6KxLb9yTbvh-53" style="edgeStyle=orthogonalEdgeStyle;rounded=0;orthogonalLoop=1;jettySize=auto;html=1;exitX=1;exitY=0.5;exitDx=0;exitDy=0;entryX=0.5;entryY=0;entryDx=0;entryDy=0;" edge="1" parent="1" source="wEDj9y5ge6KxLb9yTbvh-50" target="wEDj9y5ge6KxLb9yTbvh-46">
          <mxGeometry relative="1" as="geometry">
            <Array as="points">
              <mxPoint x="7257.5" y="1055" />
              <mxPoint x="7257.5" y="2530" />
              <mxPoint x="6333.5" y="2530" />
            </Array>
          </mxGeometry>
        </mxCell>
        <mxCell id="wEDj9y5ge6KxLb9yTbvh-50" value="&lt;span style=&quot;font-size: 25px;&quot;&gt;&amp;nbsp;$$\frac{\partial \text{Loss}}{\partial D^{tot}_{t2}} = \sum{}{\frac{\partial \text{Loss}}{\partial D^{i}_{t2}}}$$&lt;/span&gt;" style="rounded=1;whiteSpace=wrap;html=1;" vertex="1" parent="1">
          <mxGeometry x="6878.5" y="981" width="301" height="147" as="geometry" />
        </mxCell>
        <mxCell id="wEDj9y5ge6KxLb9yTbvh-77" style="edgeStyle=orthogonalEdgeStyle;rounded=0;orthogonalLoop=1;jettySize=auto;html=1;exitX=1;exitY=0.5;exitDx=0;exitDy=0;entryX=0.5;entryY=0;entryDx=0;entryDy=0;" edge="1" parent="1" source="wEDj9y5ge6KxLb9yTbvh-54" target="wEDj9y5ge6KxLb9yTbvh-76">
          <mxGeometry relative="1" as="geometry" />
        </mxCell>
        <mxCell id="wEDj9y5ge6KxLb9yTbvh-54" value="&lt;div&gt;&lt;span style=&quot;font-size: 25px;&quot;&gt;&lt;br&gt;&lt;/span&gt;&lt;/div&gt;&lt;div&gt;&lt;span style=&quot;font-size: 25px;&quot;&gt;$$\frac{\partial \text{Loss}}{\partial D_{t1}} =&amp;nbsp; \frac{\partial \text{Loss}}{\partial D_{t2}} \cdot&amp;nbsp; \frac{\partial D_{t2}}{\partial Norm(Res)} \cdot \frac{\partial Norm(Res)}{\partial Res} \cdot \frac{\partial&amp;nbsp; Res}{\partial D_{t1}}=\frac{\partial \text{Loss}}{\partial D_{t2}} \cdot&amp;nbsp; \left[(1-\frac{1}{N}) \frac{1}{\sqrt{\sigma^2_{(Res)}+\epsilon}}-\frac{1}{N}\frac{(Res-\mu_{(Res)})^2}{(\sigma^2_{(Res)}+\epsilon)^{3/2}}\right] $$&lt;/span&gt;&lt;br&gt;&lt;/div&gt;" style="rounded=1;whiteSpace=wrap;html=1;" vertex="1" parent="1">
          <mxGeometry x="5599.5" y="2894" width="1462.5" height="150" as="geometry" />
        </mxCell>
        <mxCell id="wEDj9y5ge6KxLb9yTbvh-57" value="&lt;span style=&quot;font-size: 25px;&quot;&gt;$$\frac{\partial \text{Loss}}{\partial V_{c}} =&amp;nbsp; &amp;nbsp;\frac{\partial \text{Loss}}{\partial A_{cr}} \cdot&amp;nbsp; \frac{\partial A_{cr}}{\partial V_{C}}\cdot \frac{\partial V_{C}}{\partial V_{c}}= \frac{\partial \text{Loss}}{\partial A_{cr}}\cdot \sigma\left(\frac{Q_{C} K_{C}^T}{\sqrt{d_k}}\right) \cdot Ec_{out}$$&lt;/span&gt;" style="rounded=1;whiteSpace=wrap;html=1;" vertex="1" parent="1">
          <mxGeometry x="5642.5" y="3798" width="868" height="127" as="geometry" />
        </mxCell>
        <mxCell id="wEDj9y5ge6KxLb9yTbvh-58" value="&lt;div&gt;&lt;span style=&quot;font-size: 25px;&quot;&gt;$$\frac{\partial \text{Loss}}{\partial K_{c}} =&amp;nbsp; &amp;nbsp;\frac{\partial \text{Loss}}{\partial A_{cr}} \cdot&amp;nbsp; \frac{\partial A_{cr}}{\partial K_{C}}\cdot \frac{\partial K_{C}}{\partial K_{c}}= \frac{\partial \text{Loss}}{\partial A_{cr}}\cdot \sigma\left(\frac{Q_{C} K_{C}^T}{\sqrt{d_k}}\right)\cdot \left[1-\sigma\left(\frac{Q_{C} K_{C}^T}{\sqrt{d_k}}\right)\right]\cdot \frac{Q_{C}}{\sqrt{d_k}}\cdot V_C \cdot Ec_{out}$$&lt;/span&gt;&lt;br&gt;&lt;/div&gt;" style="rounded=1;whiteSpace=wrap;html=1;" vertex="1" parent="1">
          <mxGeometry x="5645.5" y="3576" width="1253" height="127" as="geometry" />
        </mxCell>
        <mxCell id="wEDj9y5ge6KxLb9yTbvh-59" value="&lt;div&gt;&lt;span style=&quot;font-size: 25px;&quot;&gt;&lt;br&gt;&lt;/span&gt;&lt;/div&gt;&lt;div&gt;&lt;span style=&quot;font-size: 25px;&quot;&gt;$$\frac{\partial \text{Loss}}{\partial Q_{c}} =&amp;nbsp; &amp;nbsp;\frac{\partial \text{Loss}}{\partial A_{cr}} \cdot&amp;nbsp; \frac{\partial A_{cr}}{\partial Q_{C}}\cdot \frac{\partial Q_{C}}{\partial Q_{c}}= \frac{\partial \text{Loss}}{\partial A_{cr}}\cdot \sigma\left(\frac{Q_{C} K_{C}^T}{\sqrt{d_k}}\right)\cdot \left[1-\sigma\left(\frac{Q_{C} K_{C}^T}{\sqrt{d_k}}\right)\right]\cdot \frac{K_{C}^T}{\sqrt{d_k}}\cdot V_C \cdot D_{t1}$$&lt;/span&gt;&lt;br&gt;&lt;/div&gt;" style="rounded=1;whiteSpace=wrap;html=1;" vertex="1" parent="1">
          <mxGeometry x="5645.5" y="3318" width="1232" height="127" as="geometry" />
        </mxCell>
        <mxCell id="wEDj9y5ge6KxLb9yTbvh-67" style="edgeStyle=orthogonalEdgeStyle;rounded=0;orthogonalLoop=1;jettySize=auto;html=1;exitX=0.5;exitY=0;exitDx=0;exitDy=0;entryX=0;entryY=0.5;entryDx=0;entryDy=0;" edge="1" parent="1" source="wEDj9y5ge6KxLb9yTbvh-65" target="e0o2W6mFJVZslNkPYuPA-356">
          <mxGeometry relative="1" as="geometry" />
        </mxCell>
        <mxCell id="wEDj9y5ge6KxLb9yTbvh-82" style="edgeStyle=orthogonalEdgeStyle;rounded=0;orthogonalLoop=1;jettySize=auto;html=1;exitX=0;exitY=0.5;exitDx=0;exitDy=0;" edge="1" parent="1" source="wEDj9y5ge6KxLb9yTbvh-65" target="wEDj9y5ge6KxLb9yTbvh-79">
          <mxGeometry relative="1" as="geometry" />
        </mxCell>
        <mxCell id="wEDj9y5ge6KxLb9yTbvh-65" value="&lt;div style=&quot;border-color: var(--border-color); font-size: 30px;&quot;&gt;&lt;font style=&quot;border-color: var(--border-color);&quot;&gt;$$V_C=Ec_{out}\cdot V_c$$&lt;/font&gt;&lt;/div&gt;" style="rounded=1;whiteSpace=wrap;html=1;strokeColor=#FF6666;fontSize=24;fillColor=#FFFFFF;" vertex="1" parent="1">
          <mxGeometry x="1585.5" y="5682.5" width="293" height="118" as="geometry" />
        </mxCell>
        <mxCell id="wEDj9y5ge6KxLb9yTbvh-66" style="edgeStyle=orthogonalEdgeStyle;rounded=0;orthogonalLoop=1;jettySize=auto;html=1;exitX=0.5;exitY=0;exitDx=0;exitDy=0;entryX=0.44;entryY=1.011;entryDx=0;entryDy=0;entryPerimeter=0;" edge="1" parent="1" source="e0o2W6mFJVZslNkPYuPA-332" target="wEDj9y5ge6KxLb9yTbvh-65">
          <mxGeometry relative="1" as="geometry" />
        </mxCell>
        <mxCell id="wEDj9y5ge6KxLb9yTbvh-71" style="edgeStyle=orthogonalEdgeStyle;rounded=0;orthogonalLoop=1;jettySize=auto;html=1;exitX=0.5;exitY=0;exitDx=0;exitDy=0;entryX=0;entryY=0.5;entryDx=0;entryDy=0;" edge="1" parent="1" source="wEDj9y5ge6KxLb9yTbvh-68" target="e0o2W6mFJVZslNkPYuPA-354">
          <mxGeometry relative="1" as="geometry" />
        </mxCell>
        <mxCell id="wEDj9y5ge6KxLb9yTbvh-266" style="edgeStyle=orthogonalEdgeStyle;rounded=0;orthogonalLoop=1;jettySize=auto;html=1;exitX=0;exitY=0.5;exitDx=0;exitDy=0;" edge="1" parent="1" source="wEDj9y5ge6KxLb9yTbvh-68" target="wEDj9y5ge6KxLb9yTbvh-80">
          <mxGeometry relative="1" as="geometry" />
        </mxCell>
        <mxCell id="wEDj9y5ge6KxLb9yTbvh-68" value="&lt;div style=&quot;border-color: var(--border-color); font-size: 30px;&quot;&gt;&lt;font style=&quot;border-color: var(--border-color);&quot;&gt;$$K_C=Ec_{out}\cdot K_c$$&lt;/font&gt;&lt;/div&gt;" style="rounded=1;whiteSpace=wrap;html=1;strokeColor=#FF6666;fontSize=24;fillColor=#FFFFFF;" vertex="1" parent="1">
          <mxGeometry x="2686" y="4995.5" width="293" height="118" as="geometry" />
        </mxCell>
        <mxCell id="wEDj9y5ge6KxLb9yTbvh-73" style="edgeStyle=orthogonalEdgeStyle;rounded=0;orthogonalLoop=1;jettySize=auto;html=1;exitX=0.5;exitY=0;exitDx=0;exitDy=0;entryX=1;entryY=0.5;entryDx=0;entryDy=0;" edge="1" parent="1" source="wEDj9y5ge6KxLb9yTbvh-69" target="e0o2W6mFJVZslNkPYuPA-354">
          <mxGeometry relative="1" as="geometry" />
        </mxCell>
        <mxCell id="wEDj9y5ge6KxLb9yTbvh-75" style="edgeStyle=orthogonalEdgeStyle;rounded=0;orthogonalLoop=1;jettySize=auto;html=1;exitX=1;exitY=0.5;exitDx=0;exitDy=0;entryX=0;entryY=0.5;entryDx=0;entryDy=0;" edge="1" parent="1" source="wEDj9y5ge6KxLb9yTbvh-69" target="wEDj9y5ge6KxLb9yTbvh-47">
          <mxGeometry relative="1" as="geometry" />
        </mxCell>
        <mxCell id="wEDj9y5ge6KxLb9yTbvh-69" value="&lt;div style=&quot;border-color: var(--border-color); font-size: 30px;&quot;&gt;&lt;font style=&quot;border-color: var(--border-color);&quot;&gt;$$Q_C=D_{t1}\cdot Q_c$$&lt;/font&gt;&lt;/div&gt;" style="rounded=1;whiteSpace=wrap;html=1;strokeColor=#FF6666;fontSize=24;fillColor=#FFFFFF;" vertex="1" parent="1">
          <mxGeometry x="4017" y="4517" width="293" height="118" as="geometry" />
        </mxCell>
        <mxCell id="wEDj9y5ge6KxLb9yTbvh-246" style="edgeStyle=orthogonalEdgeStyle;rounded=0;orthogonalLoop=1;jettySize=auto;html=1;exitX=1;exitY=0.5;exitDx=0;exitDy=0;entryX=1;entryY=0.5;entryDx=0;entryDy=0;" edge="1" parent="1" source="wEDj9y5ge6KxLb9yTbvh-76" target="wEDj9y5ge6KxLb9yTbvh-88">
          <mxGeometry relative="1" as="geometry">
            <Array as="points">
              <mxPoint x="7354.5" y="3818" />
              <mxPoint x="7453.5" y="3818" />
              <mxPoint x="7453.5" y="5093" />
            </Array>
          </mxGeometry>
        </mxCell>
        <mxCell id="wEDj9y5ge6KxLb9yTbvh-267" style="edgeStyle=orthogonalEdgeStyle;rounded=0;orthogonalLoop=1;jettySize=auto;html=1;exitX=1;exitY=0.5;exitDx=0;exitDy=0;entryX=0.5;entryY=0;entryDx=0;entryDy=0;" edge="1" parent="1" source="wEDj9y5ge6KxLb9yTbvh-76" target="wEDj9y5ge6KxLb9yTbvh-94">
          <mxGeometry relative="1" as="geometry">
            <Array as="points">
              <mxPoint x="7375" y="3808" />
              <mxPoint x="7375" y="5361" />
              <mxPoint x="6043" y="5361" />
            </Array>
          </mxGeometry>
        </mxCell>
        <mxCell id="wEDj9y5ge6KxLb9yTbvh-76" value="&lt;span style=&quot;font-size: 25px;&quot;&gt;$$\frac{\partial \text{Loss}}{\partial D^{tot}_{t1}} = \sum{}{\frac{\partial \text{Loss}}{\partial D^{i}_{t1}}}$$&lt;/span&gt;" style="rounded=1;whiteSpace=wrap;html=1;" vertex="1" parent="1">
          <mxGeometry x="7053.5" y="3735" width="301" height="147" as="geometry" />
        </mxCell>
        <mxCell id="wEDj9y5ge6KxLb9yTbvh-244" style="edgeStyle=orthogonalEdgeStyle;rounded=0;orthogonalLoop=1;jettySize=auto;html=1;exitX=0;exitY=0.5;exitDx=0;exitDy=0;entryX=0.5;entryY=1;entryDx=0;entryDy=0;" edge="1" parent="1" source="wEDj9y5ge6KxLb9yTbvh-79" target="wEDj9y5ge6KxLb9yTbvh-83">
          <mxGeometry relative="1" as="geometry" />
        </mxCell>
        <mxCell id="wEDj9y5ge6KxLb9yTbvh-79" value="&lt;div&gt;&lt;span style=&quot;font-size: 25px;&quot;&gt;&lt;br&gt;&lt;/span&gt;&lt;/div&gt;&lt;div&gt;&lt;span style=&quot;font-size: 25px;&quot;&gt;$$\frac{\partial \text{Loss}}{\partial Ec^V_{cout}} = \frac{\partial Loss}{\partial V_{C}}\cdot \frac{\partial V_{C}}{\partial Ec_{cout}}= \frac{\partial \text{Loss}}{\partial V_{C}} \cdot V_c$$&lt;/span&gt;&lt;br&gt;&lt;/div&gt;" style="rounded=1;whiteSpace=wrap;html=1;" vertex="1" parent="1">
          <mxGeometry x="-690.5" y="5677" width="636.02" height="127" as="geometry" />
        </mxCell>
        <mxCell id="wEDj9y5ge6KxLb9yTbvh-255" style="edgeStyle=orthogonalEdgeStyle;rounded=0;orthogonalLoop=1;jettySize=auto;html=1;exitX=0;exitY=0.5;exitDx=0;exitDy=0;entryX=0.5;entryY=0;entryDx=0;entryDy=0;" edge="1" parent="1" source="wEDj9y5ge6KxLb9yTbvh-80" target="wEDj9y5ge6KxLb9yTbvh-83">
          <mxGeometry relative="1" as="geometry" />
        </mxCell>
        <mxCell id="wEDj9y5ge6KxLb9yTbvh-80" value="&lt;div&gt;&lt;span style=&quot;font-size: 25px; background-color: initial;&quot;&gt;&lt;br&gt;&lt;/span&gt;&lt;/div&gt;&lt;div&gt;&lt;span style=&quot;font-size: 25px; background-color: initial;&quot;&gt;$$\frac{\partial \text{Loss}}{\partial Ec^K_{cout}} =&amp;nbsp; &amp;nbsp;\frac{\partial \text{Loss}}{\partial K_{C}} \cdot&amp;nbsp; \frac{\partial K_{C}}{\partial Ec_{cout}}= \frac{\partial \text{Loss}}{\partial K_{C}}&amp;nbsp; \cdot K_c$$&lt;/span&gt;&lt;br&gt;&lt;/div&gt;" style="rounded=1;whiteSpace=wrap;html=1;" vertex="1" parent="1">
          <mxGeometry x="-674" y="4987" width="619.52" height="127" as="geometry" />
        </mxCell>
        <mxCell id="wEDj9y5ge6KxLb9yTbvh-245" style="edgeStyle=orthogonalEdgeStyle;rounded=0;orthogonalLoop=1;jettySize=auto;html=1;exitX=0;exitY=0.5;exitDx=0;exitDy=0;entryX=0.25;entryY=0;entryDx=0;entryDy=0;" edge="1" parent="1" source="wEDj9y5ge6KxLb9yTbvh-83" target="wEDj9y5ge6KxLb9yTbvh-139">
          <mxGeometry relative="1" as="geometry" />
        </mxCell>
        <mxCell id="wEDj9y5ge6KxLb9yTbvh-83" value="&lt;div style=&quot;border-color: var(--border-color);&quot;&gt;&lt;span style=&quot;font-size: 25px;&quot;&gt;&lt;br&gt;&lt;/span&gt;&lt;/div&gt;&lt;div style=&quot;border-color: var(--border-color);&quot;&gt;&lt;span style=&quot;font-size: 25px;&quot;&gt;$$\frac{\partial \text{Loss}}{\partial Ec^{tot}_{cout}}=\frac{\partial \text{Loss}}{\partial Ec^K_{cout}}+\frac{\partial \text{Loss}}{\partial Ec^V_{cout}}$$&lt;/span&gt;&lt;br&gt;&lt;/div&gt;" style="rounded=1;whiteSpace=wrap;html=1;strokeColor=#FF6666;fontSize=24;fillColor=#FFFFFF;" vertex="1" parent="1">
          <mxGeometry x="-1240" y="5339" width="415" height="118" as="geometry" />
        </mxCell>
        <mxCell id="wEDj9y5ge6KxLb9yTbvh-88" value="&lt;span style=&quot;font-size: 25px;&quot;&gt;$$\frac{\partial \text{Loss}}{\partial A_{mask}} =&amp;nbsp; &amp;nbsp;\frac{\partial \text{Loss}}{\partial D_{t1}}\cdot \frac{\partial D_{t1}}{\partial Norm(X_d)}\cdot \frac{\partial Norm(X_d)}{\partial A_{mask}}=\frac{\partial \text{Loss}}{\partial D_{t1}}\cdot \left[(1-\frac{1}{N}) \frac{1}{\sqrt{\sigma^2_{(X_d)}+\epsilon}}-\frac{1}{N}\frac{(X_d-\mu_{(X_d)})^2}{(\sigma^2_{(X_d)}+\epsilon)^{3/2}}\right]$$&lt;/span&gt;" style="rounded=1;whiteSpace=wrap;html=1;" vertex="1" parent="1">
          <mxGeometry x="5666.5" y="5008" width="1333.5" height="170" as="geometry" />
        </mxCell>
        <mxCell id="wEDj9y5ge6KxLb9yTbvh-130" style="edgeStyle=orthogonalEdgeStyle;rounded=0;orthogonalLoop=1;jettySize=auto;html=1;exitX=1;exitY=0.5;exitDx=0;exitDy=0;entryX=0.5;entryY=0;entryDx=0;entryDy=0;" edge="1" parent="1" source="wEDj9y5ge6KxLb9yTbvh-94" target="wEDj9y5ge6KxLb9yTbvh-126">
          <mxGeometry relative="1" as="geometry" />
        </mxCell>
        <mxCell id="wEDj9y5ge6KxLb9yTbvh-94" value="&lt;span style=&quot;font-size: 25px;&quot;&gt;$$\frac{\partial \text{Loss}}{\partial input^d_{dt1}} =&amp;nbsp; &amp;nbsp;\frac{\partial \text{Loss}}{\partial D_{t1}}\cdot \frac{\partial D_{t1}}{\partial Norm(X_d)}\cdot \frac{\partial Norm(X_d)}{\partial input^d}$$&lt;/span&gt;" style="rounded=1;whiteSpace=wrap;html=1;" vertex="1" parent="1">
          <mxGeometry x="5671.5" y="5476" width="743" height="170" as="geometry" />
        </mxCell>
        <mxCell id="wEDj9y5ge6KxLb9yTbvh-96" value="&lt;div&gt;&lt;span style=&quot;font-size: 25px;&quot;&gt;&lt;br&gt;&lt;/span&gt;&lt;/div&gt;&lt;div&gt;&lt;span style=&quot;font-size: 25px;&quot;&gt;$$\frac{\partial \text{Loss}}{\partial Q_{d}} =&amp;nbsp; &amp;nbsp;\frac{\partial \text{Loss}}{\partial A_{mask}}\cdot \frac{\partial A_{mask}}{\partial Q_{D}} \cdot \frac{\partial Q_{D}}{\partial Q_{d}}= \frac{\partial \text{Loss}}{\partial A_{mask}} \cdot&amp;nbsp; \sigma( \frac{Q_{D} K_{D}^T}{\sqrt d_k}+Mask)\cdot \left[1-\sigma( \frac{Q_{D} K_{D}^T}{\sqrt d_k}+Mask)\right]\cdot&amp;nbsp; \frac{ K_{D}^T}{\sqrt d_k} \cdot V_{D} \cdot Input^d$$&lt;/span&gt;&lt;br&gt;&lt;/div&gt;" style="rounded=1;whiteSpace=wrap;html=1;" vertex="1" parent="1">
          <mxGeometry x="5704.5" y="5922" width="1499.5" height="127" as="geometry" />
        </mxCell>
        <mxCell id="wEDj9y5ge6KxLb9yTbvh-123" style="edgeStyle=orthogonalEdgeStyle;rounded=0;orthogonalLoop=1;jettySize=auto;html=1;exitX=1;exitY=0.5;exitDx=0;exitDy=0;entryX=0;entryY=0.5;entryDx=0;entryDy=0;" edge="1" parent="1" source="wEDj9y5ge6KxLb9yTbvh-97" target="wEDj9y5ge6KxLb9yTbvh-122">
          <mxGeometry relative="1" as="geometry" />
        </mxCell>
        <mxCell id="wEDj9y5ge6KxLb9yTbvh-237" style="rounded=0;orthogonalLoop=1;jettySize=auto;html=1;exitX=0.5;exitY=0;exitDx=0;exitDy=0;entryX=0.5;entryY=1;entryDx=0;entryDy=0;" edge="1" parent="1" source="wEDj9y5ge6KxLb9yTbvh-97" target="e0o2W6mFJVZslNkPYuPA-285">
          <mxGeometry relative="1" as="geometry" />
        </mxCell>
        <mxCell id="wEDj9y5ge6KxLb9yTbvh-97" value="&lt;div style=&quot;border-color: var(--border-color); font-size: 30px;&quot;&gt;&lt;font style=&quot;border-color: var(--border-color);&quot;&gt;$$V_D=input^d\cdot V_d$$&lt;/font&gt;&lt;/div&gt;" style="rounded=1;whiteSpace=wrap;html=1;strokeColor=#FF6666;fontSize=24;fillColor=#FFFFFF;" vertex="1" parent="1">
          <mxGeometry x="4791.5" y="7113" width="293" height="118" as="geometry" />
        </mxCell>
        <mxCell id="wEDj9y5ge6KxLb9yTbvh-102" style="edgeStyle=orthogonalEdgeStyle;rounded=0;orthogonalLoop=1;jettySize=auto;html=1;exitX=0.5;exitY=0;exitDx=0;exitDy=0;entryX=1;entryY=0.5;entryDx=0;entryDy=0;" edge="1" parent="1" source="wEDj9y5ge6KxLb9yTbvh-98" target="e0o2W6mFJVZslNkPYuPA-283">
          <mxGeometry relative="1" as="geometry">
            <mxPoint x="4236.500000000002" y="6369" as="targetPoint" />
          </mxGeometry>
        </mxCell>
        <mxCell id="wEDj9y5ge6KxLb9yTbvh-227" style="edgeStyle=orthogonalEdgeStyle;rounded=0;orthogonalLoop=1;jettySize=auto;html=1;exitX=1;exitY=0.5;exitDx=0;exitDy=0;" edge="1" parent="1" source="wEDj9y5ge6KxLb9yTbvh-98" target="wEDj9y5ge6KxLb9yTbvh-120">
          <mxGeometry relative="1" as="geometry" />
        </mxCell>
        <mxCell id="wEDj9y5ge6KxLb9yTbvh-98" value="&lt;div style=&quot;border-color: var(--border-color); font-size: 30px;&quot;&gt;&lt;font style=&quot;border-color: var(--border-color);&quot;&gt;$$Q_D=input^d\cdot Q_d$$&lt;/font&gt;&lt;/div&gt;" style="rounded=1;whiteSpace=wrap;html=1;strokeColor=#FF6666;fontSize=24;fillColor=#FFFFFF;" vertex="1" parent="1">
          <mxGeometry x="4363.5" y="7557" width="293" height="118" as="geometry" />
        </mxCell>
        <mxCell id="wEDj9y5ge6KxLb9yTbvh-226" style="edgeStyle=orthogonalEdgeStyle;rounded=0;orthogonalLoop=1;jettySize=auto;html=1;exitX=1;exitY=0.5;exitDx=0;exitDy=0;entryX=0;entryY=0.5;entryDx=0;entryDy=0;" edge="1" parent="1" source="wEDj9y5ge6KxLb9yTbvh-100" target="wEDj9y5ge6KxLb9yTbvh-113">
          <mxGeometry relative="1" as="geometry" />
        </mxCell>
        <mxCell id="wEDj9y5ge6KxLb9yTbvh-231" style="edgeStyle=orthogonalEdgeStyle;rounded=0;orthogonalLoop=1;jettySize=auto;html=1;exitX=0.5;exitY=0;exitDx=0;exitDy=0;entryX=0;entryY=0.5;entryDx=0;entryDy=0;" edge="1" parent="1" source="wEDj9y5ge6KxLb9yTbvh-100" target="e0o2W6mFJVZslNkPYuPA-283">
          <mxGeometry relative="1" as="geometry" />
        </mxCell>
        <mxCell id="wEDj9y5ge6KxLb9yTbvh-100" value="&lt;div style=&quot;border-color: var(--border-color); font-size: 30px;&quot;&gt;&lt;font style=&quot;border-color: var(--border-color);&quot;&gt;$$K_D=input^d\cdot K_d$$&lt;/font&gt;&lt;/div&gt;" style="rounded=1;whiteSpace=wrap;html=1;strokeColor=#FF6666;fontSize=24;fillColor=#FFFFFF;" vertex="1" parent="1">
          <mxGeometry x="3816.5" y="7991" width="293" height="118" as="geometry" />
        </mxCell>
        <mxCell id="wEDj9y5ge6KxLb9yTbvh-106" value="&lt;div&gt;&lt;span style=&quot;font-size: 25px;&quot;&gt;&lt;br&gt;&lt;/span&gt;&lt;/div&gt;&lt;div&gt;&lt;span style=&quot;font-size: 25px;&quot;&gt;$$\frac{\partial \text{Loss}}{\partial K_{d}} =&amp;nbsp; &amp;nbsp;\frac{\partial \text{Loss}}{\partial A_{mask}}\cdot \frac{\partial A_{mask}}{\partial K_{D}} \cdot \frac{\partial K_{D}}{\partial K_{d}}= \frac{\partial \text{Loss}}{\partial A_{mask}} \cdot&amp;nbsp; \sigma( \frac{Q_{D} K_{D}^T}{\sqrt d_k}+Mask)\cdot \left[1-\sigma( \frac{Q_{D} K_{D}^T}{\sqrt d_k}+Mask)\right]\cdot&amp;nbsp; \frac{ Q_{D}}{\sqrt d_k} \cdot V_{D} \cdot Input^d$$&lt;/span&gt;&lt;br&gt;&lt;/div&gt;" style="rounded=1;whiteSpace=wrap;html=1;" vertex="1" parent="1">
          <mxGeometry x="5707.5" y="6179" width="1499.5" height="127" as="geometry" />
        </mxCell>
        <mxCell id="wEDj9y5ge6KxLb9yTbvh-107" value="&lt;div&gt;&lt;span style=&quot;font-size: 25px;&quot;&gt;&lt;br&gt;&lt;/span&gt;&lt;/div&gt;&lt;div&gt;&lt;span style=&quot;font-size: 25px;&quot;&gt;$$\frac{\partial \text{Loss}}{\partial V_{d}} =&amp;nbsp; \frac{\partial \text{Loss}}{\partial A_{mask}}\cdot \frac{\partial A_{mask}}{\partial V_{D}} \cdot \frac{\partial V_{D}}{\partial V_{d}}= \frac{\partial \text{Loss}}{\partial A_{mask}} \cdot&amp;nbsp; \sigma( \frac{Q_{D} K_{D}^T}{\sqrt d_k}+Mask)\cdot Input^d$$&lt;/span&gt;&lt;br&gt;&lt;/div&gt;" style="rounded=1;whiteSpace=wrap;html=1;" vertex="1" parent="1">
          <mxGeometry x="5718.5" y="6537.5" width="1079.5" height="143" as="geometry" />
        </mxCell>
        <mxCell id="wEDj9y5ge6KxLb9yTbvh-240" style="rounded=0;orthogonalLoop=1;jettySize=auto;html=1;exitX=1;exitY=0.5;exitDx=0;exitDy=0;entryX=0;entryY=0.5;entryDx=0;entryDy=0;" edge="1" parent="1" source="wEDj9y5ge6KxLb9yTbvh-113" target="wEDj9y5ge6KxLb9yTbvh-126">
          <mxGeometry relative="1" as="geometry" />
        </mxCell>
        <mxCell id="wEDj9y5ge6KxLb9yTbvh-113" value="&lt;div&gt;&lt;span style=&quot;font-size: 25px; background-color: initial;&quot;&gt;&lt;br&gt;&lt;/span&gt;&lt;/div&gt;&lt;div&gt;&lt;span style=&quot;font-size: 25px; background-color: initial;&quot;&gt;$$\frac{\partial \text{Loss}}{\partial input^k_d} =&amp;nbsp; &amp;nbsp;\frac{\partial \text{Loss}}{\partial K_{D}}\cdot \frac{\partial K_{D}}{\partial input^k_d} = \frac{\partial \text{Loss}}{\partial K_{D}} K_d$$&lt;/span&gt;&lt;br&gt;&lt;/div&gt;" style="rounded=1;whiteSpace=wrap;html=1;" vertex="1" parent="1">
          <mxGeometry x="5714.5" y="7981" width="668" height="143" as="geometry" />
        </mxCell>
        <mxCell id="wEDj9y5ge6KxLb9yTbvh-242" style="rounded=0;orthogonalLoop=1;jettySize=auto;html=1;exitX=1;exitY=0.5;exitDx=0;exitDy=0;" edge="1" parent="1" source="wEDj9y5ge6KxLb9yTbvh-120" target="wEDj9y5ge6KxLb9yTbvh-126">
          <mxGeometry relative="1" as="geometry" />
        </mxCell>
        <mxCell id="wEDj9y5ge6KxLb9yTbvh-120" value="&lt;div&gt;&lt;span style=&quot;font-size: 25px;&quot;&gt;&lt;br&gt;&lt;/span&gt;&lt;/div&gt;&lt;div&gt;&lt;span style=&quot;font-size: 25px;&quot;&gt;$$\frac{\partial \text{Loss}}{\partial input^q_d} =&amp;nbsp; &amp;nbsp;\frac{\partial \text{Loss}}{\partial Q_{D}}\cdot \frac{\partial Q_{D}}{\partial input^q_d} = \frac{\partial \text{Loss}}{\partial Q_{D}} \cdot Q_d$$&lt;/span&gt;&lt;br&gt;&lt;/div&gt;" style="rounded=1;whiteSpace=wrap;html=1;" vertex="1" parent="1">
          <mxGeometry x="5714.5" y="7544.5" width="660" height="143" as="geometry" />
        </mxCell>
        <mxCell id="wEDj9y5ge6KxLb9yTbvh-127" style="rounded=0;orthogonalLoop=1;jettySize=auto;html=1;exitX=1;exitY=0.5;exitDx=0;exitDy=0;entryX=0;entryY=0.5;entryDx=0;entryDy=0;" edge="1" parent="1" source="wEDj9y5ge6KxLb9yTbvh-122" target="wEDj9y5ge6KxLb9yTbvh-126">
          <mxGeometry relative="1" as="geometry" />
        </mxCell>
        <mxCell id="wEDj9y5ge6KxLb9yTbvh-122" value="&lt;div&gt;&lt;span style=&quot;font-size: 25px; background-color: initial;&quot;&gt;&lt;br&gt;&lt;/span&gt;&lt;/div&gt;&lt;div&gt;&lt;span style=&quot;font-size: 25px; background-color: initial;&quot;&gt;$$\frac{\partial \text{Loss}}{\partial input^v_d} =&amp;nbsp; \frac{\partial \text{Loss}}{\partial V_{D}} \cdot \frac{\partial V_{D}}{\partial input_d}= \frac{\partial \text{Loss}}{\partial V_{D}}\cdot V_d$$&lt;/span&gt;&lt;br&gt;&lt;/div&gt;" style="rounded=1;whiteSpace=wrap;html=1;" vertex="1" parent="1">
          <mxGeometry x="5704.5" y="7101.25" width="644" height="141.5" as="geometry" />
        </mxCell>
        <mxCell id="wEDj9y5ge6KxLb9yTbvh-254" style="edgeStyle=orthogonalEdgeStyle;rounded=0;orthogonalLoop=1;jettySize=auto;html=1;exitX=0.5;exitY=1;exitDx=0;exitDy=0;entryX=1;entryY=0.5;entryDx=0;entryDy=0;" edge="1" parent="1" source="wEDj9y5ge6KxLb9yTbvh-126" target="wEDj9y5ge6KxLb9yTbvh-131">
          <mxGeometry relative="1" as="geometry" />
        </mxCell>
        <mxCell id="wEDj9y5ge6KxLb9yTbvh-126" value="&lt;span style=&quot;font-size: 25px;&quot;&gt;$$\frac{\partial \text{Loss}}{\partial input^{tot}_{d}} = \sum{}{\frac{\partial \text{Loss}}{\partial input^{i}_{d}}}$$&lt;/span&gt;" style="rounded=1;whiteSpace=wrap;html=1;" vertex="1" parent="1">
          <mxGeometry x="7081.5" y="7544.5" width="383" height="147" as="geometry" />
        </mxCell>
        <mxCell id="wEDj9y5ge6KxLb9yTbvh-131" value="&lt;div&gt;&lt;span style=&quot;font-size: 25px;&quot;&gt;&lt;br&gt;&lt;/span&gt;&lt;/div&gt;&lt;div&gt;&lt;span style=&quot;font-size: 25px;&quot;&gt;$$\frac{\partial \text{Loss}}{\partial W_{emb}} =&amp;nbsp; \frac{\partial \text{Loss}}{\partial input_d} \cdot \frac{\partial input_d}{\partial W_{emb}}= \frac{\partial \text{Loss}}{\partial input_d} \cdot Input_d$$&lt;/span&gt;&lt;br&gt;&lt;/div&gt;" style="rounded=1;whiteSpace=wrap;html=1;" vertex="1" parent="1">
          <mxGeometry x="5779.12" y="8594" width="838" height="114" as="geometry" />
        </mxCell>
        <mxCell id="wEDj9y5ge6KxLb9yTbvh-146" style="edgeStyle=orthogonalEdgeStyle;rounded=0;orthogonalLoop=1;jettySize=auto;html=1;exitX=0.5;exitY=0;exitDx=0;exitDy=0;" edge="1" parent="1" source="wEDj9y5ge6KxLb9yTbvh-136" target="e0o2W6mFJVZslNkPYuPA-336">
          <mxGeometry relative="1" as="geometry" />
        </mxCell>
        <mxCell id="wEDj9y5ge6KxLb9yTbvh-136" value="$$X_{e2}=FL_{e2}+E_{ct1}$$" style="rounded=1;whiteSpace=wrap;html=1;strokeColor=#FF6666;fontSize=24;fillColor=#FFFFFF;" vertex="1" parent="1">
          <mxGeometry x="-548.4999999999999" y="7861" width="944" height="60" as="geometry" />
        </mxCell>
        <mxCell id="wEDj9y5ge6KxLb9yTbvh-139" value="&lt;div&gt;&lt;span style=&quot;font-size: 25px;&quot;&gt;&lt;br&gt;&lt;/span&gt;&lt;/div&gt;&lt;div&gt;&lt;span style=&quot;font-size: 25px;&quot;&gt;$$\frac{\partial \text{Loss}}{\partial FL_{e2}} =&amp;nbsp; &amp;nbsp;\frac{\partial \text{Loss}}{\partial Ec_{cout}}\cdot \frac{\partial Ec_{cout}}{\partial Norm(X_{e2})}\cdot \frac{\partial Norm(X_{e2})}{\partial FL_{e2}}= \frac{\partial \text{Loss}}{\partial Ec_{cout}}\cdot \left[(1-\frac{1}{N}) \frac{1}{\sqrt{\sigma^2_{(X_{e2})}+\epsilon}}-\frac{1}{N}\frac{(X_{e2}-\mu_{(X_{e2})})^2}{(\sigma^2_{(X_{e2})}+\epsilon)^{3/2}}\right]$$&lt;/span&gt;&lt;br&gt;&lt;/div&gt;" style="rounded=1;whiteSpace=wrap;html=1;" vertex="1" parent="1">
          <mxGeometry x="-2923" y="7356" width="1495" height="182" as="geometry" />
        </mxCell>
        <mxCell id="wEDj9y5ge6KxLb9yTbvh-223" style="edgeStyle=orthogonalEdgeStyle;rounded=0;orthogonalLoop=1;jettySize=auto;html=1;exitX=0;exitY=0.5;exitDx=0;exitDy=0;entryX=0.5;entryY=0;entryDx=0;entryDy=0;" edge="1" parent="1" source="wEDj9y5ge6KxLb9yTbvh-142" target="wEDj9y5ge6KxLb9yTbvh-167">
          <mxGeometry relative="1" as="geometry" />
        </mxCell>
        <mxCell id="wEDj9y5ge6KxLb9yTbvh-142" value="&lt;div&gt;&lt;span style=&quot;font-size: 25px;&quot;&gt;&lt;br&gt;&lt;/span&gt;&lt;/div&gt;&lt;div&gt;&lt;span style=&quot;font-size: 25px;&quot;&gt;$$\frac{\partial \text{Loss}}{\partial E^{e2}c_{t1}} =&amp;nbsp; \frac{\partial \text{Loss}}{\partial Ec_{cout}}\cdot \frac{\partial Ec_{cout}}{\partial Norm(X_{e2})}\cdot \frac{\partial Norm(X_{e2})}{\partial Ec_{t1}}= \frac{\partial \text{Loss}}{\partial Ec_{cout}}\cdot \left[(1-\frac{1}{N}) \frac{1}{\sqrt{\sigma^2_{(X_{e2})}+\epsilon}}-\frac{1}{N}\frac{(X_{e2}-\mu_{(X_{e2})})^2}{(\sigma^2_{(X_{e2})}+\epsilon)^{3/2}}\right] $$&lt;/span&gt;&lt;br&gt;&lt;/div&gt;" style="rounded=1;whiteSpace=wrap;html=1;" vertex="1" parent="1">
          <mxGeometry x="-2930" y="7727" width="1495" height="182" as="geometry" />
        </mxCell>
        <mxCell id="wEDj9y5ge6KxLb9yTbvh-147" value="&lt;div&gt;&lt;span style=&quot;font-size: 25px;&quot;&gt;&lt;br&gt;&lt;/span&gt;&lt;/div&gt;&lt;div&gt;&lt;span style=&quot;font-size: 25px;&quot;&gt;$$\frac{\partial \text{Loss}}{\partial W^e_{fl2}} =&amp;nbsp; &amp;nbsp;\frac{\partial \text{Loss}}{\partial FL_{e2}}\cdot \frac{\partial FL_{e2}}{\partial W^e_{fl2}}= \frac{\partial \text{Loss}}{\partial FL_{e2}}\cdot Fl_{e1}$$&lt;/span&gt;&lt;br&gt;&lt;/div&gt;" style="rounded=1;whiteSpace=wrap;html=1;" vertex="1" parent="1">
          <mxGeometry x="-2078" y="8383" width="639" height="182" as="geometry" />
        </mxCell>
        <mxCell id="wEDj9y5ge6KxLb9yTbvh-149" value="&lt;div&gt;&lt;span style=&quot;font-size: 25px;&quot;&gt;&lt;br&gt;&lt;/span&gt;&lt;/div&gt;&lt;div&gt;&lt;span style=&quot;font-size: 25px;&quot;&gt;$$\frac{\partial \text{Loss}}{\partial b^e_{fl2}} =&amp;nbsp; &amp;nbsp;\frac{\partial \text{Loss}}{\partial FL_{e2}}\cdot \frac{\partial FL_{e2}}{\partial b^e_{fl2}}= \frac{\partial \text{Loss}}{\partial FL_{e2}}\cdot 1$$&lt;/span&gt;&lt;br&gt;&lt;/div&gt;" style="rounded=1;whiteSpace=wrap;html=1;" vertex="1" parent="1">
          <mxGeometry x="-2078" y="8638" width="639" height="151" as="geometry" />
        </mxCell>
        <mxCell id="wEDj9y5ge6KxLb9yTbvh-152" value="&lt;div&gt;&lt;span style=&quot;font-size: 25px;&quot;&gt;&lt;br&gt;&lt;/span&gt;&lt;/div&gt;&lt;div&gt;&lt;span style=&quot;font-size: 25px;&quot;&gt;$$\frac{\partial \text{Loss}}{\partial W^e_{fl1}} =&amp;nbsp; \frac{\partial \text{Loss}}{\partial FL_{e1}} \cdot \frac{\partial FL_{e1}}{\partial ReLu(X_{e1})} \cdot \frac{\partial ReLu(X_{e1})}{\partial (X_{e1})} \cdot \frac{\partial (X_{e1})}{\partial W^e_{fl1}}= \begin{cases} \frac{\partial \text{Loss}}{\partial FL_{e1}} \cdot Ec_{t1},&amp;nbsp; &amp;nbsp;X_{e1} &amp;gt; 0 \\ 0,&amp;nbsp; \text{otherwise} \end{cases}$$&lt;/span&gt;&lt;br&gt;&lt;/div&gt;" style="rounded=1;whiteSpace=wrap;html=1;" vertex="1" parent="1">
          <mxGeometry x="-2680" y="9339" width="1241" height="182" as="geometry" />
        </mxCell>
        <mxCell id="wEDj9y5ge6KxLb9yTbvh-154" value="&lt;div&gt;&lt;span style=&quot;font-size: 25px;&quot;&gt;&lt;br&gt;&lt;/span&gt;&lt;/div&gt;&lt;div&gt;&lt;span style=&quot;font-size: 25px;&quot;&gt;$$\frac{\partial \text{Loss}}{\partial FL_{e1}} =&amp;nbsp; \frac{\partial \text{Loss}}{\partial FL_{e2}}\cdot \frac{\partial FL_{e2}}{\partial FL_{e1}}= \frac{\partial \text{Loss}}{\partial Fl_{e2}}\cdot W^e_{fl2}$$&lt;/span&gt;&lt;br&gt;&lt;/div&gt;" style="rounded=1;whiteSpace=wrap;html=1;" vertex="1" parent="1">
          <mxGeometry x="-2074" y="8013" width="639" height="182" as="geometry" />
        </mxCell>
        <mxCell id="wEDj9y5ge6KxLb9yTbvh-168" style="edgeStyle=orthogonalEdgeStyle;rounded=0;orthogonalLoop=1;jettySize=auto;html=1;exitX=0;exitY=0.5;exitDx=0;exitDy=0;" edge="1" parent="1" source="wEDj9y5ge6KxLb9yTbvh-156" target="wEDj9y5ge6KxLb9yTbvh-167">
          <mxGeometry relative="1" as="geometry" />
        </mxCell>
        <mxCell id="wEDj9y5ge6KxLb9yTbvh-156" value="&lt;div&gt;&lt;span style=&quot;font-size: 25px;&quot;&gt;$$\frac{\partial \text{Loss}}{\partial E_{ct1}} =&amp;nbsp; &amp;nbsp;\frac{\partial \text{Loss}}{\partial FL_{e1}} \cdot \frac{\partial FL_{e1}}{\partial ReLu(X_{e1})} \cdot \frac{\partial ReLu(X_{e1})}{\partial X_{e1}} \cdot \frac{\partial X_{e1}}{\partial Ec_{t1}}= \begin{cases} \frac{\partial \text{Loss}}{\partial FL_{e1}} \cdot W^e_{fl_1},&amp;nbsp; &amp;nbsp;X_{e1} &amp;gt; 0 \\ 0,&amp;nbsp; \text{otherwise} \end{cases}$$&lt;/span&gt;&lt;br&gt;&lt;/div&gt;" style="rounded=1;whiteSpace=wrap;html=1;" vertex="1" parent="1">
          <mxGeometry x="-2582" y="8942" width="1143" height="182" as="geometry" />
        </mxCell>
        <mxCell id="wEDj9y5ge6KxLb9yTbvh-160" style="edgeStyle=orthogonalEdgeStyle;rounded=0;orthogonalLoop=1;jettySize=auto;html=1;exitX=0.5;exitY=0;exitDx=0;exitDy=0;entryX=0.5;entryY=1;entryDx=0;entryDy=0;" edge="1" parent="1" source="wEDj9y5ge6KxLb9yTbvh-158" target="e0o2W6mFJVZslNkPYuPA-306">
          <mxGeometry relative="1" as="geometry" />
        </mxCell>
        <mxCell id="wEDj9y5ge6KxLb9yTbvh-158" value="$$X_{e1}=Ec_{t1}\cdot W^e_{fl_1}+b^e_{fl_1}$$" style="rounded=1;whiteSpace=wrap;html=1;strokeColor=#FF6666;fontSize=24;fillColor=#FFFFFF;" vertex="1" parent="1">
          <mxGeometry x="-377.4999999999998" y="9172" width="602" height="60" as="geometry" />
        </mxCell>
        <mxCell id="wEDj9y5ge6KxLb9yTbvh-161" value="&lt;div&gt;&lt;span style=&quot;font-size: 25px;&quot;&gt;&lt;br&gt;&lt;/span&gt;&lt;/div&gt;&lt;div&gt;&lt;span style=&quot;font-size: 25px;&quot;&gt;$$\frac{\partial \text{Loss}}{\partial b^e_{fl1}} =&amp;nbsp; &amp;nbsp;\frac{\partial \text{Loss}}{\partial FL_{e1}} \cdot \frac{\partial FL_{e1}}{\partial ReLu(X_{e1})} \cdot \frac{\partial ReLu(X_{e1})}{\partial (X_{e1})} \cdot \frac{\partial (X_{e1})}{\partial b^e_{fl1}}= \begin{cases} \frac{\partial \text{Loss}}{\partial FL_{e1}} \cdot1,&amp;nbsp; &amp;nbsp;X_{e1} &amp;gt; 0 \\ 0,&amp;nbsp; \text{otherwise} \end{cases}$$&lt;/span&gt;&lt;br&gt;&lt;/div&gt;" style="rounded=1;whiteSpace=wrap;html=1;" vertex="1" parent="1">
          <mxGeometry x="-2536" y="9693" width="1097" height="182" as="geometry" />
        </mxCell>
        <mxCell id="wEDj9y5ge6KxLb9yTbvh-164" value="&lt;div&gt;&lt;span style=&quot;font-size: 25px;&quot;&gt;&lt;br&gt;&lt;/span&gt;&lt;/div&gt;&lt;div&gt;&lt;span style=&quot;font-size: 25px;&quot;&gt;$$\frac{\partial \text{Loss}}{\partial A_{e}} =&amp;nbsp; &amp;nbsp;\frac{\partial \text{Loss}}{\partial Ec_{t1}} \cdot&amp;nbsp; \frac{\partial Ec_{t1}}{\partial Norm(X_{e})} \cdot&amp;nbsp; \frac{\partial Norm(X_{e})}{\partial A_{e}}= \frac{\partial \text{Loss}}{\partial E_{ct1}}\cdot&amp;nbsp; \left[(1-\frac{1}{N}) \frac{1}{\sqrt{\sigma^2_{(X_{e})}+\epsilon}}-\frac{1}{N}\frac{(X_{e}-\mu_{(X_{e})})^2}{(\sigma^2_{(X_{e})}+\epsilon)^{3/2}}\right] $$&lt;/span&gt;&lt;br&gt;&lt;/div&gt;" style="rounded=1;whiteSpace=wrap;html=1;" vertex="1" parent="1">
          <mxGeometry x="-2844" y="10151" width="1405" height="182" as="geometry" />
        </mxCell>
        <mxCell id="wEDj9y5ge6KxLb9yTbvh-224" style="edgeStyle=orthogonalEdgeStyle;rounded=0;orthogonalLoop=1;jettySize=auto;html=1;exitX=0.5;exitY=1;exitDx=0;exitDy=0;entryX=0.5;entryY=0;entryDx=0;entryDy=0;" edge="1" parent="1" source="wEDj9y5ge6KxLb9yTbvh-167" target="wEDj9y5ge6KxLb9yTbvh-164">
          <mxGeometry relative="1" as="geometry">
            <Array as="points">
              <mxPoint x="-3120" y="10045" />
              <mxPoint x="-2142" y="10045" />
            </Array>
          </mxGeometry>
        </mxCell>
        <mxCell id="wEDj9y5ge6KxLb9yTbvh-167" value="&lt;span style=&quot;font-size: 25px;&quot;&gt;$$\frac{\partial \text{Loss}}{\partial E^{tot}_{ct1}} = \sum{}{\frac{\partial \text{Loss}}{\partial E^{i}_{ct1}}}$$&lt;/span&gt;" style="rounded=1;whiteSpace=wrap;html=1;" vertex="1" parent="1">
          <mxGeometry x="-3270" y="8959.5" width="301" height="147" as="geometry" />
        </mxCell>
        <mxCell id="wEDj9y5ge6KxLb9yTbvh-196" style="edgeStyle=orthogonalEdgeStyle;rounded=0;orthogonalLoop=1;jettySize=auto;html=1;exitX=0;exitY=0.5;exitDx=0;exitDy=0;entryX=0.25;entryY=0;entryDx=0;entryDy=0;" edge="1" parent="1" source="wEDj9y5ge6KxLb9yTbvh-170" target="wEDj9y5ge6KxLb9yTbvh-195">
          <mxGeometry relative="1" as="geometry" />
        </mxCell>
        <mxCell id="wEDj9y5ge6KxLb9yTbvh-170" value="&lt;div&gt;&lt;span style=&quot;font-size: 25px; background-color: initial;&quot;&gt;&lt;br&gt;&lt;/span&gt;&lt;/div&gt;&lt;div&gt;&lt;span style=&quot;font-size: 25px; background-color: initial;&quot;&gt;$$\frac{\partial \text{Loss}}{\partial Input^{e}_V} =&amp;nbsp; &amp;nbsp;\frac{\partial \text{Loss}}{\partial V_{E}} \cdot&amp;nbsp; \frac{\partial V_{E}}{\partial Input^{e}}= \frac{\partial \text{Loss}}{\partial V_{E}}\cdot V_e$$&lt;/span&gt;&lt;br&gt;&lt;/div&gt;" style="rounded=1;whiteSpace=wrap;html=1;" vertex="1" parent="1">
          <mxGeometry x="-2050" y="11966" width="642" height="166" as="geometry" />
        </mxCell>
        <mxCell id="wEDj9y5ge6KxLb9yTbvh-171" value="&lt;div&gt;&lt;span style=&quot;font-size: 25px;&quot;&gt;&lt;br&gt;&lt;/span&gt;&lt;/div&gt;&lt;div&gt;&lt;span style=&quot;font-size: 25px;&quot;&gt;$$\frac{\partial \text{Loss}}{\partial V_{e}} =&amp;nbsp; &amp;nbsp;\frac{\partial \text{Loss}}{\partial A_{e}} \cdot&amp;nbsp; \frac{\partial A_{e}}{\partial V_{E}}\cdot \frac{\partial V_{E}}{\partial V_{e}}= \frac{\partial \text{Loss}}{\partial A_{e}}\cdot \sigma\left(\frac{Q_{E} K_{E}^T}{\sqrt{d_k}}\right) \cdot Input^e$$&lt;/span&gt;&lt;br&gt;&lt;/div&gt;" style="rounded=1;whiteSpace=wrap;html=1;" vertex="1" parent="1">
          <mxGeometry x="-2357" y="11592" width="935" height="124" as="geometry" />
        </mxCell>
        <mxCell id="wEDj9y5ge6KxLb9yTbvh-172" value="&lt;div&gt;&lt;span style=&quot;font-size: 25px;&quot;&gt;&lt;br&gt;&lt;/span&gt;&lt;/div&gt;&lt;div&gt;&lt;span style=&quot;font-size: 25px;&quot;&gt;$$\frac{\partial \text{Loss}}{\partial Q_{e}} =&amp;nbsp; \frac{\partial \text{Loss}}{\partial A_{e}} \cdot&amp;nbsp; \frac{\partial A_{e}}{\partial Q_{E}}\cdot \frac{\partial Q_{E}}{\partial Q_{e}}= \frac{\partial \text{Loss}}{\partial A_{e}}\cdot \sigma\left(\frac{Q_{E} K_{E}^T}{\sqrt{d_k}}\right)\cdot \left[1-\sigma\left(\frac{Q_{E} K_{E}^T}{\sqrt{d_k}}\right)\right]\cdot \frac{K_{E}^T}{\sqrt{d_k}}\cdot V_E \cdot Input^e$$&lt;/span&gt;&lt;br&gt;&lt;/div&gt;" style="rounded=1;whiteSpace=wrap;html=1;" vertex="1" parent="1">
          <mxGeometry x="-2700" y="11237" width="1278" height="182" as="geometry" />
        </mxCell>
        <mxCell id="wEDj9y5ge6KxLb9yTbvh-173" value="&lt;div&gt;&lt;span style=&quot;font-size: 25px;&quot;&gt;&lt;br&gt;&lt;/span&gt;&lt;/div&gt;&lt;div&gt;&lt;span style=&quot;font-size: 25px;&quot;&gt;$$\frac{\partial \text{Loss}}{\partial K_{e}} =&amp;nbsp; &amp;nbsp;\frac{\partial \text{Loss}}{\partial A_{e}} \cdot&amp;nbsp; \frac{\partial A_{e}}{\partial K_{E}}\cdot \frac{\partial K_{E}}{\partial K_{e}}= \frac{\partial \text{Loss}}{\partial A_{e}}\cdot \sigma\left(\frac{Q_{E} K_{E}^T}{\sqrt{d_k}}\right)\cdot \left[1-\sigma\left(\frac{Q_{E} K_{E}^T}{\sqrt{d_k}}\right)\right]\cdot \frac{Q_{E}}{\sqrt{d_k}}\cdot V_E \cdot Input^e$$&lt;/span&gt;&lt;br&gt;&lt;/div&gt;" style="rounded=1;whiteSpace=wrap;html=1;" vertex="1" parent="1">
          <mxGeometry x="-2713" y="10925" width="1285" height="182" as="geometry" />
        </mxCell>
        <mxCell id="wEDj9y5ge6KxLb9yTbvh-225" style="edgeStyle=orthogonalEdgeStyle;rounded=0;orthogonalLoop=1;jettySize=auto;html=1;exitX=0;exitY=0.5;exitDx=0;exitDy=0;entryX=0;entryY=0.5;entryDx=0;entryDy=0;" edge="1" parent="1" source="wEDj9y5ge6KxLb9yTbvh-174" target="wEDj9y5ge6KxLb9yTbvh-195">
          <mxGeometry relative="1" as="geometry" />
        </mxCell>
        <mxCell id="wEDj9y5ge6KxLb9yTbvh-174" value="&lt;div&gt;&lt;span style=&quot;background-color: initial; font-size: 25px;&quot;&gt;&lt;br&gt;&lt;/span&gt;&lt;/div&gt;&lt;div&gt;&lt;span style=&quot;background-color: initial; font-size: 25px;&quot;&gt;$$\frac{\partial \text{Loss}}{\partial Input^{e}_n} =&amp;nbsp; &amp;nbsp;\frac{\partial \text{Loss}}{\partial Ec_{t1}} \cdot&amp;nbsp; \frac{\partial Ec_{t1}}{\partial Norm(X_{e})} \cdot&amp;nbsp; \frac{\partial Norm(X_{e})}{\partial Input^{e}} = \frac{\partial \text{Loss}}{\partial E_{ct1}}\cdot&amp;nbsp; \left[(1-\frac{1}{N}) \frac{1}{\sqrt{\sigma^2_{(X_{e})}+\epsilon}}-\frac{1}{N}\frac{(X_{e}-\mu_{(X_{e})})^2}{(\sigma^2_{(X_{e})}+\epsilon)^{3/2}}\right]$$&lt;/span&gt;&lt;br&gt;&lt;/div&gt;" style="rounded=1;whiteSpace=wrap;html=1;" vertex="1" parent="1">
          <mxGeometry x="-2840" y="10523" width="1405" height="200" as="geometry" />
        </mxCell>
        <mxCell id="wEDj9y5ge6KxLb9yTbvh-182" style="edgeStyle=orthogonalEdgeStyle;rounded=0;orthogonalLoop=1;jettySize=auto;html=1;exitX=0.5;exitY=0;exitDx=0;exitDy=0;entryX=0;entryY=0.5;entryDx=0;entryDy=0;" edge="1" parent="1" source="wEDj9y5ge6KxLb9yTbvh-177" target="e0o2W6mFJVZslNkPYuPA-247">
          <mxGeometry relative="1" as="geometry" />
        </mxCell>
        <mxCell id="wEDj9y5ge6KxLb9yTbvh-209" style="edgeStyle=orthogonalEdgeStyle;rounded=0;orthogonalLoop=1;jettySize=auto;html=1;exitX=0;exitY=0.5;exitDx=0;exitDy=0;entryX=1;entryY=0.5;entryDx=0;entryDy=0;" edge="1" parent="1" source="wEDj9y5ge6KxLb9yTbvh-177" target="wEDj9y5ge6KxLb9yTbvh-190">
          <mxGeometry relative="1" as="geometry" />
        </mxCell>
        <mxCell id="wEDj9y5ge6KxLb9yTbvh-177" value="&lt;br&gt;&lt;div style=&quot;border-color: var(--border-color); font-size: 30px;&quot;&gt;&lt;font style=&quot;border-color: var(--border-color);&quot;&gt;$$Input^e \cdot K_e$$&lt;/font&gt;&lt;/div&gt;&lt;div style=&quot;border-color: var(--border-color); font-size: 30px;&quot;&gt;&lt;font style=&quot;border-color: var(--border-color);&quot;&gt;&lt;br style=&quot;border-color: var(--border-color);&quot;&gt;&lt;/font&gt;&lt;/div&gt;" style="rounded=1;whiteSpace=wrap;html=1;strokeColor=#FF6666;fontSize=24;fillColor=#FFFFFF;" vertex="1" parent="1">
          <mxGeometry x="-378.9999999999998" y="12718" width="200" height="118" as="geometry" />
        </mxCell>
        <mxCell id="wEDj9y5ge6KxLb9yTbvh-183" style="edgeStyle=orthogonalEdgeStyle;rounded=0;orthogonalLoop=1;jettySize=auto;html=1;exitX=0.5;exitY=0;exitDx=0;exitDy=0;entryX=1;entryY=0.5;entryDx=0;entryDy=0;" edge="1" parent="1" source="wEDj9y5ge6KxLb9yTbvh-178" target="e0o2W6mFJVZslNkPYuPA-247">
          <mxGeometry relative="1" as="geometry" />
        </mxCell>
        <mxCell id="wEDj9y5ge6KxLb9yTbvh-192" style="edgeStyle=orthogonalEdgeStyle;rounded=0;orthogonalLoop=1;jettySize=auto;html=1;exitX=0;exitY=0.5;exitDx=0;exitDy=0;entryX=1;entryY=0.5;entryDx=0;entryDy=0;" edge="1" parent="1" source="wEDj9y5ge6KxLb9yTbvh-178" target="wEDj9y5ge6KxLb9yTbvh-189">
          <mxGeometry relative="1" as="geometry" />
        </mxCell>
        <mxCell id="wEDj9y5ge6KxLb9yTbvh-178" value="&lt;br&gt;&lt;div style=&quot;border-color: var(--border-color); font-size: 30px;&quot;&gt;&lt;font style=&quot;border-color: var(--border-color);&quot;&gt;$$Input^e \cdot Q_e$$&lt;/font&gt;&lt;/div&gt;&lt;div style=&quot;border-color: var(--border-color); font-size: 30px;&quot;&gt;&lt;font style=&quot;border-color: var(--border-color);&quot;&gt;&lt;br style=&quot;border-color: var(--border-color);&quot;&gt;&lt;/font&gt;&lt;/div&gt;" style="rounded=1;whiteSpace=wrap;html=1;strokeColor=#FF6666;fontSize=24;fillColor=#FFFFFF;" vertex="1" parent="1">
          <mxGeometry x="77.00000000000014" y="12348" width="200" height="118" as="geometry" />
        </mxCell>
        <mxCell id="wEDj9y5ge6KxLb9yTbvh-184" style="edgeStyle=orthogonalEdgeStyle;rounded=0;orthogonalLoop=1;jettySize=auto;html=1;exitX=0.5;exitY=0;exitDx=0;exitDy=0;entryX=1;entryY=0.5;entryDx=0;entryDy=0;" edge="1" parent="1" source="wEDj9y5ge6KxLb9yTbvh-179" target="e0o2W6mFJVZslNkPYuPA-249">
          <mxGeometry relative="1" as="geometry" />
        </mxCell>
        <mxCell id="wEDj9y5ge6KxLb9yTbvh-191" style="edgeStyle=orthogonalEdgeStyle;rounded=0;orthogonalLoop=1;jettySize=auto;html=1;exitX=0;exitY=0.5;exitDx=0;exitDy=0;entryX=1;entryY=0.5;entryDx=0;entryDy=0;" edge="1" parent="1" source="wEDj9y5ge6KxLb9yTbvh-179" target="wEDj9y5ge6KxLb9yTbvh-170">
          <mxGeometry relative="1" as="geometry" />
        </mxCell>
        <mxCell id="wEDj9y5ge6KxLb9yTbvh-179" value="&lt;br&gt;&lt;div style=&quot;border-color: var(--border-color); font-size: 30px;&quot;&gt;&lt;font style=&quot;border-color: var(--border-color);&quot;&gt;$$Input^e \cdot V_e$$&lt;/font&gt;&lt;/div&gt;&lt;div style=&quot;border-color: var(--border-color); font-size: 30px;&quot;&gt;&lt;font style=&quot;border-color: var(--border-color);&quot;&gt;&lt;br style=&quot;border-color: var(--border-color);&quot;&gt;&lt;/font&gt;&lt;/div&gt;" style="rounded=1;whiteSpace=wrap;html=1;strokeColor=#FF6666;fontSize=24;fillColor=#FFFFFF;" vertex="1" parent="1">
          <mxGeometry x="506.0000000000002" y="11990" width="200" height="118" as="geometry" />
        </mxCell>
        <mxCell id="wEDj9y5ge6KxLb9yTbvh-197" style="edgeStyle=orthogonalEdgeStyle;rounded=0;orthogonalLoop=1;jettySize=auto;html=1;exitX=0;exitY=0.5;exitDx=0;exitDy=0;entryX=0.5;entryY=0;entryDx=0;entryDy=0;" edge="1" parent="1" source="wEDj9y5ge6KxLb9yTbvh-189" target="wEDj9y5ge6KxLb9yTbvh-195">
          <mxGeometry relative="1" as="geometry" />
        </mxCell>
        <mxCell id="wEDj9y5ge6KxLb9yTbvh-189" value="&lt;div&gt;&lt;font style=&quot;font-size: 24px;&quot;&gt;&amp;nbsp;$$\frac{\partial \text{Loss}}{\partial Input^{e}_Q} =&amp;nbsp; &amp;nbsp;\frac{\partial \text{Loss}}{\partial Q_E} \cdot&amp;nbsp; \frac{\partial Q_{E}}{\partial Input^{e}}= \frac{\partial \text{Loss}}{\partial Q_E} \cdot Q_e$$&lt;/font&gt;&lt;br&gt;&lt;/div&gt;" style="rounded=1;whiteSpace=wrap;html=1;" vertex="1" parent="1">
          <mxGeometry x="-2050" y="12319" width="668" height="182" as="geometry" />
        </mxCell>
        <mxCell id="wEDj9y5ge6KxLb9yTbvh-198" style="edgeStyle=orthogonalEdgeStyle;rounded=0;orthogonalLoop=1;jettySize=auto;html=1;exitX=0;exitY=0.5;exitDx=0;exitDy=0;entryX=0.75;entryY=0;entryDx=0;entryDy=0;" edge="1" parent="1" source="wEDj9y5ge6KxLb9yTbvh-190" target="wEDj9y5ge6KxLb9yTbvh-195">
          <mxGeometry relative="1" as="geometry" />
        </mxCell>
        <mxCell id="wEDj9y5ge6KxLb9yTbvh-190" value="&lt;div&gt;&lt;span style=&quot;font-size: 24px;&quot;&gt;&amp;nbsp;$$\frac{\partial \text{Loss}}{\partial Input^{e}_K} =&amp;nbsp; &amp;nbsp;\frac{\partial \text{Loss}}{\partial K_E} \cdot&amp;nbsp; \frac{\partial K_{E}}{\partial Input^{e}}= \frac{\partial \text{Loss}}{\partial K_E} \cdot K_e$$&lt;/span&gt;&lt;br&gt;&lt;/div&gt;" style="rounded=1;whiteSpace=wrap;html=1;" vertex="1" parent="1">
          <mxGeometry x="-2047" y="12689" width="665" height="182" as="geometry" />
        </mxCell>
        <mxCell id="wEDj9y5ge6KxLb9yTbvh-194" value="&lt;div&gt;&lt;span style=&quot;font-size: 25px;&quot;&gt;&lt;br&gt;&lt;/span&gt;&lt;/div&gt;&lt;div&gt;&lt;span style=&quot;font-size: 25px;&quot;&gt;$$\frac{\partial \text{Loss}}{\partial W^e_{emb}} =&amp;nbsp; &amp;nbsp;\frac{\partial \text{Loss}}{\partial Input^e} \cdot \frac{\partial Input^e}{\partial W^e_{emb}}= \frac{\partial \text{Loss}}{\partial Input^e} \cdot Input^e$$&lt;/span&gt;&lt;br&gt;&lt;/div&gt;" style="rounded=1;whiteSpace=wrap;html=1;" vertex="1" parent="1">
          <mxGeometry x="-2054" y="13365" width="721" height="182" as="geometry" />
        </mxCell>
        <mxCell id="wEDj9y5ge6KxLb9yTbvh-215" style="edgeStyle=orthogonalEdgeStyle;rounded=0;orthogonalLoop=1;jettySize=auto;html=1;exitX=1;exitY=0.5;exitDx=0;exitDy=0;entryX=0;entryY=0.5;entryDx=0;entryDy=0;" edge="1" parent="1" source="wEDj9y5ge6KxLb9yTbvh-195" target="wEDj9y5ge6KxLb9yTbvh-194">
          <mxGeometry relative="1" as="geometry" />
        </mxCell>
        <mxCell id="wEDj9y5ge6KxLb9yTbvh-195" value="&lt;span style=&quot;font-size: 25px;&quot;&gt;$$\frac{\partial \text{Loss}}{\partial Input^{tot}_{e}} = \sum{}{\frac{\partial \text{Loss}}{\partial Input^{i}_{e}}}$$&lt;/span&gt;" style="rounded=1;whiteSpace=wrap;html=1;" vertex="1" parent="1">
          <mxGeometry x="-2769" y="13382.5" width="371" height="147" as="geometry" />
        </mxCell>
        <mxCell id="wEDj9y5ge6KxLb9yTbvh-233" style="rounded=0;orthogonalLoop=1;jettySize=auto;html=1;exitX=0.5;exitY=0;exitDx=0;exitDy=0;" edge="1" parent="1" source="wEDj9y5ge6KxLb9yTbvh-205" target="e0o2W6mFJVZslNkPYuPA-285">
          <mxGeometry relative="1" as="geometry" />
        </mxCell>
        <mxCell id="wEDj9y5ge6KxLb9yTbvh-205" value="&lt;br&gt;&lt;div style=&quot;border-color: var(--border-color); font-size: 30px;&quot;&gt;&lt;font style=&quot;border-color: var(--border-color);&quot;&gt;$$A_{weights}=\sigma(\frac{Q_{D} K_{D}^T}{\sqrt d_k}+Mask)$$&lt;/font&gt;&lt;/div&gt;&lt;div style=&quot;border-color: var(--border-color); font-size: 30px;&quot;&gt;&lt;font style=&quot;border-color: var(--border-color);&quot;&gt;&lt;br style=&quot;border-color: var(--border-color);&quot;&gt;&lt;/font&gt;&lt;/div&gt;" style="rounded=1;whiteSpace=wrap;html=1;strokeColor=#FF6666;fontSize=24;fillColor=#FFFFFF;" vertex="1" parent="1">
          <mxGeometry x="3895.5" y="6945" width="548" height="118" as="geometry" />
        </mxCell>
        <mxCell id="wEDj9y5ge6KxLb9yTbvh-256" value="" style="rounded=1;whiteSpace=wrap;html=1;fillColor=none;strokeWidth=4;strokeColor=#0000FF;" vertex="1" parent="1">
          <mxGeometry x="-1149.5" y="7420" width="2135.5" height="6350" as="geometry" />
        </mxCell>
      </root>
    </mxGraphModel>
  </diagram>
</mxfile>
